<svg width="600" height="400" xmlns="http://www.w3.org/2000/svg" xmlns:xlink="http://www.w3.org/1999/xlink"><defs><linearGradient x1="89.652%" y1="50.886%" x2="16.787%" y2="48.478%" id="a"><stop stop-color="#245CD7" offset="0%"/><stop stop-color="#6C96E7" offset="63.782%"/><stop stop-color="#74A7FF" offset="100%"/></linearGradient><linearGradient x1="85.577%" y1="53.322%" x2="6.816%" y2="50%" id="c"><stop stop-color="#468DEF" offset="0%"/><stop stop-color="#BBD8FF" offset="100%"/></linearGradient><linearGradient x1="50%" y1="0%" x2="50%" y2="100%" id="b"><stop stop-color="#FFF" stop-opacity="0" offset="0%"/><stop stop-color="#FFF" stop-opacity=".209" offset="100%"/></linearGradient><filter x="-5.6%" y="-9.6%" width="111.2%" height="119.2%" filterUnits="objectBoundingBox" id="d"><feGaussianBlur stdDeviation="4" in="SourceGraphic"/></filter><linearGradient x1="50%" y1="0%" x2="50%" y2="100%" id="e"><stop stop-color="#FFF" stop-opacity="0" offset="0%"/><stop stop-color="#FFF" stop-opacity=".2" offset="100%"/></linearGradient><filter x="0%" y="0%" width="100%" height="100%" filterUnits="objectBoundingBox" id="f"><feGaussianBlur stdDeviation="4" in="SourceGraphic"/></filter><linearGradient x1="18.439%" y1="67.965%" x2="96.553%" y2="54.076%" id="g"><stop stop-color="#D4DEE9" offset="0%"/><stop stop-color="#B8CAD7" offset="100%"/></linearGradient><linearGradient x1="64.853%" y1="41.04%" x2="59.871%" y2="44.928%" id="h"><stop stop-color="#DADDE0" offset="0%"/><stop stop-color="#EDEEEF" offset="100%"/></linearGradient><linearGradient x1="29.637%" y1="11.767%" x2="78.517%" y2="91.397%" id="i"><stop stop-color="#22BEFF" offset="0%"/><stop stop-color="#017CDD" offset="100%"/></linearGradient><filter x="0%" y="0%" width="100%" height="100%" filterUnits="objectBoundingBox" id="j"><feGaussianBlur stdDeviation="4" in="SourceGraphic"/></filter><linearGradient x1="18.439%" y1="67.953%" x2="96.553%" y2="54.074%" id="k"><stop stop-color="#D4DEE9" offset="0%"/><stop stop-color="#B8CAD7" offset="100%"/></linearGradient><linearGradient x1="78.284%" y1="24.719%" x2="21.421%" y2="62.943%" id="l"><stop stop-color="#DADDE0" offset="0%"/><stop stop-color="#EDEEEF" offset="100%"/></linearGradient><linearGradient x1="55.65%" y1="54.199%" x2="6.52%" y2="36.35%" id="m"><stop stop-color="#6BB6CD" offset="0%"/><stop stop-color="#A6E55D" offset="100%"/></linearGradient><linearGradient x1="15.831%" y1="76.009%" x2="70.713%" y2="36.85%" id="n"><stop stop-color="#4E98FF" offset="0%"/><stop stop-color="#00E9FF" stop-opacity="0" offset="100%"/></linearGradient><linearGradient x1="8.221%" y1="83.76%" x2="70.751%" y2="37.311%" id="o"><stop stop-color="#4E98FF" offset="0%"/><stop stop-color="#00E9FF" stop-opacity="0" offset="100%"/></linearGradient><linearGradient x1="50%" y1="93.162%" x2="50%" y2="-3.75%" id="p"><stop stop-color="#4E98FF" offset="0%"/><stop stop-color="#00E9FF" stop-opacity="0" offset="100%"/></linearGradient><linearGradient x1="50%" y1="100%" x2="50%" y2="0%" id="q"><stop stop-color="#84F6FF" offset="0%"/><stop stop-color="#4CE9FF" stop-opacity=".104" offset="100%"/></linearGradient><linearGradient x1="50%" y1="100%" x2="50%" y2="0%" id="r"><stop stop-color="#84F6FF" offset="0%"/><stop stop-color="#4CE9FF" stop-opacity=".104" offset="100%"/></linearGradient><linearGradient x1="78.178%" y1="100%" x2="21.822%" y2="0%" id="t"><stop stop-color="#3375F8" offset="0%"/><stop stop-color="#249DF8" offset="100%"/></linearGradient><path d="M53.92 103.821L2.015 74.146A4 4 0 0 1 0 70.674V13.883a4 4 0 0 1 2.204-3.574L21.884.417a4 4 0 0 1 3.767.092l50.246 28.424a4 4 0 0 1 2.03 3.48l.016 56.816a4 4 0 0 1-1.901 3.406l-18.038 11.119a4 4 0 0 1-4.084.067z" id="s"/><linearGradient x1="12.55%" y1="43.877%" x2="153.764%" y2="61.543%" id="u"><stop stop-color="#58A7FF" offset="0%"/><stop stop-color="#478AF9" offset="100%"/></linearGradient><linearGradient x1="45.161%" y1="41.316%" x2="54.564%" y2="81.295%" id="w"><stop stop-color="#3771EB" offset="0%"/><stop stop-color="#1B75E9" offset="100%"/></linearGradient><path d="M29.891 50.75c.288-.491.926-.548 1.628-.144l11.106 6.38c1.316.756 2.179 2.662 1.607 3.549L34.02 76.375c-.659 1.023-2.613-.127-3.235-1.903l-2.49-7.11 1.956-3.339 2.219 6.334 7.313-11.344-7.108-4.084-3.511 5.99-1.957 3.339-3.578 6.103c-.622 1.062-2.576-.034-3.235-1.813L10.18 40.972c-.572-1.544.291-2.458 1.607-1.702l11.106 6.38c.702.404 1.34 1.192 1.627 2.015l1.598 4.562-1.957 3.339-2.423-6.919-7.108-4.083 7.313 19.746 3.306-5.64 1.957-3.339 2.685-4.58z" id="x"/><filter x="-3.5%" y="-3.2%" width="107%" height="106.5%" filterUnits="objectBoundingBox" id="y"><feGaussianBlur stdDeviation=".5" in="SourceAlpha" result="shadowBlurInner1"/><feOffset in="shadowBlurInner1" result="shadowOffsetInner1"/><feComposite in="shadowOffsetInner1" in2="SourceAlpha" operator="arithmetic" k2="-1" k3="1" result="shadowInnerInner1"/><feColorMatrix values="0 0 0 0 0 0 0 0 0 0 0 0 0 0 0 0 0 0 0.25 0" in="shadowInnerInner1"/></filter></defs><g fill="none" fill-rule="evenodd"><path d="M.574 182.148l101.032 57.693a15 15 0 0 0 15.033-.09L215 181.997v18.364a6 6 0 0 1-2.983 5.186l-95.326 55.454a15 15 0 0 1-15.084 0l-98.05-57.026a6 6 0 0 1-2.983-5.187v-16.64z" fill="url(#a)" transform="translate(179 12)"/><path d="M.574 182.229l105.924-63.08 107.035 59.246a3 3 0 0 1 .055 5.218l-99.5 57.895a10 10 0 0 1-10 .033L.573 182.23h0z" stroke="url(#b)" fill="url(#c)" transform="translate(179 12)"/><path fill="#114BBB" opacity=".106" filter="url(#d)" d="M0 241.783l105.924-63.08 108.353 63-105.754 62.264z" transform="translate(179 12)"/><path d="M255.65 173.302c18.517-10.997 48.906-11.076 67.877-.194 18.971 10.882 19.34 28.61.823 39.594-18.516 10.985-48.906 11.077-67.877.194-18.971-10.882-19.34-28.609-.823-39.594z" stroke="url(#e)" fill="#2366D6"/><path d="M164.673 153.184L63.288 93.08a8.13 8.13 0 0 0-7.49-.034L2.22 121.939c-.534 3.65-.12 5.885 1.242 6.705l101.385 60.988a8.13 8.13 0 0 0 7.49.035l52.245-32.07c2.091-1.218 2.134-3.195.091-4.413z" fill="url(#g)" transform="translate(68 148)"/><path d="M163.525 62.023L62.141 1.92a8.13 8.13 0 0 0-7.49-.035L2.411 33.07c-2.097 1.207-2.139 3.184-.096 4.414L103.699 98.47a8.13 8.13 0 0 0 7.49.035l52.246-32.07c2.09-1.206 2.133-3.183.09-4.413z" fill="url(#h)" transform="translate(69.148 235.356)"/><path d="M210.272 299.529l-8.33-4.908-4.684 2.655 8.33 4.908 4.684-2.655zm-12.253-7.219l-8.33-4.908-4.685 2.655 8.33 4.909 4.685-2.656zm-12.238-7.207l-8.33-4.908-4.685 2.656 8.33 4.908 4.685-2.656zm-12.254-7.218l-8.33-4.908-4.685 2.655 8.33 4.897 4.685-2.644zm-12.254-7.218l-8.33-4.908-4.684 2.643 8.33 4.908 4.684-2.643zm-12.237-7.219l-8.33-4.908-4.685 2.655 8.33 4.908 4.685-2.655zm-12.254-7.218l-8.33-4.908-4.684 2.655 8.33 4.908 4.684-2.655zm65.06 48.069l-8.33-4.908-4.684 2.655 8.33 4.908 4.685-2.655zm-12.253-7.219l-8.33-4.908-4.684 2.656 8.33 4.908 4.684-2.656zm-12.237-7.206l-8.33-4.908-4.685 2.655 8.33 4.908 4.685-2.655zm-12.254-7.219l-8.33-4.908-4.684 2.655 8.33 4.908 4.684-2.655zm-12.253-7.218l-8.331-4.908-4.685 2.655 8.331 4.908 4.685-2.655zm-12.239-7.207l-8.33-4.908-4.684 2.644 8.33 4.908 4.684-2.644zm-12.253-7.219l-8.33-4.908-4.685 2.644 8.33 4.908 4.685-2.644zm65.061 48.07l-8.33-4.909-4.685 2.644 8.33 4.908 4.685-2.644zm-12.254-7.219l-8.33-4.908-4.685 2.644 8.33 4.908 4.685-2.644zm-12.238-7.218l-8.33-4.908-4.684 2.655 8.33 4.908 4.684-2.655zm-12.253-7.219l-8.333-4.908-4.685 2.655 8.33 4.908 4.688-2.655zm-12.254-7.218l-8.33-4.908-4.684 2.655 8.33 4.908 4.684-2.655zM132.178 273l-8.33-4.908-4.685 2.655 8.33 4.908 4.685-2.655zm-12.254-7.218l-8.33-4.908-4.685 2.655 8.33 4.908 4.685-2.655zm66 47.54l-8.33-4.908-4.684 2.643 8.33 4.909 4.685-2.644zm-12.253-7.219l-8.33-4.908-4.684 2.644 8.33 4.908 4.684-2.644zm-12.237-7.218l-12.254-7.218-4.684 2.655 12.253 7.218 4.685-2.655zm-12.254-7.218l-8.33-4.908-4.684 2.655 8.33 4.908 4.684-2.655zm-8.33-4.908l-12.254-7.219-4.685 2.655 12.255 7.219 4.683-2.655zm-16.162-9.518l-8.33-4.908-4.684 2.656 8.33 4.908 4.684-2.656zm-12.253-7.218l-8.33-4.908-4.685 2.655 8.33 4.908 4.685-2.655z" fill="#BEC1C1"/><path d="M210.272 298.77l-8.33-4.908-4.684 2.655 8.33 4.908 4.684-2.655zm-12.253-7.218l-8.33-4.908-4.685 2.655 8.33 4.908 4.685-2.655zm-12.238-7.207l-8.33-4.908-4.685 2.643 8.33 4.909 4.685-2.644zm-12.254-7.219l-8.33-4.908-4.685 2.644 8.33 4.908 4.685-2.644zm-12.254-7.23l-8.33-4.907-4.684 2.655 8.33 4.908 4.684-2.655zm-12.237-7.206l-8.33-4.908-4.685 2.655 8.33 4.908 4.685-2.655zm-12.254-7.219l-8.33-4.908-4.684 2.655 8.33 4.908 4.684-2.655zm65.06 48.07l-8.33-4.909-4.684 2.655 8.33 4.908 4.685-2.655zm-12.253-7.22l-8.33-4.907-4.684 2.655 8.33 4.908 4.684-2.655zm-12.237-7.206l-8.33-4.908-4.685 2.655 8.33 4.908 4.685-2.655zm-12.254-7.218l-8.33-4.908-4.684 2.655 8.33 4.908 4.684-2.655zm-12.253-7.219l-8.331-4.908-4.685 2.655 8.331 4.908 4.685-2.655zm-12.239-7.218l-8.33-4.908-4.684 2.655 8.33 4.908 4.684-2.655zm-12.253-7.219l-8.33-4.908-4.685 2.656 8.33 4.908 4.685-2.656zm65.061 48.08l-8.33-4.907-4.685 2.643 8.33 4.909 4.685-2.644zm-12.254-7.229l-8.33-4.908-4.685 2.655 8.33 4.908 4.685-2.655zm-12.238-7.207l-8.33-4.908-4.684 2.655 8.33 4.908 4.684-2.655zm-12.253-7.218l-8.333-4.908-4.685 2.655 8.33 4.908 4.688-2.655zm-12.254-7.219l-8.33-4.908-4.684 2.655 8.33 4.908 4.684-2.655zm-12.237-7.207l-8.33-4.908-4.685 2.656 8.33 4.908 4.685-2.656zm-12.254-7.218l-8.33-4.908-4.685 2.644 8.33 4.908 4.685-2.644zm66 47.529l-8.33-4.908-4.684 2.655 8.33 4.908 4.685-2.655zm-12.253-7.219l-8.33-4.908-4.684 2.655 8.33 4.909 4.684-2.656zm-12.237-7.207l-12.254-7.218-4.684 2.655 12.253 7.219 4.685-2.656zm-12.254-7.218L140.85 286l-4.684 2.655 8.33 4.908 4.684-2.655zM140.85 286l-12.254-7.218-4.685 2.655 12.255 7.218 4.683-2.655zm-16.162-9.517l-8.33-4.908-4.684 2.655 8.33 4.896 4.684-2.643zm-12.253-7.219l-8.33-4.908L99.42 267l8.33 4.908 4.685-2.644z" fill="#CFD0D0"/><path d="M128.913 150.874l103.33 59.816a8.534 8.534 0 0 1 3.839 6.69v79.482c0 2.46-1.722 3.448-3.84 2.195l-103.33-60.896a8.482 8.482 0 0 1-3.74-6.61v-78.448c0-2.436 1.674-3.436 3.74-2.23z" fill="#F5F5F5"/><path fill="#E8F0F7" d="M238.348 211.954l-108.453-63.759-3.128 2.173 108.55 63.345z"/><path fill="#C5CFD7" d="M234.468 212.84l3.558-1.553v85.667l-3.558 2.448V212.84z"/><path fill="url(#i)" d="M4.413 8.172L108.275 68.38v77.322L4.413 84.541V8.171z" transform="translate(124.235 148)"/><g><path fill="#FFF" d="M135.977 169.713l89.295 51.253v69.137L135.977 238z"/><path fill="#D4EBEF" d="M157.287 192.483L206.844 221v3.793l-49.557-28.552zM163.118 205.632l43.067 24.84v2.275l-43.067-24.862v-2.253zm0 5.265l23.427 13.54v2.264l-23.427-13.54v-2.264zM163.118 219.943l43.067 24.93v2.276l-43.067-24.954v-2.252zm0 5.275l29.962 17.357v2.276l-29.962-17.38v-2.253zM163.118 235.011l43.067 25.012v2.276l-43.067-25.035v-2.253zm0 5.265l20.817 12.115v2.264l-20.817-12.115v-2.264z"/><path fill="#D4EBEF" opacity=".4" d="M209.469 222.517l13.164 7.575v10.632l-13.164-7.598zM209.469 237.678l13.164 7.598v10.632l-13.164-7.62v-10.61z"/><path fill="#1CB3FA" d="M157.287 202.264l4.536 2.621v5.264l-4.536-2.62z"/><path fill="#77BD8C" d="M157.287 216.563l4.536 2.632v5.265l-4.536-2.632z"/><path fill="#ECAB2C" d="M157.287 231.62l4.536 2.633v5.276l-4.536-2.644z"/><path fill="#F5F7F7" d="M135.977 169.713l89.295 51.253v6.839l-89.295-51.345z"/><path fill="#D5EBEF" opacity=".8" d="M135.977 176.46l14.837 8.54v61.655L135.977 238v-61.54z"/></g><g><path d="M115.31 93.644l51.69 30.84V124h2v2.3a1.9 1.9 0 0 1 0 1.506V128h-.092c-.242.449-.66.871-1.256 1.23L66.268 190.218a8.137 8.137 0 0 1-7.491.035L4.93 157.384v-4.641h4l.974 1.52 97.916-60.585a8.096 8.096 0 0 1 7.49-.034z" fill="url(#k)" transform="translate(334 190)"/><path d="M1.843 61.46L103.23 1.368a8.13 8.13 0 0 1 7.49-.035l52.247 31.173c2.095 1.218 2.137 3.195.096 4.414l-101.385 61a8.137 8.137 0 0 1-7.49.023L1.94 65.885C-.156 64.667-.2 62.69 1.843 61.46z" fill="url(#l)" transform="translate(338.59 278.506)"/><path d="M362.836 342.126l8.33-4.908 4.684 2.656-8.33 4.896-4.684-2.644zm12.253-7.218l8.33-4.908 4.685 2.644-8.33 4.908-4.685-2.644zm12.238-7.218l8.33-4.908 4.684 2.655-8.33 4.908-4.684-2.655zm12.253-7.219l8.33-4.908 4.685 2.655-8.33 4.908-4.685-2.655zm12.254-7.218l8.33-4.908L424.85 311l-8.33 4.908-4.685-2.655zm12.238-7.207l8.33-4.908 4.685 2.655-8.33 4.908-4.685-2.655zm12.254-7.218l8.33-4.908 4.684 2.655-8.33 4.908-4.684-2.655zm-65.062 48.069l8.331-4.908 4.685 2.655-8.331 4.908-4.685-2.655zm12.255-7.219l8.33-4.908 4.684 2.655-8.33 4.908-4.684-2.655zm12.237-7.207l8.33-4.908 4.685 2.644-8.33 4.908-4.685-2.644zm12.254-7.218l8.33-4.908 4.684 2.644-8.33 4.908-4.684-2.644zm12.253-7.23l8.33-4.908 4.685 2.655-8.33 4.908-4.685-2.655zm12.238-7.207l8.33-4.908 4.685 2.655-8.33 4.908-4.685-2.655zm12.253-7.218l8.33-4.908 4.686 2.655-8.331 4.908-4.685-2.655zm-65.06 48.069l8.33-4.908 4.684 2.655-8.33 4.908-4.684-2.655zm12.253-7.219l8.33-4.908 4.685 2.655-8.33 4.908-4.685-2.655zm12.238-7.207l8.33-4.908 4.685 2.656-8.33 4.908-4.685-2.656zm12.254-7.218l8.33-4.908 4.685 2.655-8.33 4.908-4.685-2.655zm12.254-7.218l8.33-4.908 4.684 2.655-8.33 4.896-4.684-2.643zm12.237-7.219l8.33-4.908 4.684 2.655-8.33 4.908-4.684-2.655zm12.254-7.218l8.33-4.908 4.684 2.655-8.33 4.908-4.684-2.655zm-66 47.54l8.329-4.908 4.685 2.655-8.33 4.908-4.685-2.655zm12.253-7.218l8.33-4.908 4.684 2.655-8.33 4.908-4.684-2.655zm12.237-7.207l12.254-7.219 4.684 2.656-12.253 7.218-4.685-2.655zm12.254-7.219l8.33-4.908 4.684 2.655-8.33 4.909-4.684-2.656zm8.33-4.908l12.254-7.218 4.683 2.644-12.253 7.23-4.685-2.656zm16.16-9.528l8.331-4.908 4.685 2.655-8.33 4.908-4.685-2.655zm12.255-7.219l8.33-4.908 4.684 2.655-8.33 4.908-4.684-2.655z" fill="#BEC1C1"/><path d="M362.836 341.368l8.33-4.908 4.684 2.643-8.33 4.908-4.684-2.643zm12.253-7.23l8.33-4.908 4.685 2.655-8.33 4.908-4.685-2.655zm12.238-7.207l8.33-4.908 4.684 2.655-8.33 4.908-4.684-2.655zm12.253-7.218l8.33-4.908 4.685 2.655-8.33 4.908-4.685-2.655zm12.254-7.219l8.33-4.908 4.685 2.655-8.33 4.908-4.685-2.655zm12.238-7.207l8.33-4.908 4.685 2.655-8.33 4.909-4.685-2.656zm12.254-7.218l8.33-4.908 4.684 2.644-8.33 4.908-4.684-2.644zm-65.062 48.069l8.331-4.908 4.685 2.655-8.331 4.908-4.685-2.655zm12.255-7.218l8.33-4.909 4.684 2.656-8.33 4.908-4.684-2.655zm12.237-7.219l8.33-4.908 4.685 2.655-8.33 4.908-4.685-2.655zm12.254-7.218l8.33-4.908 4.684 2.655-8.33 4.908-4.684-2.655zm12.253-7.219l8.33-4.908 4.685 2.655-8.33 4.909-4.685-2.656zm12.238-7.207l8.33-4.908 4.685 2.656-8.33 4.908-4.685-2.656zm12.253-7.218l8.33-4.908 4.686 2.655-8.331 4.908-4.685-2.655zm-65.06 48.069l8.33-4.908 4.684 2.655-8.33 4.908-4.684-2.655zm12.253-7.218l8.33-4.908 4.685 2.655-8.33 4.908-4.685-2.655zm12.238-7.207l8.33-4.908 4.685 2.655-8.33 4.908-4.685-2.655zm12.254-7.219l8.33-4.908 4.685 2.644-8.33 4.908-4.685-2.644zm12.254-7.218l8.33-4.908 4.684 2.644-8.33 4.908-4.684-2.644zm12.237-7.218l8.33-4.908 4.684 2.655-8.33 4.908-4.684-2.655zm12.254-7.219l8.33-4.908 4.684 2.655-8.33 4.908-4.684-2.655zm-66 47.54l8.329-4.908 4.685 2.656-8.33 4.908-4.685-2.656zm12.253-7.218l8.33-4.908 4.684 2.655-8.33 4.908-4.684-2.655zm12.237-7.207l12.254-7.218 4.684 2.643-12.253 7.219-4.685-2.644zm12.254-7.218l8.33-4.908 4.684 2.643-8.33 4.908-4.684-2.643zm8.33-4.908l12.254-7.219 4.683 2.644-12.253 7.218-4.685-2.643zm16.16-9.529l8.331-4.908 4.685 2.655-8.33 4.908-4.685-2.655zm12.255-7.218l8.33-4.908 4.684 2.655-8.33 4.908-4.684-2.655z" fill="#CFD0D0"/><g><path d="M444.195 193.46l-103.33 59.827a8.533 8.533 0 0 0-3.839 6.679v79.494c0 2.46 1.722 3.448 3.838 2.195l103.331-60.908a8.464 8.464 0 0 0 3.741-6.61v-78.436c0-2.437-1.674-3.437-3.74-2.241z" fill="#F5F5F5"/><path fill="#E8F0F7" d="M334.76 254.552l108.453-63.77 3.128 2.172-108.55 63.345z"/><path fill="#C5CFD7" d="M338.64 255.425l-3.558-1.551v85.678l3.558 2.437z"/><path fill="url(#m)" d="M110.46 8.759L6.598 68.966v77.321l103.868-61.15V8.76z" transform="translate(334 190)"/></g><g><path fill="#FFF" d="M437.131 212.299l-89.295 51.264v69.138l89.295-52.103z"/><path fill="#D4EBEF" d="M415.828 235.069l-49.557 28.529v3.781l49.557-28.54zM409.99 248.218l-43.067 24.851v2.264l43.066-24.85v-2.265zm0 5.276l-23.428 13.529v2.276l23.427-13.54v-2.265zM409.99 262.529l-43.067 24.93v2.277l43.066-24.943v-2.264zm0 5.276l-29.962 17.367v2.265l29.961-17.368v-2.264zM409.99 277.598l-43.067 25.023v2.276l43.066-25.035v-2.264zm0 5.276l-20.818 12.103v2.276l20.817-12.127v-2.252z"/><path fill="#D4EBEF" opacity=".4" d="M363.64 265.103l-13.165 7.575v10.632l13.164-7.597zM363.64 280.264l-13.165 7.61v10.632l13.164-7.62v-10.622z"/><path fill="#ECAB2C" d="M415.828 244.85l-4.537 2.621v5.276l4.537-2.62z"/><path fill="#77BD8C" d="M415.828 259.16l-4.537 2.622v5.275l4.537-2.632z"/><path fill="#E1BB4A" d="M415.828 274.207l-4.537 2.644v5.264l4.537-2.632z"/><path fill="#F5F7F7" d="M437.131 212.299l-89.295 51.264v6.84l89.295-51.346V212.3z"/><path fill="#D5EBEF" opacity=".8" d="M437.131 219.057l-14.838 8.53v61.666l14.838-8.655v-61.54z"/></g></g><path fill="url(#n)" opacity=".55" d="M499.3 199v74L399 331.83v-74z"/><path fill="url(#o)" opacity=".55" transform="matrix(-1 0 0 1 248.3 0)" d="M174.3 165v74L74 297.83v-74z"/><path d="M269.822 181.728c10.609-6.273 28.018-6.308 38.886-.08 10.868 6.228 11.08 16.356.473 22.63-10.608 6.273-28.018 6.296-38.892.068-10.874-6.227-11.07-16.356-.467-22.618z" fill="#4E98FF"/><path fill="url(#p)" opacity=".65" d="M262.038 193h55.005l26.357-80.426-106-.574z"/><g transform="translate(251 155)"><path d="M11.145 5.168h0c-14.433 6.063-14.162 15.564.648 21.597 15.108 6.154 39.345 6.126 54.067-.066 14.432-6.07 14.153-15.572-.657-21.608-15.094-6.152-39.33-6.117-54.058.077z" stroke="url(#q)"/><ellipse fill="#64E3F5" cx="48.724" cy="30.707" rx="1.724" ry="1.707"/><ellipse fill="#64E3F5" cx="13.724" cy="27.707" rx="1.724" ry="1.707"/><ellipse fill="#64E3F5" opacity=".7" cx="68.724" cy="6.707" rx="1.724" ry="1.707"/><ellipse fill="#64E3F5" opacity=".5" cx="24.709" cy="1.707" rx="1.724" ry="1.707"/></g><g transform="translate(242 115)"><path d="M14.116 5.911h0c-18.46 7.046-18.115 18.099.827 25.11 19.27 7.132 50.168 7.1 68.946-.077 18.461-7.056 18.104-18.109-.837-25.123-19.253-7.13-50.149-7.09-68.936.09z" stroke="url(#r)"/><ellipse fill="#64E3F5" cx="60.529" cy="36.273" rx="1.729" ry="1.727"/><ellipse fill="#64E3F5" cx="23.635" cy="33.97" rx="1.729" ry="1.727"/><ellipse fill="#64E3F5" cx="80.129" cy="5.182" rx="1.729" ry="1.727"/><ellipse fill="#64E3F5" cx="32.859" cy="1.727" rx="1.729" ry="1.727"/></g><g transform="translate(247 41)"><mask id="v" fill="#fff"><use xlink:href="#s"/></mask><use fill="url(#t)" fill-rule="nonzero" xlink:href="#s"/><path fill="url(#u)" mask="url(#v)" d="M78 30.124L22.792-1.542 0 11.416l55.207 31.667z"/><path fill="url(#w)" mask="url(#v)" d="M55 43l27-16v79H55z"/><g mask="url(#v)"><use fill="#FFF" xlink:href="#x"/><use fill="#000" filter="url(#y)" xlink:href="#x"/><path stroke="#2774E8" stroke-width=".711" d="M29.585 50.57h0c.402-.687 1.258-.763 2.111-.273l11.106 6.38c1.472.846 2.43 2.962 1.73 4.05L34.317 76.568c-.882 1.37-3.169.024-3.87-1.978l-2.545-7.266 2.429-4.144 2.232 6.373 6.716-10.418-6.478-3.721-3.332 5.685-1.957 3.339-3.578 6.103c-.835 1.425-3.133.137-3.876-1.87L9.846 41.096c-.679-1.833.49-3.07 2.118-2.134l11.106 6.38c.778.447 1.47 1.304 1.786 2.205l1.653 4.718-2.43 4.143-2.633-7.518-6.141-3.529 6.711 18.121 2.926-4.991 1.957-3.34 2.686-4.58z"/></g></g></g></svg>