<svg xmlns="http://www.w3.org/2000/svg" width="90" height="90"><defs><linearGradient id="a" x1="50%" x2="50%" y1="0%" y2="100%"><stop offset="0%" stop-color="#29B4F6"/><stop offset="100%" stop-color="#0693EA"/></linearGradient></defs><g fill="none" fill-rule="evenodd"><rect width="90" height="90" fill="url(#a)" rx="20"/><path fill="#F59C05" d="M12 24h6.75v54H12z"/><path fill="#FFF38B" d="M26.25 12.75H33L18.75 24H12z"/><path fill="#FDD605" d="M18.75 24L33 12.75V58.5L18.75 78z"/><path fill="#E8290F" d="M18.75 71.25h48V78h-48z"/><path fill="#F64C36" d="M33 57.75h45l-11.25 13.5h-48z"/><path fill="#FFB6B3" d="M66.75 71.25L78 57.75v6.75L66.75 78z"/><path fill="#FFF" fill-rule="nonzero" d="M62.088 47.718l10.609 10.608a3 3 0 0 1-4.243 4.243L57.788 51.903A19.411 19.411 0 0 1 46.5 55.5C35.73 55.5 27 46.77 27 36s8.73-19.5 19.5-19.5S66 25.23 66 36c0 4.398-1.456 8.456-3.912 11.718zM46.5 48.75c7.042 0 12.75-5.708 12.75-12.75S53.542 23.25 46.5 23.25 33.75 28.958 33.75 36s5.708 12.75 12.75 12.75z"/></g></svg>