<svg xmlns="http://www.w3.org/2000/svg" viewBox="0 0 90 90"><defs><linearGradient id="a" x1="100%" x2="0%" y1="100%" y2="0%"><stop offset="0%" stop-color="#3375F8"/><stop offset="100%" stop-color="#249DF8"/></linearGradient></defs><g fill="none" fill-rule="nonzero"><path fill="url(#a)" d="M23.075 0h43.85c8.024 0 10.933.835 13.867 2.404a16.356 16.356 0 0 1 6.804 6.804C89.165 12.142 90 15.051 90 23.075v43.85c0 8.024-.835 10.933-2.404 13.867a16.356 16.356 0 0 1-6.804 6.804C77.858 89.165 74.949 90 66.925 90h-43.85c-8.024 0-10.933-.835-13.867-2.404a16.356 16.356 0 0 1-6.804-6.804C.835 77.858 0 74.949 0 66.925v-43.85c0-8.024.835-10.933 2.404-13.867a16.356 16.356 0 0 1 6.804-6.804C12.142.835 15.051 0 23.075 0z"/><path fill="#FFF" d="M43.2 34.638l-3.237 7.202-4.01-8.918H24.192l12.1 25.083 2.373-5.276a1.67 1.67 0 0 0 .023-.049L45 38.64l3.238 7.202-9.158 20.366c-1.029 2.289-4.263 2.332-5.353.072L16.829 31.252c-.946-1.96.482-4.236 2.66-4.236h18.374c1.163 0 2.217.682 2.694 1.742l2.644 5.88zm3.603 22.412l3.237-7.202 3.667 8.157 12.101-25.083H54.047l-5.81 12.919.004.006-3.237 7.202-3.242-7.208 7.681-17.083a2.953 2.953 0 0 1 2.694-1.742h18.375c2.177 0 3.605 2.275 2.66 4.236L56.272 66.279c-1.09 2.26-4.324 2.217-5.353-.072l-4.117-9.157z"/></g></svg>