<svg width="600" height="400" xmlns="http://www.w3.org/2000/svg" xmlns:xlink="http://www.w3.org/1999/xlink"><defs><filter x="-3%" y="-5.1%" width="105.9%" height="110.2%" filterUnits="objectBoundingBox" id="a"><feGaussianBlur stdDeviation="3.521" in="SourceGraphic"/></filter><linearGradient x1="-23.702%" y1="37.809%" x2="117.732%" y2="63.969%" id="b"><stop stop-color="#245CD7" offset="0%"/><stop stop-color="#81B0FF" offset="100%"/></linearGradient><linearGradient x1="4.979%" y1="44.403%" x2="57.291%" y2="52.167%" id="c"><stop stop-color="#D8E9FF" offset="0%"/><stop stop-color="#FFF" offset="100%"/></linearGradient><linearGradient x1="14.153%" y1="39.608%" x2="108.748%" y2="70.356%" id="e"><stop stop-color="#245CD7" offset="0%"/><stop stop-color="#81B0FF" offset="100%"/></linearGradient><path id="d" d="M0 72.48L121.428 0l182.028 104.939-121.427 72.488z"/><linearGradient x1="6.816%" y1="50%" x2="85.577%" y2="53.352%" id="h"><stop stop-color="#468DEF" offset="0%"/><stop stop-color="#BBD8FF" offset="100%"/></linearGradient><linearGradient x1="50%" y1="0%" x2="50%" y2="100%" id="g"><stop stop-color="#FFF" stop-opacity="0" offset="0%"/><stop stop-color="#FFF" stop-opacity=".209" offset="100%"/></linearGradient><linearGradient x1="31.088%" y1="74.108%" x2="31.088%" y2="17.556%" id="i"><stop stop-color="#4E98FF" offset="0%"/><stop stop-color="#00E9FF" stop-opacity="0" offset="100%"/></linearGradient><linearGradient x1="-31.267%" y1="42.169%" x2="102.735%" y2="24.416%" id="l"><stop stop-color="#4D8BD9" offset="0%"/><stop stop-color="#EDF4FC" offset="100%"/></linearGradient><path d="M89.192.397l4.484 2.594L5.204 55.81l-.155-.09.01 61.172-3.88-2.15-.01-61.226 1.513.839-1.96-1.131L89.192.397z" id="k"/><filter x="-20.4%" y="-21.5%" width="149.5%" height="139.5%" filterUnits="objectBoundingBox" id="j"><feOffset dx="4" dy="-2" in="SourceAlpha" result="shadowOffsetOuter1"/><feGaussianBlur stdDeviation="7" in="shadowOffsetOuter1" result="shadowBlurOuter1"/><feColorMatrix values="0 0 0 0 0 0 0 0 0 0.350738895 0 0 0 0 0.756085824 0 0 0 0.2 0" in="shadowBlurOuter1"/></filter><linearGradient x1="84.894%" y1="31.117%" x2="9.186%" y2="76.393%" id="m"><stop stop-color="#4E98FF" offset="0%"/><stop stop-color="#00E9FF" stop-opacity="0" offset="100%"/></linearGradient><linearGradient x1="-31.428%" y1="42.169%" x2="102.84%" y2="24.416%" id="p"><stop stop-color="#4D8BD9" offset="0%"/><stop stop-color="#EDF4FC" offset="100%"/></linearGradient><path d="M3.9 114.917l-3.734-2.68V51.43L86.812 0l5.14 1.7L4.026 53.977 3.9 114.917z" id="o"/><filter x="-20.7%" y="-21.8%" width="150.1%" height="140%" filterUnits="objectBoundingBox" id="n"><feOffset dx="4" dy="-2" in="SourceAlpha" result="shadowOffsetOuter1"/><feGaussianBlur stdDeviation="7" in="shadowOffsetOuter1" result="shadowBlurOuter1"/><feColorMatrix values="0 0 0 0 0 0 0 0 0 0.350738895 0 0 0 0 0.756085824 0 0 0 0.2 0" in="shadowBlurOuter1"/></filter><linearGradient x1="50%" y1="100%" x2="50%" y2="63.762%" id="q"><stop stop-color="#02F7F8" stop-opacity="0" offset="0%"/><stop stop-color="#42FCFF" stop-opacity=".574" offset="100%"/></linearGradient><linearGradient x1="36.928%" y1="100%" x2="59.38%" y2="0%" id="r"><stop stop-color="#209297" offset="0%"/><stop stop-color="#308BEF" offset="100%"/></linearGradient><linearGradient x1="50%" y1="119.951%" x2="50%" y2="-7.467%" id="s"><stop stop-color="#6BCDB7" offset="0%"/><stop stop-color="#52E699" offset="100%"/></linearGradient><linearGradient x1="-31.361%" y1="42.169%" x2="102.796%" y2="24.416%" id="v"><stop stop-color="#4D8BD9" offset="0%"/><stop stop-color="#EDF4FC" offset="100%"/></linearGradient><path d="M4.556 118.973L.5 116.177l.092-60.765L87.184 3.961l5.14 1.699L4.556 57.907v61.066z" id="u"/><filter x="-20.7%" y="-21.7%" width="150.1%" height="140%" filterUnits="objectBoundingBox" id="t"><feOffset dx="4" dy="-2" in="SourceAlpha" result="shadowOffsetOuter1"/><feGaussianBlur stdDeviation="7" in="shadowOffsetOuter1" result="shadowBlurOuter1"/><feColorMatrix values="0 0 0 0 0 0 0 0 0 0.350738895 0 0 0 0 0.756085824 0 0 0 0.2 0" in="shadowBlurOuter1"/></filter><linearGradient x1="84.894%" y1="31.117%" x2="15.106%" y2="74.744%" id="w"><stop stop-color="#4E98FF" offset="0%"/><stop stop-color="#00E9FF" stop-opacity="0" offset="100%"/></linearGradient></defs><g fill="none" fill-rule="evenodd"><path d="M5.93 123.65L114.35 58.933c7.185-4.283 18.973-4.327 26.328-.088l210.889 121.587c7.355 4.239 7.493 11.148.308 15.44L243.457 260.59c-7.185 4.292-18.973 4.327-26.329.088L6.24 139.099c-7.356-4.24-7.494-11.158-.31-15.45z" fill="#114BBB" opacity=".106" filter="url(#a)" transform="matrix(-1 0 0 1 479 102.624)"/><path d="M141.015 14.312l210.489 121.526c.56.324 1.079.663 1.556 1.015v-3.714h3.912l.001 9.2c.663 3.18-1.05 6.493-5.16 8.948l-108.019 64.768c-7.184 4.292-18.973 4.327-26.328.088L6.577 94.565c-2.673-1.54-4.393-3.435-5.154-5.428H.978v-2.07a6.454 6.454 0 0 1-.001-.665l.001-11.958h3.913v5.591c.424-.318.883-.625 1.377-.92L114.686 14.4c7.185-4.283 18.973-4.327 26.329-.088z" fill="url(#b)" transform="matrix(-1 0 0 1 479 102.624)"/><path d="M5.93 68.699L114.35 3.984c7.185-4.292 18.973-4.328 26.328-.089l210.889 121.579c7.355 4.239 7.493 11.157.308 15.44L243.457 205.64c-7.185 4.283-18.973 4.327-26.329.088L6.24 84.14c-7.356-4.24-7.494-11.149-.31-15.441z" fill="url(#c)" transform="matrix(-1 0 0 1 479 102.624)"/><g transform="matrix(-1 0 0 1 459.964 112.927)"><mask id="f" fill="#fff"><use xlink:href="#d"/></mask><use fill="url(#e)" xlink:href="#d"/><g opacity=".4" mask="url(#f)"><path d="M-44.887 93.817L73.548 22.896a4.657 4.657 0 0 1 4.463.078 1.474 1.474 0 0 1 .017 2.734L-40.39 96.598a4.666 4.666 0 0 1-4.453-.068c-1.242-.77-1.262-1.986-.044-2.713zm33.648 20.877L160.429 12.116a4.666 4.666 0 0 1 4.454.077 1.481 1.481 0 0 1-.003 2.745L-6.763 117.474a4.674 4.674 0 0 1-4.44-.077c-1.237-.77-1.252-1.976-.036-2.703zm49.836-9.327l138.512-82.68a4.687 4.687 0 0 1 4.447.077 1.482 1.482 0 0 1-.005 2.744l-138.493 82.64a4.666 4.666 0 0 1-4.437-.078c-1.232-.77-1.243-1.976-.02-2.703h-.004zm2.591 41.861l49.567-29.517a4.674 4.674 0 0 1 4.427.067 1.456 1.456 0 0 1 .012 2.703l-49.56 29.507a4.666 4.666 0 0 1-4.422-.067c-1.224-.77-1.236-1.966-.02-2.693h-.004zm18.88 11.711L231.343 57.072a4.592 4.592 0 0 1 4.427.077 1.46 1.46 0 0 1-.016 2.713L64.506 161.699a4.679 4.679 0 0 1-4.414-.067 1.449 1.449 0 0 1-.021-2.693h-.004zm37.622 23.348l115.686-68.641a4.615 4.615 0 0 1 4.41.077 1.448 1.448 0 0 1-.012 2.692l-115.669 68.62a4.685 4.685 0 0 1-4.402-.066 1.442 1.442 0 0 1-.01-2.682h-.003zm83.602-25.462l107.2-63.53a4.61 4.61 0 0 1 4.408.077 1.455 1.455 0 0 1-.029 2.702l-107.185 63.499a4.647 4.647 0 0 1-4.4-.066 1.442 1.442 0 0 1 .012-2.682h-.006zM78.895 170.629l27.485-16.328a4.672 4.672 0 0 1 4.411.067 1.448 1.448 0 0 1 .01 2.692l-27.484 16.317a4.666 4.666 0 0 1-4.41-.066 1.44 1.44 0 0 1-.002-2.682h-.01zm99.168-58.91l72.005-42.783a4.636 4.636 0 0 1 4.42.077 1.462 1.462 0 0 1-.02 2.713l-71.995 42.763a4.624 4.624 0 0 1-4.415-.077 1.447 1.447 0 0 1 .014-2.692h-.01zM23.372 136.18l72.792-43.403a4.66 4.66 0 0 1 4.434.077 1.46 1.46 0 0 1 .012 2.714L27.84 138.94a4.676 4.676 0 0 1-4.427-.067c-1.234-.77-1.247-1.976-.032-2.693h-.01zM154.86 57.785l41.103-24.509a4.674 4.674 0 0 1 4.44.078 1.475 1.475 0 0 1-.008 2.733l-41.098 24.5a4.666 4.666 0 0 1-4.437-.078 1.468 1.468 0 0 1 .009-2.723h-.01zm-182.914 46.482L1.732 86.45a4.666 4.666 0 0 1 4.45.068 1.466 1.466 0 0 1 .031 2.723l-29.782 17.806a4.685 4.685 0 0 1-4.446-.078 1.455 1.455 0 0 1-.03-2.703h-.01zm99.506-59.527l72.254-43.216a4.65 4.65 0 0 1 4.463.078 1.481 1.481 0 0 1 .003 2.744L75.928 47.551a4.642 4.642 0 0 1-4.453-.078 1.474 1.474 0 0 1-.014-2.734h-.009zm42.133-45.83l13.37-8a4.666 4.666 0 0 1 4.464.078 1.487 1.487 0 0 1 .005 2.755l-13.36 7.999a4.666 4.666 0 0 1-4.462-.078 1.487 1.487 0 0 1-.008-2.755h-.01zm43.493 79.297l54.373-32.375a4.604 4.604 0 0 1 4.434.078 1.468 1.468 0 0 1-.012 2.723l-54.365 32.365a4.655 4.655 0 0 1-4.43-.078 1.461 1.461 0 0 1 .01-2.713h-.01z" fill="#FFF"/><path d="M83.705 16.628l7.793-4.678a4.659 4.659 0 0 1 4.468.078 1.483 1.483 0 0 1 .013 2.75l-7.791 4.679a4.688 4.688 0 0 1-4.468-.088 1.476 1.476 0 0 1-.015-2.741zm15.589-9.356l4.456-2.663a4.666 4.666 0 0 1 4.468.078 1.483 1.483 0 0 1 .01 2.751l-4.456 2.673a4.659 4.659 0 0 1-4.468-.078 1.492 1.492 0 0 1-.01-2.761zM11.752 80.383l7.745-4.637a4.666 4.666 0 0 1 4.455.067c1.234.783 1.25 2.002.027 2.731l-7.743 4.637a4.69 4.69 0 0 1-4.454-.077c-1.236-.772-1.249-1.992-.027-2.72h-.003zm29.895-17.911L60.5 51.182a4.642 4.642 0 0 1 4.458.078 1.47 1.47 0 0 1 .02 2.73l-18.85 11.29a4.638 4.638 0 0 1-4.456-.078 1.47 1.47 0 0 1-.02-2.73h-.004zm-14.4 8.627l4.428-2.653a4.695 4.695 0 0 1 4.457.078 1.47 1.47 0 0 1 .025 2.73l-4.43 2.653a4.69 4.69 0 0 1-4.454-.078 1.47 1.47 0 0 1-.024-2.73h-.003zm110.09-2.893l7.773-4.637a4.666 4.666 0 0 1 4.442.078 1.47 1.47 0 0 1 .001 2.73l-7.767 4.637a4.666 4.666 0 0 1-4.44-.078 1.47 1.47 0 0 1-.005-2.73h-.003zM111.84 83.433l15.516-9.264a4.666 4.666 0 0 1 4.44.078 1.458 1.458 0 0 1 .006 2.72l-15.514 9.263a4.66 4.66 0 0 1-4.439-.077 1.464 1.464 0 0 1-.01-2.72zm30.014 49.936l7.731-4.595a4.65 4.65 0 0 1 4.42.066 1.458 1.458 0 0 1 0 2.71l-7.729 4.595a4.676 4.676 0 0 1-4.418-.077 1.451 1.451 0 0 1 0-2.699h-.004zm18.781-11.165l7.738-4.606a4.653 4.653 0 0 1 4.422.066 1.458 1.458 0 0 1-.004 2.71l-7.738 4.595a4.65 4.65 0 0 1-4.42-.066 1.45 1.45 0 0 1 .003-2.7h-.001zm-44.153 26.259l15.44-9.182c1.39-.724 3.05-.699 4.417.067a1.451 1.451 0 0 1 .004 2.699l-15.439 9.182c-1.39.724-3.049.699-4.416-.067a1.451 1.451 0 0 1-.002-2.699h-.004zm109.377-42.095l7.756-4.606c1.39-.724 3.05-.7 4.417.067a1.459 1.459 0 0 1-.017 2.709l-7.755 4.605c-1.39.725-3.049.7-4.416-.066a1.459 1.459 0 0 1 .019-2.71h-.004zm15.518-9.222l4.436-2.632a4.62 4.62 0 0 1 4.418.077 1.459 1.459 0 0 1-.02 2.709l-4.436 2.632a4.617 4.617 0 0 1-4.416-.077 1.459 1.459 0 0 1 .02-2.71h-.002zm12.202-7.248l4.44-2.642a4.621 4.621 0 0 1 4.419.077 1.459 1.459 0 0 1-.022 2.709l-4.44 2.642a4.617 4.617 0 0 1-4.417-.077 1.459 1.459 0 0 1 .024-2.709h-.004zm12.213-7.258l4.442-2.642a4.623 4.623 0 0 1 4.42.077 1.466 1.466 0 0 1-.024 2.72l-4.443 2.63c-1.39.725-3.05.7-4.418-.066a1.466 1.466 0 0 1 .026-2.72h-.003zm-163.828 28.453l7.739-4.617a4.648 4.648 0 0 1 4.432.078 1.458 1.458 0 0 1 .01 2.71l-7.738 4.616a4.644 4.644 0 0 1-4.43-.078 1.458 1.458 0 0 1-.01-2.71h-.003zm15.482-9.233l4.425-2.632a4.65 4.65 0 0 1 4.434.067 1.465 1.465 0 0 1 .006 2.72l-4.425 2.632a4.676 4.676 0 0 1-4.433-.067 1.465 1.465 0 0 1-.004-2.72h-.003zm12.173-7.259l4.43-2.642a4.652 4.652 0 0 1 4.434.077 1.465 1.465 0 0 1 .003 2.72l-4.428 2.632a4.647 4.647 0 0 1-4.433-.067 1.465 1.465 0 0 1 0-2.72h-.006zm12.183-7.259l4.433-2.652a4.652 4.652 0 0 1 4.434.077 1.464 1.464 0 0 1 .002 2.72l-4.431 2.642a4.652 4.652 0 0 1-4.435-.077 1.458 1.458 0 0 1 .004-2.71h-.007zM5.596 125.093l7.717-4.617a4.666 4.666 0 0 1 4.441.078 1.458 1.458 0 0 1 .029 2.71l-7.717 4.606a4.69 4.69 0 0 1-4.44-.067c-1.234-.772-1.248-1.98-.03-2.71zm15.44-9.234l8.828-5.274a4.666 4.666 0 0 1 4.442.077c1.234.772 1.245 1.98.026 2.71l-8.828 5.275a4.693 4.693 0 0 1-4.441-.067 1.464 1.464 0 0 1-.028-2.72zm123.075 63.253l7.703-4.565a4.617 4.617 0 0 1 4.403.066 1.438 1.438 0 0 1 0 2.678l-7.702 4.565c-1.384.724-3.04.7-4.401-.066a1.438 1.438 0 0 1-.003-2.678zm18.714-11.105l7.712-4.575a4.65 4.65 0 0 1 4.404.067 1.445 1.445 0 0 1-.004 2.688l-7.71 4.575a4.676 4.676 0 0 1-4.403-.066 1.445 1.445 0 0 1 0-2.689zm-43.998 26.117l15.385-9.13a4.617 4.617 0 0 1 4.403.066 1.43 1.43 0 0 1 .004 2.667l-15.384 9.13a4.64 4.64 0 0 1-4.4-.066 1.43 1.43 0 0 1-.008-2.667z" fill="#ECAB2C"/></g></g><path d="M272.162 159.845c4.191-2.503 11.068-2.52 15.359-.053 4.29 2.468 4.372 6.513.176 9.016-4.197 2.503-11.068 2.52-15.36.044-4.29-2.476-4.367-6.504-.175-9.007z" stroke="url(#g)" stroke-width=".978" fill="url(#h)" transform="matrix(-1 0 0 1 479 102.624)"/><path fill="url(#i)" opacity=".6" d="M18.912 152.468L201.43 257.346l120.946-72.71V0H18.912z" transform="matrix(-1 0 0 1 479 33)"/><g><g opacity=".9"><path fill="#F0F6FD" d="M308.172 193.1l-88.23-51.847v61.692l88.225 51.848v-61.692z"/><g transform="matrix(-1 0 0 1 312.944 138.27)"><use fill="#000" filter="url(#j)" xlink:href="#k"/><use fill="url(#l)" xlink:href="#k"/></g></g><g opacity=".5"><path fill="#D4DDDF" d="M246.768 198.896l49.258 28.952v-4.407l-49.258-28.951zM246.768 175.982l49.258 28.951v-4.406l-49.258-28.951z"/><path fill="#77BD8C" d="M230.595 175.286l11.029 6.486v-13.22l-11.029-6.486z"/><path fill="#5EC2FB" d="M230.595 198.2l11.029 6.487v-13.22l-11.029-6.487z"/><path fill="#D4DDDF" d="M246.768 206.828l24.263 14.26v-4.407l-24.263-14.26zM246.768 184.795l24.263 14.26v-4.407l-24.263-14.26z"/></g></g><g><path fill="#F8FBFF" d="M176.663 87.589v61.692l87.198 53.14V140.73z"/><path fill="url(#m)" opacity=".65" d="M130.438 8.126v53.76l-88.224 51.848v-53.76z" transform="matrix(-1 0 0 1 267.887 87.448)"/><g transform="matrix(-1 0 0 1 267.887 87.448)"><use fill="#000" filter="url(#n)" xlink:href="#o"/><use fill="url(#p)" xlink:href="#o"/></g><g><path fill="#D4DDDF" d="M207.51 153.532l30.145 17.715v-3.525l-30.145-17.715zM207.51 143.838l30.145 17.714v-3.525l-30.145-17.714z"/><path fill="#ECAB2C" d="M241.33 176.932l2.941 1.727v-3.525l-2.94-1.728z"/><path fill="#77BD8C" d="M241.33 167.237l2.941 1.727v-3.525l-2.94-1.727z"/><path fill="#ECAB2C" d="M188.393 120.263l2.94 1.727v-3.525l-2.94-1.728z"/><path fill="#77BD8C" d="M188.393 113.212l2.94 1.727v-3.525l-2.94-1.727z"/><path fill="#D4DDDF" d="M195.746 123.7l54.407 31.974v-1.763l-54.407-31.974zM195.746 115.768l54.407 31.974v-1.762l-54.407-31.975z"/><path fill="#ECAB2C" d="M188.393 144.058l11.029 6.478v-13.22l-11.029-6.478z"/></g></g><g><path d="M365.927 221.433c-5.43-3.284-14.34-3.3-19.902-.044-5.563 3.257-5.67 8.565-.241 11.843 5.429 3.278 14.34 3.3 19.901.043 5.562-3.256 5.67-8.559.242-11.842z" fill="#3286F1" opacity=".8"/><path d="M38.838 72.855h-27.93l-.156-38.778L38.9 43.713l-.062 29.142z" fill="url(#q)" transform="matrix(-1 0 0 1 380.681 158.442)"/><path d="M32.557.873l6.234.625-2.23 1.303c3.082 2.479 4.947 6.977 4.947 13.098 0 13.546-9.128 29.92-20.389 36.557-.774.456-1.538.855-2.29 1.197l.61.196-1.32 2.203-6.497-.813C5.146 54.95.731 49.379.731 39.959c0-13.546 9.128-29.92 20.388-36.557C25.36.9 29.295.133 32.557.872z" fill="url(#r)" transform="matrix(-1 0 0 1 380.681 158.442)"/><path d="M27.765 4.636c11.259-6.645 20.39-1.049 20.39 12.497s-9.13 29.92-20.39 36.557c-11.26 6.636-20.389 1.049-20.389-12.497s9.129-29.92 20.389-36.557z" fill="url(#s)" transform="matrix(-1 0 0 1 380.681 158.442)"/><path d="M346.917 190.697l-2.736-9.845a2.636 2.636 0 0 0-3.252-1.832 2.646 2.646 0 0 0-1.838 3.256l3.37 12.13a2.636 2.636 0 0 0 2.978 1.894l22.652-3.804a2.647 2.647 0 0 0 2.173-3.042 2.636 2.636 0 0 0-3.039-2.167l-20.308 3.41z" fill="#FFF" fill-rule="nonzero"/></g><g><g transform="matrix(-1 0 0 1 387.612 48.08)"><use fill="#000" filter="url(#t)" xlink:href="#u"/><use fill="url(#v)" xlink:href="#u"/></g><path fill="#F0F7FF" d="M295.314 54.443v61.692l87.848 51.283v-61.692z"/><path fill="url(#w)" opacity=".65" d="M142.852.783v53.76l-88.225 51.849v-53.76z" transform="matrix(-1 0 0 1 387.612 48.08)"/><g opacity=".8"><path fill="#D4DDDF" d="M319.216 110.14l35.292 20.737v-4.406l-35.292-20.738zM319.216 87.226l35.292 20.737v-4.406l-35.292-20.738z"/><path fill="#77BD8C" d="M303.041 86.53l11.029 6.477v-13.22L303.04 73.31z"/><path d="M368.478 147.905c3.248 1.903 5.882.3 5.882-3.596s-2.634-8.602-5.882-10.506c-3.249-1.903-5.882-.3-5.882 3.587s2.633 8.602 5.882 10.515zM368.478 125.872c3.248 1.903 5.882.3 5.882-3.596s-2.634-8.602-5.882-10.506c-3.249-1.903-5.882-.3-5.882 3.587s2.633 8.602 5.882 10.515z" stroke="#5EC2FB" stroke-width="1.761"/><path fill="#ECAB2C" d="M303.041 109.444l11.029 6.477v-13.22l-11.029-6.477z"/><path fill="#D4DDDF" d="M319.216 118.072l24.263 14.26v-4.407l-24.263-14.26zM319.216 96.039l24.263 14.26v-4.407l-24.263-14.26z"/></g></g></g></svg>