<svg width="120" height="120" xmlns="http://www.w3.org/2000/svg"><g fill="none" fill-rule="evenodd"><circle stroke-opacity=".8" stroke="#000" stroke-width="2" cx="60" cy="60" r="26"/><circle fill="#367BFF" cx="60" cy="34" r="4"/><circle fill="#367BFF" cx="84" cy="71" r="4"/><circle fill="#367BFF" cx="37" cy="72" r="4"/><path d="M65.436 7.677a10.958 10.958 0 0 0-10.872 0L15.556 29.96a8.958 8.958 0 0 0-4.514 7.779v45.52a8.958 8.958 0 0 0 4.514 7.779l39.008 22.284a10.958 10.958 0 0 0 10.872 0l39.008-22.284a8.958 8.958 0 0 0 4.514-7.779V37.74a8.958 8.958 0 0 0-4.514-7.779L65.436 7.677z" stroke-opacity=".8" stroke="#000" stroke-width="2.083"/><path d="M60 28a1 1 0 0 1 1 1v1a1 1 0 0 1-2 0v-1a1 1 0 0 1 1-1zm0-4a1 1 0 0 1 1 1v1a1 1 0 0 1-2 0v-1a1 1 0 0 1 1-1zm0-5a1 1 0 0 1 1 1v1a1 1 0 0 1-2 0v-1a1 1 0 0 1 1-1zm0-5a1 1 0 0 1 1 1v1a1 1 0 0 1-2 0v-1a1 1 0 0 1 1-1zm0-12a4 4 0 0 1 .993 7.876c.004.04.007.082.007.124v1a1 1 0 0 1-2 0v-1c0-.042.003-.084.008-.125A4 4 0 0 1 60 2zm29.143 73.577a1 1 0 0 0-.343-1.372l-.857-.515a1 1 0 0 0-1.03 1.714l.857.515a1 1 0 0 0 1.373-.342zm3.428 2.06a1 1 0 0 0-.342-1.372l-.857-.515a1 1 0 0 0-1.03 1.714l.857.515a1 1 0 0 0 1.372-.342zm4.286 2.575a1 1 0 0 0-.342-1.372l-.857-.515a1 1 0 0 0-1.03 1.714l.857.516a1 1 0 0 0 1.372-.343zm4.286 2.576a1 1 0 0 0-.342-1.373l-.857-.515a1 1 0 0 0-1.03 1.715l.857.515a1 1 0 0 0 1.372-.342zm10.286 6.18a4 4 0 0 0-6.24-4.907 1.082 1.082 0 0 0-.102-.07l-.858-.515a1 1 0 0 0-1.03 1.714l.858.515c.036.022.073.04.11.058a4 4 0 0 0 7.262 3.205zM29.857 75.577a1 1 0 0 1 .343-1.372l.857-.515a1 1 0 0 1 1.03 1.714l-.857.515a1 1 0 0 1-1.373-.342zm-3.428 2.06a1 1 0 0 1 .342-1.372l.857-.515a1 1 0 0 1 1.03 1.714l-.857.515a1 1 0 0 1-1.372-.342zm-4.286 2.575a1 1 0 0 1 .342-1.372l.857-.515a1 1 0 0 1 1.03 1.714l-.857.516a1 1 0 0 1-1.372-.343zm-4.286 2.576a1 1 0 0 1 .342-1.373l.857-.515a1 1 0 0 1 1.03 1.715l-.857.515a1 1 0 0 1-1.372-.342zm-10.286 6.18a4 4 0 0 1 6.24-4.907.918.918 0 0 1 .102-.07l.858-.515a1 1 0 0 1 1.03 1.714l-.858.515a1.01 1.01 0 0 1-.11.058 4 4 0 0 1-7.262 3.205z" fill="#367BFF"/><g fill="#467DF6"><path d="M58.825 64.148l-13.51-9.116-.059-.059a1.415 1.415 0 0 1 0-1.998l.068-.068 13.513-8.569c.255-.216.575-.334.913-.334.338 0 .659.118.914.334l13.513 8.569.068.068c.55.551.55 1.448-.001 1.999l-.059.058-.069.047-13.44 9.07a1.403 1.403 0 0 1-.926.344 1.398 1.398 0 0 1-.925-.345z" fill-rule="nonzero"/><path d="M59.263 70.149L44.4 60.029a.865.865 0 0 1 .973-1.43l14.377 9.788L74.127 58.6a.865.865 0 0 1 .973 1.43L60.237 70.15a.864.864 0 0 1-.974 0z"/><path d="M59.263 75.56L44.4 65.442a.865.865 0 1 1 .973-1.43L59.75 73.8l14.377-9.788a.865.865 0 0 1 .973 1.43l-14.863 10.12a.864.864 0 0 1-.974 0z"/></g></g></svg>