<svg xmlns="http://www.w3.org/2000/svg" width="90" height="90"><defs><linearGradient id="a" x1="0%" x2="100%" y1="0%" y2="100%"><stop offset="0%" stop-color="#F26B69"/><stop offset="100%" stop-color="#E54B47"/></linearGradient></defs><g fill="none" fill-rule="evenodd"><path fill="url(#a)" d="M25.639 0H64.36c8.915 0 12.148.928 15.407 2.671a18.173 18.173 0 0 1 7.56 7.56C89.073 13.492 90 16.725 90 25.64V64.36c0 8.915-.928 12.148-2.671 15.407a18.173 18.173 0 0 1-7.56 7.56C76.508 89.073 73.275 90 64.36 90H25.64c-8.915 0-12.148-.928-15.407-2.671a18.173 18.173 0 0 1-7.56-7.56C.927 76.508 0 73.275 0 64.36V25.64c0-8.915.928-12.148 2.671-15.407a18.173 18.173 0 0 1 7.56-7.56C13.492.927 16.725 0 25.64 0z"/><path fill="#FFF" fill-rule="nonzero" d="M44.069 27.824v12.254a3.214 3.214 0 1 1-6.429 0V24.61a3.214 3.214 0 0 1 3.215-3.214h9.843c9.6 0 15.871 7.055 15.871 15.87 0 8.816-6.271 15.871-15.87 15.871h-16.07c-2.987 0-4.696 1.88-4.696 4.52 0 2.64 1.71 4.52 4.696 4.52h3.011v-2.41a3.214 3.214 0 1 1 6.429 0v5.625a3.214 3.214 0 0 1-3.214 3.214h-6.226c-6.681 0-11.125-4.888-11.125-10.949 0-6.06 4.444-10.948 11.125-10.948h16.07c5.869 0 9.441-4.02 9.441-9.442 0-5.423-3.572-9.442-9.442-9.442H44.07z"/></g></svg>