<svg width="74" height="74" xmlns="http://www.w3.org/2000/svg"><g transform="rotate(-45 25.686 64.314)" fill="none" fill-rule="evenodd"><circle stroke="#467DF6" transform="rotate(45 53 53)" cx="53" cy="53" r="36.5"/><path d="M58.322 70.85v2h-13v-2h13zM53.23 26.647a5 5 0 0 1 5 4.891l.093 4.31h-13l-.09-4.092a5 5 0 0 1 4.89-5.108h3.107z" fill="#367BFF"/><path fill="#FFF" d="M45.322 35.494h13v2h-13z"/><path d="M43.322 33.35a8.5 8.5 0 0 1 17 0v11.5h14a5 5 0 0 1 5 5v8a5 5 0 0 1-5 5h-14v9.765a5 5 0 0 1-.869 2.817l-5.978 8.769a2 2 0 0 1-3.305 0l-5.979-8.769a5 5 0 0 1-.869-2.817V62.85h-14a5 5 0 0 1-5-5v-8a5 5 0 0 1 5-5h14v-11.5zm-14 13.5a3 3 0 0 0-3 3v8a3 3 0 0 0 3 3h14v-14h-14zm31 14h14a3 3 0 0 0 3-3v-8a3 3 0 0 0-3-3h-14v14zm-8.5-34a6.5 6.5 0 0 0-6.5 6.5v39.265a3 3 0 0 0 .522 1.69l5.978 8.77 5.979-8.77a3 3 0 0 0 .521-1.69V33.35a6.5 6.5 0 0 0-6.5-6.5z" fill="#FFF"/><path d="M31.322 53.85a1 1 0 0 1 1 1v6h-2v-6a1 1 0 0 1 1-1zm34 0a1 1 0 0 1 1 1v6h-2v-6a1 1 0 0 1 1-1zm-27 0a1 1 0 0 1 1 1v6h-2v-6a1 1 0 0 1 1-1zm34 0a1 1 0 0 1 1 1v6h-2v-6a1 1 0 0 1 1-1z" fill="#367BFF"/></g></svg>