<svg width="74" height="74" xmlns="http://www.w3.org/2000/svg"><g fill="none" fill-rule="evenodd"><circle stroke="#467DF6" cx="37" cy="37" r="36.5"/><g transform="translate(11 9)"><path d="M26 9a5 5 0 0 1 .995 9.901c.003.031.005.065.005.099v22a1 1 0 0 1-2 0V19l.005-.099A5.002 5.002 0 0 1 26 9zm0 2a3 3 0 1 0 0 6 3 3 0 0 0 0-6zm8 11a1 1 0 0 1 1 1v19a2 2 0 0 0 2 2h2.1a5.002 5.002 0 0 1 9.9 1 5 5 0 0 1-9.9 1.001L37 46a4 4 0 0 1-4-4V23a1 1 0 0 1 1-1zm10 20a3 3 0 1 0 0 6 3 3 0 0 0 0-6zM18 22a1 1 0 0 1 1 1v19a4 4 0 0 1-4 4h-2.416A5.001 5.001 0 1 1 13 44h2a2 2 0 0 0 2-2V23a1 1 0 0 1 1-1zM8 41a3 3 0 1 0 0 6 3 3 0 0 0 0-6z" fill="#FFF"/><circle fill="#367BFF" cx="26" cy="42.5" r="3.5"/><circle fill="#367BFF" cx="18" cy="21" r="3.5"/><circle fill="#367BFF" cx="34" cy="21" r="3.5"/><path d="M26 0c-7.951 0-14.458 6.187-14.968 14.01C4.898 14.254 0 19.304 0 25.5 0 31.851 5.149 37 11.5 37H13a1 1 0 0 0 0-2h-1.5a9.5 9.5 0 0 1 0-19h.5a1 1 0 0 0 1-1c0-7.18 5.82-13 13-13s13 5.82 13 13a1 1 0 0 0 1 1h.5a9.5 9.5 0 0 1 0 19H39a1 1 0 0 0 0 2h1.5C46.851 37 52 31.851 52 25.5c0-6.195-4.898-11.245-11.032-11.49C40.458 6.186 33.95 0 26 0z" fill="#FFF"/></g></g></svg>