<svg version="1.1" id="图层_1" xmlns="http://www.w3.org/2000/svg" x="0" y="0" viewBox="0 0 120 120" xml:space="preserve"><style>.st1{fill:#367bff}</style><path d="M86 105l17.4-10c2.8-1.6 4.5-4.6 4.5-7.8V33.7c0-3.2-1.7-6.2-4.5-7.8L85.9 16v0h0m-51.7-.1L16.6 26c-2.8 1.6-4.5 4.6-4.5 7.8v53.5c0 3.2 1.7 6.2 4.5 7.8L34 105h0" fill="none" stroke="#000" stroke-width="2.083" stroke-opacity=".8"/><path class="st1" d="M29.3 39.8c-.3.5-.1 1.1.3 1.4l.9.5c.5.3 1.1.2 1.4-.3.3-.5.2-1.1-.3-1.4l-.9-.5c-.5-.3-1.1-.2-1.4.3zm-3.4-2c-.3.5-.1 1.1.3 1.4l.9.5c.5.3 1.1.1 1.4-.3.3-.5.1-1.1-.3-1.4l-.9-.5c-.5-.4-1.1-.2-1.4.3zm-4.3-2.6c-.3.5-.1 1.1.3 1.4l.9.5c.5.3 1.1.1 1.4-.3.3-.5.1-1.1-.3-1.4l-.9-.6c-.5-.2-1.1-.1-1.4.4zm-4.3-2.6c-.3.5-.1 1.1.3 1.4l.9.5c.5.3 1.1.2 1.4-.3.3-.5.2-1.1-.3-1.4l-.9-.5c-.5-.3-1.1-.2-1.4.3zM13.1 30c-.3.5-.1 1.1.3 1.4l.9.5c.5.3 1.1.2 1.4-.3.3-.5.2-1.1-.3-1.4l-.9-.5c-.5-.3-1.2-.1-1.4.3zm16.2 50.6c-.3-.5-.1-1.1.3-1.4l.9-.5c.5-.3 1.1-.2 1.4.3.3.5.2 1.1-.3 1.4l-.9.5c-.5.3-1.1.2-1.4-.3zm-3.4 2c-.3-.5-.1-1.1.3-1.4l.9-.5c.5-.3 1.1-.2 1.4.3.3.5.2 1.1-.3 1.4l-.9.6c-.5.3-1.1.1-1.4-.4zm-4.3 2.6c-.3-.5-.1-1.1.3-1.4l.9-.5c.5-.3 1.1-.2 1.4.3.3.5.2 1.1-.3 1.4l-.9.6c-.5.2-1.1.1-1.4-.4zm-4.3 2.6c-.3-.5-.1-1.1.3-1.4l.9-.5c.5-.3 1.1-.1 1.4.3.3.5.1 1.1-.3 1.4l-.9.5c-.5.3-1.1.2-1.4-.3zm-4.2 2.6c-.3-.5-.1-1.1.3-1.4l.9-.5c.5-.3 1.1-.2 1.4.3.3.5.2 1.1-.3 1.4l-.9.5c-.5.3-1.2.1-1.4-.3zm77.5-50.6c.3.5.1 1.1-.3 1.4l-.9.5c-.5.3-1.1.2-1.4-.3-.3-.5-.2-1.1.3-1.4l.9-.5c.5-.3 1.1-.2 1.4.3zm3.5-2c.3.5.1 1.1-.3 1.4l-.9.5c-.5.3-1.1.1-1.4-.3-.3-.5-.1-1.1.3-1.4l.9-.5c.5-.4 1.1-.2 1.4.3zm4.2-2.6c.3.5.1 1.1-.3 1.4l-.9.5c-.5.3-1.1.1-1.4-.3-.3-.5-.1-1.1.3-1.4l.9-.5c.5-.3 1.2-.2 1.4.3zm4.3-2.6c.3.5.1 1.1-.3 1.4l-.9.5c-.5.3-1.1.2-1.4-.3-.3-.5-.2-1.1.3-1.4l.9-.5c.5-.3 1.1-.2 1.4.3zm4.3-2.6c.3.5.1 1.1-.3 1.4l-.9.5c-.5.3-1.1.2-1.4-.3-.3-.5-.2-1.1.3-1.4l.9-.5c.5-.3 1.1-.1 1.4.3zM90.6 80.6c.3-.5.1-1.1-.3-1.4l-.9-.5c-.5-.3-1.1-.2-1.4.3-.3.5-.2 1.1.3 1.4l.9.5c.5.3 1.1.2 1.4-.3zm3.5 2c.3-.5.1-1.1-.3-1.4l-.9-.5c-.5-.3-1.1-.2-1.4.3-.3.5-.2 1.1.3 1.4l.9.5c.5.4 1.1.2 1.4-.3zm4.2 2.6c.3-.5.1-1.1-.3-1.4l-.9-.5c-.5-.3-1.1-.2-1.4.3-.3.5-.2 1.1.3 1.4l.9.5c.5.3 1.2.2 1.4-.3zm4.3 2.6c.3-.5.1-1.1-.3-1.4l-.9-.5c-.5-.3-1.1-.1-1.4.3s-.1 1.1.3 1.4l.9.5c.5.3 1.1.2 1.4-.3zm4.3 2.6c.3-.5.1-1.1-.3-1.4l-.9-.5c-.5-.3-1.1-.2-1.4.3-.3.5-.2 1.1.3 1.4l.9.5c.5.3 1.1.1 1.4-.3zM60 81c-9.3 0-17-5.7-17-16 0-9.6 9.8-17.6 15.2-30.2.1-.3.7-.9 1.8-.9.6 0 1.3.4 1.8.9C67.2 47.9 77 55.5 77 65c0 10.3-7.7 16-17 16z"/><path d="M61.5 27.7c-.6-.4-1.1-.7-1.5-.7-.7 0-1.3.4-1.4.5C56.7 31.9 54.3 36 51 41c-.8 1.2-4.5 6.7-5.5 8.2-1.9 3-3.3 5.3-4.3 7.6-1.4 3.1-2.1 6-2.1 8.8C39 77.5 47.7 85 60 85s21-7.5 21-19.4c0-3-.8-5.9-2.3-9.1-1-2.1-2.4-4.4-4.3-7.3-.7-1.1-4.4-6.4-5.4-7.9-3.2-4.9-5.6-9.1-7.5-13.6z" fill="none" stroke="#000" stroke-width="2" stroke-opacity=".8"/><path d="M85 61H35c-.5 0-1-.4-1-1s.5-1 1-1h50c.5 0 1 .4 1 1s-.5 1-1 1zm0-14H35c-.5 0-1-.4-1-1s.5-1 1-1h50c.5 0 1 .4 1 1s-.5 1-1 1zM35 73h50c.5 0 1 .4 1 1s-.5 1-1 1H35c-.5 0-1-.4-1-1s.5-1 1-1z" fill="#fff"/><path class="st1" d="M37 18c2.2 0 4-1.8 4-4s-1.8-4-4-4-4 1.8-4 4 1.8 4 4 4zm46 0c2.2 0 4-1.8 4-4s-1.8-4-4-4-4 1.8-4 4 1.8 4 4 4zm-46 92c2.2 0 4-1.8 4-4s-1.8-4-4-4-4 1.8-4 4 1.8 4 4 4zm46 0c2.2 0 4-1.8 4-4s-1.8-4-4-4-4 1.8-4 4 1.8 4 4 4z"/></svg>