<svg width="74" height="74" xmlns="http://www.w3.org/2000/svg"><g fill="none" fill-rule="evenodd"><circle stroke="#467DF6" cx="37" cy="37" r="36.5"/><path d="M49.488 57.329a1 1 0 1 1 1.024 1.718l-12.288 7.325a1 1 0 0 1-1.024 0L12.488 51.64a1 1 0 0 1-.488-.859v-7.268a1 1 0 0 1 2 0v6.7L37.712 64.35l11.776-7.02zM14 22.436v13.077a1 1 0 1 1-2 0V21.859a1 1 0 0 1 .5-.866L37.35 6.647a1 1 0 0 1 1 0l6.15 3.55a1 1 0 1 1-1 1.732l-5.65-3.262L14 22.436zm47-.771l-12.504-7.288a1 1 0 1 1 1.008-1.728l13 7.577a1 1 0 0 1 .496.864v28.908a1 1 0 0 1-.496.864l-6.03 3.515a1 1 0 0 1-1.007-1.728L61 49.424V21.665z" fill="#FFF"/><path d="M20 26.844v17.49a3 3 0 0 0 1.551 2.626l16 8.823A3 3 0 0 0 42 53.156v-17.49a3 3 0 0 0-1.551-2.626l-16-8.823A3 3 0 0 0 20 26.844zm2 0a1 1 0 0 1 1.483-.875l16 8.822a1 1 0 0 1 .517.876v17.489a1 1 0 0 1-1.483.875l-16-8.822a1 1 0 0 1-.517-.876V26.844z" fill="#FFF"/><path d="M26 35.025v6.721a2 2 0 0 0 1.052 1.761l6 3.23A2 2 0 0 0 36 44.974v-6.721a2 2 0 0 0-1.052-1.761l-6-3.23A2 2 0 0 0 26 35.026zM55 46V27.298c0-1.154-.65-2.21-1.686-2.76l-16.826-9.41a1 1 0 0 0-.976 1.745l16.845 9.421c.409.218.643.599.643 1.004V46a1 1 0 0 0 2 0z" fill="#367BFF"/><path d="M49 50V31.298c0-1.154-.65-2.21-1.686-2.76l-16.826-9.41a1 1 0 1 0-.976 1.745l16.845 9.421c.409.218.643.599.643 1.004V50a1 1 0 0 0 2 0z" fill="#367BFF"/></g></svg>