<svg xmlns="http://www.w3.org/2000/svg" width="44" height="46" viewBox="0 0 44 46">
  <g fill="none" fill-rule="evenodd" transform="translate(-11 -10)">
    <path fill="#000" fill-opacity=".8" fill-rule="nonzero" d="M24.2045161,29.9485913 L45.3835178,25.1065827 C46.9986981,24.7373152 48.607411,25.7473271 48.9766785,27.3625074 C49.0772882,27.8025755 49.0772882,28.2596752 48.9766785,28.6997433 L44.1346698,49.8787451 C43.8780099,51.0013783 43.0013783,51.8780099 41.8787451,52.1346698 L20.6997433,56.9766785 C19.084563,57.345946 17.4758502,56.3359341 17.1065827,54.7207537 C17.0059729,54.2806856 17.0059729,53.8235859 17.1065827,53.3835178 L21.9485913,32.2045161 C22.2052512,31.0818828 23.0818828,30.2052512 24.2045161,29.9485913 Z" transform="rotate(45 33.042 41.042)"/>
    <path fill="#FFF" fill-rule="nonzero" d="M24.6502614,31.8982865 C24.2760503,31.9838397 23.9838397,32.2760503 23.8982865,32.6502614 L19.0562778,53.8292631 C19.0227412,53.9759525 19.0227412,54.128319 19.0562778,54.2750084 C19.179367,54.8134019 19.7156046,55.1500725 20.253998,55.0269833 L41.4329998,50.1849747 C41.8072108,50.0994214 42.0994214,49.8072108 42.1849747,49.4329998 L47.0269833,28.253998 C47.0605199,28.1073086 47.0605199,27.9549421 47.0269833,27.8082527 C46.9038942,27.2698593 46.3676565,26.9331886 45.8292631,27.0562778 L24.6502614,31.8982865 Z" transform="rotate(45 33.042 41.042)"/>
    <path fill="#000" fill-opacity=".8" fill-rule="nonzero" d="M24.2045161,21.9485913 L45.3835178,17.1065827 C46.9986981,16.7373152 48.607411,17.7473271 48.9766785,19.3625074 C49.0772882,19.8025755 49.0772882,20.2596752 48.9766785,20.6997433 L44.1346698,41.8787451 C43.8780099,43.0013783 43.0013783,43.8780099 41.8787451,44.1346698 L20.6997433,48.9766785 C19.084563,49.345946 17.4758502,48.3359341 17.1065827,46.7207537 C17.0059729,46.2806856 17.0059729,45.8235859 17.1065827,45.3835178 L21.9485913,24.2045161 C22.2052512,23.0818828 23.0818828,22.2052512 24.2045161,21.9485913 Z" transform="rotate(45 33.042 33.042)"/>
    <path fill="#FFF" fill-rule="nonzero" d="M24.6502614,23.8982865 C24.2760503,23.9838397 23.9838397,24.2760503 23.8982865,24.6502614 L19.0562778,45.8292631 C19.0227412,45.9759525 19.0227412,46.128319 19.0562778,46.2750084 C19.179367,46.8134019 19.7156046,47.1500725 20.253998,47.0269833 L41.4329998,42.1849747 C41.8072108,42.0994214 42.0994214,41.8072108 42.1849747,41.4329998 L47.0269833,20.253998 C47.0605199,20.1073086 47.0605199,19.9549421 47.0269833,19.8082527 C46.9038942,19.2698593 46.3676565,18.9331886 45.8292631,19.0562778 L24.6502614,23.8982865 Z" transform="rotate(45 33.042 33.042)"/>
    <path fill="#000" fill-opacity=".8" fill-rule="nonzero" d="M24.2045161,13.9485913 L45.3835178,9.10658266 C46.9986981,8.73731515 48.607411,9.74732706 48.9766785,11.3625074 C49.0772882,11.8025755 49.0772882,12.2596752 48.9766785,12.6997433 L44.1346698,33.8787451 C43.8780099,35.0013783 43.0013783,35.8780099 41.8787451,36.1346698 L20.6997433,40.9766785 C19.084563,41.345946 17.4758502,40.3359341 17.1065827,38.7207537 C17.0059729,38.2806856 17.0059729,37.8235859 17.1065827,37.3835178 L21.9485913,16.2045161 C22.2052512,15.0818828 23.0818828,14.2052512 24.2045161,13.9485913 Z" transform="rotate(45 33.042 25.042)"/>
    <path fill="#FFF" fill-rule="nonzero" d="M24.6502614,15.8982865 C24.2760503,15.9838397 23.9838397,16.2760503 23.8982865,16.6502614 L19.0562778,37.8292631 C19.0227412,37.9759525 19.0227412,38.128319 19.0562778,38.2750084 C19.179367,38.8134019 19.7156046,39.1500725 20.253998,39.0269833 L41.4329998,34.1849747 C41.8072108,34.0994214 42.0994214,33.8072108 42.1849747,33.4329998 L47.0269833,12.253998 C47.0605199,12.1073086 47.0605199,11.9549421 47.0269833,11.8082527 C46.9038942,11.2698593 46.3676565,10.9331886 45.8292631,11.0562778 L24.6502614,15.8982865 Z" transform="rotate(45 33.042 25.042)"/>
    <path fill="#467DF6" d="M44.8704208,25.9502746 L30.7940193,17.0955385 L32.5443432,16 L46.6127039,24.849678 L44.8704208,25.9502746 Z M39.5081226,29.337627 L25.397638,20.4731665 L27.1468189,19.3783435 L41.2384651,28.2445733 L39.5081226,29.337627 Z M34.1352973,32.7316294 L20,23.8515811 L21.7487175,22.7570481 L35.8651596,31.638879 L34.1352973,32.7316294 Z"/>
  </g>
</svg>
