<svg viewBox="0 0 509 360" xmlns="http://www.w3.org/2000/svg" xmlns:xlink="http://www.w3.org/1999/xlink"><defs><filter id="o" height="116.5%" width="109.7%" x="-4.8%" y="-8.2%"><feGaussianBlur in="SourceGraphic" stdDeviation="5.4"/></filter><linearGradient id="a"><stop offset="0" stop-color="#00bafb"/><stop offset="1" stop-color="#0033ea"/></linearGradient><linearGradient id="p" x1="19.628%" x2="205.729%" xlink:href="#a" y1="51.01%" y2="44.822%"/><linearGradient id="b"><stop offset="0" stop-color="#9ad9ff"/><stop offset="1" stop-color="#43b7fe"/></linearGradient><linearGradient id="q" x1="26.888%" x2="87.656%" xlink:href="#b" y1="32.763%" y2="52.675%"/><linearGradient id="c"><stop offset="0" stop-color="#fff" stop-opacity="0"/><stop offset="1" stop-color="#fff" stop-opacity=".3"/></linearGradient><linearGradient id="r" x1="53.194%" x2="36.102%" xlink:href="#c" y1="46.009%" y2="61.649%"/><linearGradient id="s" x1="19.628%" x2="205.729%" xlink:href="#a" y1="50.973%" y2="45.012%"/><linearGradient id="t" x1="26.888%" x2="87.656%" xlink:href="#b" y1="32.616%" y2="52.698%"/><linearGradient id="u" x1="53.194%" x2="36.102%" xlink:href="#c" y1="45.975%" y2="61.748%"/><linearGradient id="v" x1="14.291%" x2="91.433%" y1="56.471%" y2="56.471%"><stop offset="0" stop-color="#ffe8c3"/><stop offset="1" stop-color="#edbb6a"/></linearGradient><linearGradient id="d"><stop offset="0" stop-color="#dec78f"/><stop offset="1" stop-color="#eaab46"/></linearGradient><linearGradient id="w" x1="43.686%" x2="53.762%" xlink:href="#d" y1="25.606%" y2="65.977%"/><linearGradient id="e"><stop offset="0" stop-color="#d0b36c"/><stop offset="1" stop-color="#cc9b4b"/></linearGradient><linearGradient id="x" x1="44.258%" x2="53.421%" xlink:href="#e" y1="25.606%" y2="65.977%"/><linearGradient id="y" x1="35.503%" x2="58.638%" xlink:href="#d" y1="25.606%" y2="65.977%"/><linearGradient id="z" x1="36.208%" x2="58.218%" xlink:href="#e" y1="25.606%" y2="65.977%"/><linearGradient id="f"><stop offset="0" stop-color="#5dddff"/><stop offset="1" stop-color="#3b76fd"/></linearGradient><linearGradient id="A" x1="-71.239%" x2="143.643%" xlink:href="#f" y1="37.517%" y2="54.657%"/><linearGradient id="g"><stop offset="0" stop-color="#fff" stop-opacity="0"/><stop offset="1" stop-color="#fff" stop-opacity=".502"/></linearGradient><linearGradient id="B" x1="46.119%" x2="39.906%" xlink:href="#g" y1="45.11%" y2="67.067%"/><linearGradient id="h"><stop offset="0" stop-color="#34c4ff"/><stop offset=".761" stop-color="#5069fd"/><stop offset="1" stop-color="#4e5fff"/></linearGradient><linearGradient id="C" x1="0%" x2="99.345%" xlink:href="#h" y1="27.37%" y2="77.875%"/><linearGradient id="i"><stop offset="0" stop-color="#2146fc"/><stop offset="1" stop-color="#3a88ff"/></linearGradient><linearGradient id="D" x1="-33.803%" x2="145.806%" xlink:href="#i" y1="20.655%" y2="79.202%"/><linearGradient id="E" x1="45.582%" x2="54.36%" xlink:href="#h" y1="4.041%" y2="106.611%"/><linearGradient id="F" x1="43.066%" x2="57.927%" xlink:href="#i" y1="-6.219%" y2="105.945%"/><linearGradient id="G" x1="1.265%" x2="143.643%" xlink:href="#f" y1="42.168%" y2="54.677%"/><linearGradient id="H" x1="46.119%" x2="33.84%" xlink:href="#g" y1="45.089%" y2="78.843%"/><linearGradient id="I" x1="1.265%" x2="143.643%" xlink:href="#f" y1="42.195%" y2="54.661%"/><linearGradient id="J" x1="46.119%" x2="39.906%" xlink:href="#g" y1="45.106%" y2="67.083%"/><linearGradient id="K" x1="0%" x2="136.862%" xlink:href="#h" y1="23.381%" y2="108.839%"/><linearGradient id="L" x1="-33.803%" x2="145.806%" y1="15.334%" y2="84.497%"><stop offset="0" stop-color="#2248fc"/><stop offset="1" stop-color="#3a88ff"/></linearGradient><linearGradient id="M" x1="1.265%" x2="143.643%" xlink:href="#f" y1="42.192%" y2="54.663%"/><linearGradient id="N" x1="46.119%" x2="39.906%" xlink:href="#g" y1="45.104%" y2="67.09%"/><linearGradient id="j"><stop offset="0" stop-color="#2146fc"/><stop offset=".111" stop-color="#2248fc"/><stop offset="1" stop-color="#3a88ff"/></linearGradient><linearGradient id="O" x1="-33.803%" x2="145.806%" xlink:href="#j" y1="6%" y2="93.786%"/><linearGradient id="P" x1="0%" x2="136.862%" xlink:href="#h" y1="15.593%" y2="126.055%"/><linearGradient id="Q" x1="47.09%" x2="53.327%" xlink:href="#j" y1="-6.219%" y2="105.945%"/><linearGradient id="R" x1="48.143%" x2="53.226%" xlink:href="#h" y1="4.041%" y2="151.589%"/><linearGradient id="S" x1="1.265%" x2="143.643%" xlink:href="#f" y1="42.34%" y2="54.575%"/><linearGradient id="T" x1="46.119%" x2="39.906%" xlink:href="#g" y1="45.197%" y2="66.765%"/><linearGradient id="k"><stop offset="0" stop-color="#b4ebfd"/><stop offset="1" stop-color="#6dd1ff"/></linearGradient><linearGradient id="U" x1="49.974%" x2="50.026%" xlink:href="#k" y1="19.779%" y2="76.452%"/><linearGradient id="V" x1="49.976%" x2="50.024%" xlink:href="#k" y1="19.779%" y2="76.452%"/><linearGradient id="W" x1="-18.386%" x2="99.345%" y1="31.078%" y2="73.36%"><stop offset="0" stop-color="#34c4ff"/><stop offset="1" stop-color="#5478ff"/></linearGradient><linearGradient id="l"><stop offset="0" stop-color="#2146fc"/><stop offset="1" stop-color="#4c8aff"/></linearGradient><linearGradient id="X" x1="-133.796%" x2="106.201%" xlink:href="#l" y1="28.317%" y2="60.753%"/><linearGradient id="Y" x1="1.265%" x2="143.643%" xlink:href="#f" y1="42.095%" y2="54.721%"/><linearGradient id="Z" x1="100.233%" x2="48.011%" xlink:href="#i" y1="85.04%" y2="37.797%"/><linearGradient id="aa" x1="44.782%" x2="66.102%" xlink:href="#l" y1="14.746%" y2="84.847%"/><linearGradient id="ab" x1="0%" x2="160.8%" xlink:href="#h" y1="33.886%" y2="114.139%"/><linearGradient id="ac" x1="47.697%" x2="50%" y1="24.03%" y2="125.805%"><stop offset="0" stop-color="#1d41e9"/><stop offset="1" stop-color="#3a88ff"/></linearGradient><linearGradient id="ad" x1="-24.577%" x2="106.201%" xlink:href="#l" y1="48.833%" y2="50.882%"/><linearGradient id="ae" x1="47.999%" x2="54.671%" xlink:href="#k" y1="112.687%" y2="23.985%"/><linearGradient id="af" x1="48.038%" x2="54.58%" xlink:href="#k" y1="112.687%" y2="23.985%"/><filter id="ag" height="121.2%" width="114.3%" x="-7.2%" y="-10.6%"><feGaussianBlur in="SourceGraphic" stdDeviation="1.62"/></filter><linearGradient id="ah" x1="7.425%" x2="80.721%" y1="4.143%" y2="106.611%"><stop offset="0" stop-color="#52ccfe"/><stop offset="1" stop-color="#6888ff"/></linearGradient><linearGradient id="ai" x1="108.929%" x2="-36.411%" y1="83.41%" y2="-6.831%"><stop offset="0" stop-color="#4ab9ff"/><stop offset="1" stop-color="#c6fffe"/></linearGradient><linearGradient id="aj" x1="1.265%" x2="143.643%" xlink:href="#f" y1="42.404%" y2="54.536%"/><linearGradient id="ak" x1="46.119%" x2="39.906%" xlink:href="#g" y1="45.237%" y2="66.625%"/><linearGradient id="al" x1="13.495%" x2="114.54%" xlink:href="#k" y1="34.959%" y2="65.674%"/><linearGradient id="am" x1="-76.583%" x2="106.201%" y1="-75.019%" y2="67.212%"><stop offset="0" stop-color="#216ffc"/><stop offset="1" stop-color="#4c8aff"/></linearGradient><linearGradient id="an" x1="-25.555%" x2="237.965%" y1="27.299%" y2="80.794%"><stop offset="0" stop-color="#3673fd"/><stop offset="1" stop-color="#345ff1"/></linearGradient><linearGradient id="ao" x1="20.846%" x2="106.019%" xlink:href="#f" y1="27.155%" y2="63.643%"/><linearGradient id="ap" x1="74.341%" x2="32.878%" y1="6.202%" y2="31.21%"><stop offset="0" stop-color="#90e6ff" stop-opacity=".503"/><stop offset="1" stop-color="#7cd6fc" stop-opacity="0"/></linearGradient><linearGradient id="aq" x1="55.689%" x2="40.225%" y1="12.916%" y2="84.834%"><stop offset="0" stop-color="#90e6ff" stop-opacity=".918"/><stop offset="1" stop-color="#7cd6fc" stop-opacity="0"/></linearGradient><linearGradient id="m"><stop offset="0" stop-color="#baedff"/><stop offset="1" stop-color="#88d6f5" stop-opacity=".338"/></linearGradient><linearGradient id="at" x1="50%" x2="50%" xlink:href="#m" y1="-39.735%" y2="64.246%"/><path id="as" d="M15.288 30.6l9.525 5.457.008 32.363-9.525-5.456zm17.858 21.185l9.525 5.457.008 21.41-9.525-5.457zm16.675 18.45l9.524 5.455.008 12.51-9.532-5.457z"/><filter id="ar" height="139.9%" width="152.2%" x="-26.1%" y="-16.5%"><feOffset dy="2" in="SourceAlpha" result="shadowOffsetOuter1"/><feGaussianBlur in="shadowOffsetOuter1" result="shadowBlurOuter1" stdDeviation="3.5"/><feColorMatrix in="shadowBlurOuter1" values="0 0 0 0 0.0862152722 0 0 0 0 0.350131643 0 0 0 0 0.890943878 0 0 0 0.331550045 0"/></filter><linearGradient id="n"><stop offset="0" stop-color="#b3edfe"/><stop offset="1" stop-color="#7cd6fc" stop-opacity="0"/></linearGradient><linearGradient id="au" x1="45.026%" x2="60.562%" xlink:href="#n" y1="2.699%" y2="89.56%"/><linearGradient id="av" x1="44.984%" x2="74.555%" xlink:href="#n" y1="2.699%" y2="30.661%"/><linearGradient id="ay" x1="22.621%" x2="58.134%" xlink:href="#m" y1="25.506%" y2="89.088%"/><path id="ax" d="M14.685 27.161v16.226l13.666-12.48c.354 1.208.543 2.593.543 4.14 0 8.966-6.367 19.96-14.209 24.57C6.844 64.227.477 60.697.477 51.73s6.358-19.964 14.208-24.57zm48.185-3.934v2.7L38.813 40.048v-2.7zM29.73 26.72L16.26 39.757l1.132-16.826c5.774-2.87 10.576-1.228 12.339 3.79zm33.886-15.634v2.7L38.813 28.348v-2.7zm0-10.8v2.7L38.813 17.548v-2.7z"/><filter id="aw" height="137.5%" width="136.4%" x="-18.2%" y="-15.5%"><feOffset dy="2" in="SourceAlpha" result="shadowOffsetOuter1"/><feGaussianBlur in="shadowOffsetOuter1" result="shadowBlurOuter1" stdDeviation="3.5"/><feColorMatrix in="shadowBlurOuter1" values="0 0 0 0 0.0862152722 0 0 0 0 0.350131643 0 0 0 0 0.890943878 0 0 0 0.331550045 0"/></filter><linearGradient id="az" x1="50%" x2="50%" y1="0%" y2="100%"><stop offset="0" stop-color="#0782ab"/><stop offset=".5" stop-color="#41d1e7"/><stop offset="1" stop-color="#5ae3de"/></linearGradient></defs><g fill="none" fill-rule="evenodd"><path d="M76.44 328.45L242.575 229l168.933 99.213-164.868 97.183z" fill="#2367c5" filter="url(#o)" opacity=".225"/><path d="M171.552 8.347l163.638 95.807-.973-3.273 7.469 1.406v7.967a4.633 4.633 0 0 1-2.259 4.355L178.08 210.127a4.633 4.633 0 0 1-4.665.032L7.068 114.777a4.635 4.635 0 0 1-2.266-4.787l-.037-7.243 7.48.892z" fill="url(#p)" fill-rule="nonzero" transform="translate(71.044 164.2)"/><path d="M6.994 98.59L171.552.153l167.856 98.277a4.633 4.633 0 0 1 .02 7.985l-161.35 95.51a4.633 4.633 0 0 1-4.664.033L7.068 106.585a4.633 4.633 0 0 1-.074-7.996z" fill="url(#q)" stroke="url(#r)" stroke-width="1.158" transform="translate(71.044 164.2)"/><path d="M.014 129.785L209.464 6.543a9.718 9.718 0 0 1 9.136.027L413.675 117c-.024 3.258-.031 5.203-.022 5.835.015.978-.606 1.96-1.858 2.706L206.208 248.22a9.666 9.666 0 0 1-8.867.027L2.023 138.393c-1.323-.757-1.996-1.76-2.01-2.758-.008-.632-.008-2.582 0-5.85z" fill="url(#s)" fill-rule="nonzero" transform="translate(48.562 135.4)"/><path d="M1.772 127.629L209.463 1.152a9.693 9.693 0 0 1 9.137.018l193.222 113.652c2.455 1.476 2.437 3.852-.027 5.328L206.208 242.82a9.666 9.666 0 0 1-8.867.036L2.023 133.002c-2.58-1.485-2.688-3.888-.251-5.373z" fill="url(#t)" stroke="url(#u)" stroke-width=".9" transform="translate(48.562 135.4)"/><g opacity=".9"><path d="M0 8.773L14.433.219l16.135 9.29-14.433 8.561z" fill="url(#v)" transform="translate(232.917 114.7)"/><path d="M.008 8.707l15.903 9.041-.227 35.712L.008 44.21z" fill="url(#w)" transform="translate(232.917 114.7)"/><path d="M30.576 9.502L15.68 17.843V53.46l14.896-8.703z" fill="url(#x)" transform="translate(232.917 114.7)"/></g><g opacity=".9"><path d="M.654 8.089L14.475.21l15.348 8.903-13.73 8.204z" fill="url(#v)" transform="translate(206.837 147.1)"/><path d="M.722 8.186l14.967 8.692.007 19.117L.73 27.304z" fill="url(#y)" transform="translate(206.837 147.1)"/><path d="M29.838 8.992L15.661 17.1 15.653 36l14.177-8.108z" fill="url(#z)" transform="translate(206.837 147.1)"/></g><path d="M.413 38.584L64.927.204l66.102 37.909-64.57 38.404z" fill="url(#A)" stroke="url(#B)" stroke-width=".81" transform="translate(258.097 206.082)"/><path d="M.259 38.16l66.2 38.357v8.097L.267 46.167z" fill="url(#C)" transform="translate(258.097 206.082)"/><path d="M66.459 76.517l64.489-38.496v8.097L66.459 84.614z" fill="url(#D)" transform="translate(258.097 206.082)"/><path d="M0 30.769l51.886 29.332v145.226L0 175.016z" fill="url(#E)" transform="translate(273.496 66.813)"/><path d="M51.894 60.002l50.396-30.156v145.745l-50.557 30.014z" fill="url(#F)" transform="translate(273.496 66.813)"/><path d="M0 30.769L50.509.207l52.162 29.959-51.206 30.157z" fill="url(#G)" stroke="url(#H)" stroke-width=".81" transform="translate(273.496 66.813)"/><path d="M.592 24.397L41.318.2l41.707 24.122-40.71 24.062z" fill="url(#I)" stroke="url(#J)" stroke-width=".81" transform="translate(283.222 61.145)"/><path d="M.592 24.397l41.755 23.768.008 8.016L.592 32.413z" fill="url(#K)" transform="translate(283.222 61.145)"/><path d="M42.38 48.141l40.645-23.819v8.097L42.38 56.238z" fill="url(#L)" transform="translate(283.222 61.145)"/><path d="M.235 15.932L27.499.582l27.678 15.564-27.005 16.557z" fill="url(#M)" stroke="url(#N)" stroke-width=".81" transform="translate(296.189 55.478)"/><path d="M28.075 32.026l27.102-15.88v8.097l-27.102 15.88z" fill="url(#O)" transform="translate(296.189 55.478)"/><path d="M.235 15.932l27.832 16.055v8.027L.235 23.959z" fill="url(#P)" transform="translate(296.189 55.478)"/><g><path d="M3.866 4.431l3.388-1.986v16.194l-3.388 1.986z" fill="url(#Q)" transform="translate(321.314 49)"/><path d="M.43 2.526l3.476 2.005.009 16.078L.43 18.604z" fill="url(#R)" transform="translate(321.314 49)"/><path d="M.43 2.526L3.801.595l3.453 1.85-3.339 2.102z" fill="url(#S)" stroke="url(#T)" stroke-width=".81" transform="translate(321.314 49)"/></g><g fill="url(#U)" transform="translate(280.79 118.634)"><path d="M33.854 18.914l3.476 1.979.025 128.624-3.485-1.979zM26.559 14.865l3.477 1.98.024 128.624-3.485-1.98zM20.075 10.817l3.477 1.979.025 128.624-3.485-1.979zM13.592 7.578l3.477 1.98.024 128.624-3.485-1.98zM7.108 3.529l3.477 1.98.024 128.624-3.485-1.98zM.624.291L4.101 2.27l.024 128.624-3.485-1.979z"/></g><g fill="url(#V)" opacity=".5" transform="translate(330.229 116.205)"><path d="M.624 23.054l3.388-1.985v129.552l-3.388 1.985zM7.918 18.803l3.388-1.985V146.37l-3.388 1.985zM15.213 14.552l3.387-1.985v129.552l-3.387 1.985zM29.801 6.05l3.388-1.985v129.552l-3.388 1.985zM37.095 2.002L40.483.016v129.552l-3.388 1.985V2.001zM22.507 10.099l3.388-1.985v129.552l-3.388 1.984z"/></g><g><path d="M0 29.227v4.059l89.733 53.583v-4.872z" fill="url(#W)" transform="translate(142.624 232.131)"/><path d="M89.733 82.541v4.328l49.313-28.415v-4.06z" fill="url(#X)" transform="translate(142.624 232.131)"/><path d="M139.054 54.435L49.167.802 0 29.227l89.733 53.374z" fill="url(#Y)" transform="translate(142.624 232.131)"/><path d="M.105.218l83.266 47.918v61.683L.105 61.073z" fill="url(#Z)" transform="translate(149.09 199.657)"/><path d="M83.484 49.004l44.091-25.48v62.127L83.46 110.952z" fill="url(#aa)" transform="translate(149.09 199.657)"/><path d="M76.791 92.996L12.797 55.2 0 60.483l66.289 40.187z" fill="url(#ab)" transform="translate(156.367 204.528)"/><path d="M2.094 6.433L12.231.462v56.83L2.094 63.263z" fill="url(#ac)" transform="translate(156.367 204.528)"/><g fill="url(#ad)" transform="translate(168.493 227.26)"><path d="M44.964 64.64l10.48.736a1.217 1.217 0 0 1 1.127 1.297v.006a1.214 1.214 0 0 1-1.296 1.127l-10.48-.736a1.217 1.217 0 0 1-1.127-1.297v-.006a1.214 1.214 0 0 1 1.296-1.127zM33.718 58.133l10.478.736a1.217 1.217 0 0 1 1.128 1.297v.005a1.214 1.214 0 0 1-1.297 1.127l-10.479-.736a1.217 1.217 0 0 1-1.127-1.297v-.005a1.214 1.214 0 0 1 1.297-1.127zM23.208 51.638l10.48.736a1.217 1.217 0 0 1 1.127 1.297v.006a1.214 1.214 0 0 1-1.296 1.127h-.001l-10.479-.736a1.217 1.217 0 0 1-1.128-1.298v-.005a1.214 1.214 0 0 1 1.297-1.127zM12.699 45.955l10.479.736a1.217 1.217 0 0 1 1.128 1.297v.006a1.214 1.214 0 0 1-1.297 1.127l-10.48-.736a1.217 1.217 0 0 1-1.127-1.298v-.005a1.214 1.214 0 0 1 1.297-1.127zM2.19 39.46l10.479.736a1.217 1.217 0 0 1 1.127 1.297v.006a1.214 1.214 0 0 1-1.297 1.127L2.02 41.89a1.217 1.217 0 0 1-1.127-1.297v-.006A1.214 1.214 0 0 1 2.19 39.46z" opacity=".8"/></g><path d="M4.042.804V39.78c0 1.12-.905 2.03-2.021 2.03A2.025 2.025 0 0 1 0 39.78V.803zm10.51 6.495V46.276c0 1.12-.906 2.03-2.022 2.03s-2.02-.91-2.02-2.03V7.298z" fill="url(#ae)" transform="translate(168.493 227.26)"/><path d="M25.06 12.982V51.959c0 1.12-.904 2.03-2.02 2.03s-2.021-.91-2.021-2.03V12.98zm10.51 6.494v38.978c0 1.12-.905 2.03-2.021 2.03s-2.021-.91-2.021-2.03V19.476zm11.318 6.495v38.977c0 1.121-.905 2.03-2.021 2.03s-2.021-.909-2.021-2.03V25.971z" fill="url(#af)" transform="translate(168.493 227.26)"/><path d="M18.998 66.166l67.906 39.375v-6.495L18.998 59.671z" fill="#12458c" filter="url(#ag)" opacity=".637" transform="translate(139.39 161.5)"/><path d="M9.854 43.334l83.29 49.644.017 56.131-9.72-5.782-.013-44.726-63.161-38.037.015 45.183L9.7 99.452z" fill="url(#ah)" transform="translate(139.39 161.5)"/><path d="M.752 35.807v4.391l97.073 57.967v-5.27z" fill="url(#ai)" transform="translate(139.39 161.5)"/><path d="M290.57 224.581l-97.243-58.021-53.193 30.498 97.235 58.021z" fill="#a8cdff"/><g><path d="M139.046 49.523L55.88.617 11.318 25.168l84.882 49.1z" fill="url(#aj)" stroke="url(#ak)" stroke-width=".81" transform="translate(140.198 161.5)"/><path d="M11.318 25.168L0 35.722l97.817 58.453L96.2 73.879z" fill="url(#al)" transform="translate(140.198 161.5)"/><path d="M96.2 73.879l.817 20.771 53.347-31.617-11.318-13.51z" fill="url(#am)" transform="translate(140.198 161.5)"/></g><path d="M97.825 93.769v4.392l53.347-30.736v-4.392z" fill="url(#an)" transform="translate(139.39 161.5)"/></g><g><path d="M12.842 1.245c4.892 2.822 8.858 9.695 8.858 15.35s-3.966 7.952-8.85 5.13c-4.882-2.821-8.857-9.696-8.857-15.35 0-5.655 3.957-7.954 8.849-5.13z" fill="url(#ao)" transform="translate(176.261 210.1)"/><path d="M185.874 213.276c4.893 2.823 8.858 9.696 8.858 15.351s-3.956 7.952-8.849 5.13c-4.892-2.821-8.858-9.695-8.858-15.35s3.966-7.953 8.85-5.13z" fill="#c4ebff"/><path d="M191.189 227.103l-4.065-.786.009 5.097-2.509-5.572-4.055-.763 2.518-2.659-2.527-5.568 4.064 3.928 2.509-2.677-.009 5.087z" fill="#f4985c"/></g><g opacity=".4" transform="translate(418.28 121.8)"><path d="M19.574.334l67.853 38.582a5.427 5.427 0 0 1 2.488 4.26l.014 59.462c0 1.571-1.11 2.21-2.487 1.428L19.596 65.484a5.416 5.416 0 0 1-2.495-4.26L17.087 1.76c0-1.571 1.116-2.209 2.487-1.427z" fill="url(#ap)" opacity=".653"/><path d="M2.703 3.068L76.42 45.642a6.006 6.006 0 0 1 2.702 4.7l.016 65.614c0 1.734-1.206 2.439-2.703 1.576L2.726 74.958a5.994 5.994 0 0 1-2.71-4.7L0 4.642c0-1.734 1.213-2.437 2.703-1.575z" fill="url(#aq)" opacity=".853"/><use fill="#000" filter="url(#ar)" xlink:href="#as"/><use fill="url(#at)" xlink:href="#as"/></g><g opacity=".6"><path d="M13.786 57.507L95.694 9.426c1.663-.975 3.003-.153 3.003 1.835v69.883a6.841 6.841 0 0 1-3.003 5.365L13.786 134.59c-1.655.974-3.003.153-3.003-1.836V62.873a6.863 6.863 0 0 1 3.003-5.366z" fill="url(#au)" opacity=".853" transform="translate(60.576 42.5)"/><path d="M2.758 44.335L77.963.375c1.527-.891 2.758-.14 2.758 1.678v63.892a6.249 6.249 0 0 1-2.758 4.905L2.758 114.81c-1.52.891-2.758.14-2.758-1.678V49.241a6.268 6.268 0 0 1 2.758-4.906z" fill="url(#av)" opacity=".308" transform="translate(60.576 42.5)"/><g transform="translate(82.159 83.9)"><use fill="#000" filter="url(#aw)" xlink:href="#ax"/><use fill="url(#ay)" xlink:href="#ax"/></g></g><g><path d="M299.464 319.9h2.698v16.2h-2.698z" fill="#246caa"/><path d="M11.69 37.336c6.21 0 10.792-19.873 10.792-26.086C22.482 5.037 17.45 0 11.242 0 5.031 0 0 5.037 0 11.25s5.482 26.086 11.69 26.086z" fill="url(#az)" transform="matrix(1 0 0 -1 289.572 320.336)"/></g><g><path d="M265.292 337.9h2.698v16.2h-2.698z" fill="#246caa"/><path d="M11.69 37.336c6.21 0 10.792-19.873 10.792-26.086C22.482 5.037 17.45 0 11.242 0 5.031 0 0 5.037 0 11.25s5.482 26.086 11.69 26.086z" fill="url(#az)" transform="matrix(1 0 0 -1 255.4 338.336)"/></g></g></svg>