<svg width="48" height="48" xmlns="http://www.w3.org/2000/svg"><g fill="none"><path d="M23.343 15a4 4 0 0 1 2.829 1.172l3.656 3.656A4 4 0 0 1 31 22.657V42a3 3 0 0 1-3 3H8a3 3 0 0 1-3-3V20a1 1 0 0 1 2 0v22a1 1 0 0 0 1 1h20a1 1 0 0 0 1-1V23h-4a2 2 0 0 1-2-2v-4h-5a1 1 0 0 1 0-2h5.343zm12-12a4 4 0 0 1 2.829 1.172l3.656 3.656A4 4 0 0 1 43 10.657V28a1 1 0 0 1-2 0V11h-4a2 2 0 0 1-2-2V5H20a1 1 0 0 0-1 1v6a1 1 0 0 1-2 0V6a3 3 0 0 1 3-3h15.343zM40 9l-3-3v3h3zM25 21h3l-3-3v3z" fill-opacity=".8" fill="#000"/><path d="M39.202 29.275l4.546 4.394a.898.898 0 0 1 0 1.302.963.963 0 0 1-.673.27.963.963 0 0 1-.674-.27l-2.92-2.822v3.772c0 3.104-1.456 5.881-3.741 7.738-.283.23-.686.502-1.207.815a.612.612 0 0 1-.927-.524v-.05a2 2 0 0 1 .773-1.58c.432-.335.761-.623.986-.864 1.372-1.466 2.21-3.407 2.21-5.535v-3.772l-2.92 2.822a.976.976 0 0 1-1.348 0 .899.899 0 0 1 0-1.302l4.547-4.394a.976.976 0 0 1 1.348 0zM13.804 3.43c.345 0 .625.28.625.625 0 .666-.295 1.297-.805 1.724-.719.6-1.124.955-1.217 1.064a8.053 8.053 0 0 0-1.947 5.242v3.93l2.921-2.98a.974.974 0 0 1 1.347 0 .897.897 0 0 1 0 1.301L10.18 18.73a.976.976 0 0 1-1.347 0l-4.548-4.394a.898.898 0 0 1 0-1.301c.187-.18.43-.27.674-.27.244 0 .487.09.674.27l2.92 2.98v-3.93c0-3.426 1.773-6.454 4.476-8.285.123-.083.276-.178.459-.285a.626.626 0 0 1 .315-.085z" fill="#367BFF"/></g></svg>