<svg xmlns="http://www.w3.org/2000/svg" width="50" height="50" viewBox="0 0 50 50">
  <g fill="none" fill-rule="evenodd" transform="translate(-8 -8)">
    <path fill="#000" fill-opacity=".8" d="M29,21 L32,21 L32,19 C32,18.4477153 32.4477153,18 33,18 C33.5522847,18 34,18.4477153 34,19 L34,21 L37,21 L37,19 C37,18.4477153 37.4477153,18 38,18 C38.5522847,18 39,18.4477153 39,19 L39,21 L41,21 C43.209139,21 45,22.790861 45,25 L45,27 L47,27 C47.5522847,27 48,27.4477153 48,28 C48,28.5522847 47.5522847,29 47,29 L45,29 L45,32 L47,32 C47.5522847,32 48,32.4477153 48,33 C48,33.5522847 47.5522847,34 47,34 L45,34 L45,37 L47,37 C47.5522847,37 48,37.4477153 48,38 C48,38.5522847 47.5522847,39 47,39 L45,39 L45,41 C45,43.209139 43.209139,45 41,45 L39,45 L39,47 C39,47.5522847 38.5522847,48 38,48 C37.4477153,48 37,47.5522847 37,47 L37,45 L34,45 L34,47 C34,47.5522847 33.5522847,48 33,48 C32.4477153,48 32,47.5522847 32,47 L32,45 L29,45 L29,47 C29,47.5522847 28.5522847,48 28,48 C27.4477153,48 27,47.5522847 27,47 L27,45 L25,45 C22.790861,45 21,43.209139 21,41 L21,39 L19,39 C18.4477153,39 18,38.5522847 18,38 C18,37.4477153 18.4477153,37 19,37 L21,37 L21,34 L19,34 C18.4477153,34 18,33.5522847 18,33 C18,32.4477153 18.4477153,32 19,32 L21,32 L21,29 L19,29 C18.4477153,29 18,28.5522847 18,28 C18,27.4477153 18.4477153,27 19,27 L21,27 L21,25 C21,22.790861 22.790861,21 25,21 L27,21 L27,19 C27,18.4477153 27.4477153,18 28,18 C28.5522847,18 29,18.4477153 29,19 L29,21 Z M33,56 C45.7025492,56 56,45.7025492 56,33 C56,20.2974508 45.7025492,10 33,10 C20.2974508,10 10,20.2974508 10,33 C10,45.7025492 20.2974508,56 33,56 Z M33,58 C19.1928813,58 8,46.8071187 8,33 C8,19.1928813 19.1928813,8 33,8 C46.8071187,8 58,19.1928813 58,33 C58,46.8071187 46.8071187,58 33,58 Z M25,23 C23.8954305,23 23,23.8954305 23,25 L23,41 C23,42.1045695 23.8954305,43 25,43 L41,43 C42.1045695,43 43,42.1045695 43,41 L43,25 C43,23.8954305 42.1045695,23 41,23 L25,23 Z"/>
    <rect width="12" height="12" x="27" y="27" fill="#467DF6" rx="3"/>
  </g>
</svg>
