<svg width="600" height="400" xmlns="http://www.w3.org/2000/svg" xmlns:xlink="http://www.w3.org/1999/xlink"><defs><filter x="-4%" y="-6.9%" width="108%" height="113.7%" filterUnits="objectBoundingBox" id="a"><feGaussianBlur stdDeviation="3.6" in="SourceGraphic"/></filter><linearGradient x1="119.083%" y1="120.521%" x2="18.516%" y2="19.602%" id="b"><stop stop-color="#245CD7" offset="0%"/><stop stop-color="#81B0FF" offset="100%"/></linearGradient><linearGradient x1="9.646%" y1="69.622%" x2="90.354%" y2="16.607%" id="c"><stop stop-color="#569AEA" offset="0%"/><stop stop-color="#2355C3" offset="100%"/></linearGradient><linearGradient x1="85.577%" y1="53.414%" x2="6.816%" y2="50%" id="e"><stop stop-color="#468DEF" offset="0%"/><stop stop-color="#BBD8FF" offset="100%"/></linearGradient><linearGradient x1="50%" y1="0%" x2="50%" y2="100%" id="d"><stop stop-color="#FFF" stop-opacity="0" offset="0%"/><stop stop-color="#FFF" stop-opacity=".209" offset="100%"/></linearGradient><linearGradient x1="115.244%" y1="24.632%" x2="-17.561%" y2="74.984%" id="f"><stop stop-color="#00E2FF" offset="0%"/><stop stop-color="#D2E6FF" offset="100%"/></linearGradient><linearGradient x1="31.088%" y1="42.852%" x2="61.377%" y2="61.899%" id="g"><stop stop-color="#4E98FF" offset="0%"/><stop stop-color="#00E9FF" stop-opacity="0" offset="100%"/></linearGradient><path d="M3.484 2.237l93.4 53.905c.557.322.9.916.9 1.559l.008 29.4a1.8 1.8 0 0 1-2.7 1.56L1.69 34.756a1.8 1.8 0 0 1-.9-1.558L.785 3.797a1.8 1.8 0 0 1 2.7-1.56z" id="h"/><linearGradient x1="98.513%" y1="47.422%" x2="-39.234%" y2="39.571%" id="l"><stop stop-color="#699FE3" offset="0%"/><stop stop-color="#EDF4FC" offset="100%"/></linearGradient><path d="M109.636 25.101L192 74.12V72h1v3.078a1.798 1.798 0 0 1 .002 1.521L193 77h-.254a1.79 1.79 0 0 1-.345.315l-.136.086L90.91 135.547a5.4 5.4 0 0 1-5.243.073l-.221-.126-79.58-47.729a1.8 1.8 0 0 1-.526-.48L5 87.138v-.735a1.798 1.798 0 0 1-.001-.351L5 83.7l2 .3v.025l102.636-58.925z" id="k"/><filter x="-10.1%" y="-22.5%" width="124.4%" height="141.4%" filterUnits="objectBoundingBox" id="j"><feOffset dx="4" dy="-2" in="SourceAlpha" result="shadowOffsetOuter1"/><feGaussianBlur stdDeviation="7" in="shadowOffsetOuter1" result="shadowBlurOuter1"/><feColorMatrix values="0 0 0 0 0 0 0 0 0 0.350738895 0 0 0 0 0.756085824 0 0 0 0.2 0" in="shadowBlurOuter1"/></filter><linearGradient x1="89.243%" y1="34.57%" x2="55.864%" y2="48.479%" id="m"><stop stop-color="#D8E9FF" offset="0%"/><stop stop-color="#FFF" offset="100%"/></linearGradient><linearGradient x1="74.611%" y1="41.071%" x2="16.137%" y2="63.757%" id="n"><stop stop-color="#64F5D5" offset="0%"/><stop stop-color="#9DF3FB" stop-opacity="0" offset="100%"/></linearGradient><linearGradient x1="50%" y1="100%" x2="50%" y2="72.839%" id="o"><stop stop-color="#02BAF8" stop-opacity="0" offset="0%"/><stop stop-color="#5FD7F8" stop-opacity=".574" offset="100%"/></linearGradient><linearGradient x1="50%" y1="10.531%" x2="71.254%" y2="91.791%" id="p"><stop stop-color="#D6F2FE" offset="0%"/><stop stop-color="#1A91EB" offset="100%"/></linearGradient><linearGradient x1="41.224%" y1="8.447%" x2="52.408%" y2="108.652%" id="q"><stop stop-color="#F7FFFF" offset="0%"/><stop stop-color="#D0EAFF" offset="100%"/></linearGradient><linearGradient x1="28.1%" y1="6.006%" x2="28.1%" y2="82.712%" id="s"><stop stop-color="#ACDEFF" offset="0%"/><stop stop-color="#3B96FB" offset="100%"/></linearGradient><linearGradient x1="38.363%" y1="4.684%" x2="64.71%" y2="97.46%" id="r"><stop stop-color="#A5D6FF" offset="0%"/><stop stop-color="#217FF2" offset="100%"/></linearGradient><linearGradient x1="97.269%" y1="30.512%" x2="11.025%" y2="65.16%" id="t"><stop stop-color="#64E3F5" offset="0%"/><stop stop-color="#9DF3FB" stop-opacity="0" offset="100%"/></linearGradient></defs><g fill="none" fill-rule="evenodd"><path fill="#114BBB" opacity=".106" filter="url(#a)" d="M0 226.477l133.85-78.982 136.414 78.562-133.14 78.948z" transform="translate(175.178 77.25)"/><path fill="url(#b)" d="M3.631 112.794l134.203 76.466v66.733L3.648 179.41z" transform="translate(175.178 77.25)"/><path fill="url(#c)" d="M137.834 189.26l129.722-77.367v67.37l-129.722 77.026z" transform="translate(175.178 77.25)"/><path d="M4.529 110.555l129.644-76.94h0L266.64 109.99a1.8 1.8 0 0 1 .02 3.107L139.217 188.77a3.6 3.6 0 0 1-3.63.027L4.553 113.664a1.8 1.8 0 0 1-.023-3.11z" stroke="url(#d)" fill="url(#e)" transform="translate(175.178 77.25)"/><g><path d="M2.9 53.167L91.26 1.69a1.93 1.93 0 0 1 2.9 1.666c0 2.079-1.105 4-2.9 5.047L2.9 59.88A1.93 1.93 0 0 1 0 58.213c0-2.079 1.104-4 2.9-5.046zM2.9 64.355l88.36-51.477a1.93 1.93 0 0 1 2.9 1.667c0 2.078-1.105 4-2.9 5.046L2.9 71.068A1.93 1.93 0 0 1 0 69.4c0-2.078 1.104-4 2.9-5.046zM2.9 77.78l88.36-51.476a1.93 1.93 0 0 1 2.9 1.667c0 2.078-1.105 4-2.9 5.046L2.9 84.494A1.93 1.93 0 0 1 0 82.827c0-2.078 1.104-4 2.9-5.046z" fill="url(#f)" transform="translate(333.733 217.536)"/><g transform="translate(334.86 225.077)" fill="url(#g)"><path opacity=".2" d="M0 77.043l90.983-52.429 77.37 44.105-90.983 52.428z"/><path opacity=".4" d="M0 63.617l90.983-52.429 77.37 44.105L77.37 107.72z"/><path opacity=".6" d="M0 52.428L90.983 0l77.37 44.104L77.37 96.533z"/></g></g><g><g transform="translate(193.895 216.422)"><mask id="i" fill="#fff"><use xlink:href="#h"/></mask><use fill="#4B79DD" xlink:href="#h"/><path fill="#2F67DC" mask="url(#i)" d="M-21.467-21.893l132.215-77.672v67.885L-21.467 45.992z"/></g><g transform="translate(95 215.737)"><use fill="#000" filter="url(#j)" xlink:href="#k"/><use fill="url(#l)" xlink:href="#k"/></g><path d="M192.29 70.899L112.348 23.32a5.4 5.4 0 0 0-5.45-.044L5.533 81.43a1.8 1.8 0 0 0-.024 3.108l79.942 47.578a5.4 5.4 0 0 0 5.449.044l101.366-58.152a1.8 1.8 0 0 0 .025-3.108z" fill="url(#m)" transform="translate(95 215.737)"/><path fill="#ECAB2C" d="M216.24 257.527l-11.359-6.777-11.637 6.709 11.36 6.766z"/><path fill="#77BD8C" d="M197.82 268.14l-11.358-6.778-11.637 6.698 11.358 6.778z"/><path fill="#5EC2FB" d="M179.4 278.741l-11.359-6.766-11.637 6.698 11.36 6.766z"/><g fill="#D4DDDF"><path d="M254.103 280.099l-30.29-18.058-3.878 2.23 30.29 18.068zM217.263 301.324l-30.29-18.069-3.878 2.24 30.29 18.058zM224.324 283.934l-18.93-11.28-3.88 2.229 18.932 11.291zM262.439 294.162l-46.382-27.652-3.878 2.23 46.382 27.651zM244.02 304.775l-46.383-27.663-3.878 2.24 46.382 27.652zM225.599 315.376l-46.383-27.652-3.877 2.23 46.382 27.663z"/></g><g fill="#77BD8C" fill-rule="nonzero"><path d="M160.565 306.349a1.696 1.696 0 1 0-3.39.043l.087 6.766a1.696 1.696 0 0 0 1.71 1.675l15.765-.147a1.696 1.696 0 0 0 1.679-1.713 1.696 1.696 0 0 0-1.711-1.68l-14.075.13-.065-5.074z"/><path d="M149.131 301.531c-8.504 4.896-8.673 13.26-.348 18.234 7.93 4.736 20.808 4.772 28.925.088 8.505-4.908 8.675-13.26.347-18.233-7.933-4.725-20.808-4.761-28.924-.089zm27.45 16.361c-7.413 4.278-19.418 4.244-26.64-.07-6.83-4.08-6.704-10.288.316-14.329 7.412-4.267 19.415-4.233 26.641.07 6.832 4.08 6.705 10.277-.318 14.33z"/></g><path d="M189.43 60.882l-79.943-47.578a5.4 5.4 0 0 0-5.449-.043L2.672 71.413a1.8 1.8 0 0 0-.025 3.108l79.942 47.578a5.4 5.4 0 0 0 5.45.043L189.404 63.99a1.8 1.8 0 0 0 .025-3.108z" fill="url(#n)" opacity=".55" transform="translate(95 215.737)"/></g><g><path d="M291.957 176.212c11.342-6.882 29.959-6.916 41.581-.091 11.622 6.825 11.848 17.95.504 24.82-11.343 6.87-29.96 6.916-41.581.091-11.621-6.825-11.848-17.938-.504-24.82z" fill="#2473D8"/><path d="M291.957 179.137c11.342-6.882 29.959-6.916 41.581-.091 11.622 6.825 11.848 17.95.504 24.82-11.343 6.87-29.96 6.916-41.581.091-11.621-6.825-11.848-17.938-.504-24.82z" fill="#4792F1" opacity=".664"/><path d="M217.465 173.045h-58.354l-.325-80.43 58.81 19.986-.13 60.444z" fill="url(#o)" transform="translate(124.73 17)"/><path d="M151.672.282l.17.078 2.256 1.088a83.204 83.204 0 0 0 18.83 5.752 85.56 85.56 0 0 0 19.206 1.126l1.07-.065 1.423-.088a4.768 4.768 0 0 1 3.377 1.691l.153.193 1.651 1.845c.112.127.22.253.325.392a237.702 237.702 0 0 0 20.263 21.87c11.037 10.935 18.135 15.284 19.047 15.827l.113.07.113.07 1.754 1.15a8.643 8.643 0 0 1 3.594 6.247l.023.301v64.99c0 5.95-2.367 10.624-6.061 14.259-4.708 5.932-13.186 13.398-27.9 18.117-.114-3.59-.143-5.767-.134-7.087-7.096.78-12.937.358-14.577-.6-5.362-3.14-47.231-54.269-48.068-79.786l-.013-.766V18.668l-14.495-6.614L148.75.474l.08.329c.594-.815 1.626-1.048 2.841-.521z" fill="url(#p)" transform="translate(124.73 17)"/><path d="M225.07 61.29a2.193 2.193 0 0 1-.227-.14c-.91-.53-8-4.892-19.024-15.825a237.485 237.485 0 0 1-20.241-21.867 17.244 17.244 0 0 0-.325-.38l-1.649-1.858a4.76 4.76 0 0 0-3.524-1.883l-1.422.089c-6.77.46-13.57.103-20.254-1.062a83.018 83.018 0 0 1-18.807-5.751l-2.254-1.087c-2.001-.974-3.551.088-3.551 2.414v64.173c0 25.242 42.615 77.382 48.024 80.542 4.97 2.907 48.615.872 48.615-24.686V69a8.622 8.622 0 0 0-3.612-6.547l-1.749-1.163z" fill="url(#q)" transform="translate(124.73 17)"/><path d="M217.383 67.615l-.156-.094c-.39-.233-.906-.56-1.575-1.013a67.696 67.696 0 0 1-3.34-2.429c-3.37-2.6-7.141-5.898-11.234-9.951a201.087 201.087 0 0 1-17.072-18.407 3.728 3.728 0 0 0-.212-.242l-1.39-1.545-.078-.095a2.622 2.622 0 0 0-1.882-1.038l-1.09.057a72.437 72.437 0 0 1-17.293-.935 70.996 70.996 0 0 1-16.11-4.933l-1.905-.909c-.758-.368-1.038-.18-1.038.796v53.576c0 8.994 6.927 23.346 18.186 39.757 8.35 12.171 18.936 24.864 21.387 26.29 2.133 1.235 12.646.825 20.839-1.548 11.123-3.223 17.795-9.194 17.795-17.906l.002-54.067a5.828 5.828 0 0 0-2.421-4.416l-1.413-.948z" stroke="url(#r)" stroke-width="2.7" fill="url(#s)" transform="translate(124.73 17)"/><path d="M302.756 79.69c5.553 3.631 9.048 9.713 9.405 16.368 0 5.06-2.955 7.614-6.968 6.54v6.85l5.923 3.426a5.391 5.391 0 0 1 2.438 4.242 1.5 1.5 0 0 1-.712 1.59 1.48 1.48 0 0 1-1.725-.168l-5.924-3.428v11.749a1.5 1.5 0 0 1-.711 1.59 1.48 1.48 0 0 1-1.725-.168 5.431 5.431 0 0 1-2.44-4.241V99.688a20.935 20.935 0 0 1-6.961-14.508c-.001-6.038 4.208-8.496 9.4-5.49z" fill="#03528D"/><path d="M300.509 80.808c5.554 3.629 9.049 9.714 9.403 16.37 0 5.06-2.953 7.606-6.964 6.53v6.851l5.92 3.427a5.415 5.415 0 0 1 2.438 4.243c.126.629-.16 1.27-.712 1.591a1.48 1.48 0 0 1-1.726-.169l-5.921-3.427v11.75c.126.63-.16 1.27-.712 1.591a1.48 1.48 0 0 1-1.726-.169 5.413 5.413 0 0 1-2.438-4.242V100.8a20.917 20.917 0 0 1-6.962-14.502c0-6.04 4.207-8.497 9.4-5.49z" fill="#2C83D4"/><path d="M130.41 78.515L0 148.533l57.252 60.096 117.134-72.339c13.913-29.474-20.173-74.776-43.976-57.775z" fill="url(#t)" opacity=".55" transform="translate(124.73 17)"/><path d="M277.055 94.269c14.585 8.381 26.41 28.82 26.414 45.646.004 16.825-11.817 23.688-26.401 15.307-14.585-8.381-26.41-28.82-26.413-45.658-.003-16.839 11.816-23.677 26.4-15.295zm0 1.618c13.806 7.943 25 27.29 25.005 43.225.003 15.934-11.187 22.421-24.994 14.479-13.806-7.942-25.001-27.277-25.004-43.212-.002-15.935 11.187-22.421 24.994-14.492z" fill="#64E3F5"/><path d="M259.077 115.779c11.482 6.468 20.794 22.216 20.794 35.178 0 12.963-9.302 18.245-20.783 11.776-11.482-6.468-20.794-22.203-20.794-35.178 0-12.975 9.302-18.233 20.783-11.776zm0 1.623c10.69 6.02 19.357 20.68 19.36 32.743.002 12.064-8.662 16.984-19.35 10.977-10.69-6.006-19.358-20.68-19.36-32.755-.003-12.076 8.661-16.984 19.35-10.965z" fill="#64E3F5"/></g></g></svg>