<svg xmlns="http://www.w3.org/2000/svg" xmlns:xlink="http://www.w3.org/1999/xlink" width="27" height="33" viewBox="0 0 27 33">
  <defs>
    <linearGradient id="svg-ico-excel-c" x1="50%" x2="50%" y1="34.71%" y2="1.732%">
      <stop offset="0%" stop-color="#FFF"/>
      <stop offset="100%" stop-color="#F4F4F4"/>
    </linearGradient>
    <path id="svg-ico-excel-b" d="M22,1 L28,7 L28,28.5 C28,29.3284271 27.3284271,30 26.5,30 L7.5,30 C6.67157288,30 6,29.3284271 6,28.5 L6,2.5 C6,1.67157288 6.67157288,1 7.5,1 L22,1 Z"/>
    <filter id="svg-ico-excel-a" width="127.3%" height="120.7%" x="-13.6%" y="-6.9%" filterUnits="objectBoundingBox">
      <feMorphology in="SourceAlpha" operator="dilate" radius="1" result="shadowSpreadOuter1"/>
      <feOffset dy="1" in="shadowSpreadOuter1" result="shadowOffsetOuter1"/>
      <feGaussianBlur in="shadowOffsetOuter1" result="shadowBlurOuter1" stdDeviation=".5"/>
      <feComposite in="shadowBlurOuter1" in2="SourceAlpha" operator="out" result="shadowBlurOuter1"/>
      <feColorMatrix in="shadowBlurOuter1" values="0 0 0 0 0   0 0 0 0 0   0 0 0 0 0  0 0 0 0.15 0"/>
    </filter>
  </defs>
  <g fill="none" fill-rule="evenodd" transform="translate(-3)">
    <use fill="#000" filter="url(#svg-ico-excel-a)" xlink:href="#svg-ico-excel-b"/>
    <path fill="url(#svg-ico-excel-c)" stroke="#666" stroke-opacity=".4" d="M22.2071068,0.5 L28.5,6.79289322 L28.5,28.5 C28.5,29.6045695 27.6045695,30.5 26.5,30.5 L7.5,30.5 C6.3954305,30.5 5.5,29.6045695 5.5,28.5 L5.5,2.5 C5.5,1.3954305 6.3954305,0.5 7.5,0.5 L22.2071068,0.5 Z"/>
    <path fill="#000" d="M28,7 L23.5,7 C22.6715729,7 22,6.32842712 22,5.5 L22,1 L28,7 Z" opacity=".15"/>
    <g transform="translate(3 8)">
      <rect width="16" height="16" fill="#47B347" rx="2.2"/>
      <path fill="#FFF" d="M6,8.5 L5.25,8.5 C4.00735931,8.5 3,7.49264069 3,6.25 C3,5.00735931 4.00735931,4 5.25,4 L12.3,4 C12.5761424,4 12.8,4.22385763 12.8,4.5 C12.8,4.77614237 12.5761424,5 12.3,5 L5.25,5 C4.55964406,5 4,5.55964406 4,6.25 C4,6.94035594 4.55964406,7.5 5.25,7.5 L6,7.5 L10.75,7.5 C11.9926407,7.5 13,8.50735931 13,9.75 C13,10.9926407 11.9926407,12 10.75,12 L3.7,12 C3.42385763,12 3.2,11.7761424 3.2,11.5 C3.2,11.2238576 3.42385763,11 3.7,11 L10.75,11 C11.4403559,11 12,10.4403559 12,9.75 C12,9.05964406 11.4403559,8.5 10.75,8.5 L6,8.5 Z"/>
    </g>
  </g>
</svg>
