<svg width="200" height="200" xmlns="http://www.w3.org/2000/svg"><g fill="none" fill-rule="evenodd"><path d="M140.136 129.005a.622.622 0 1 0 .936-.821l-49.85-45.469a.623.623 0 0 0-.942.008L51.676 128.19a.623.623 0 0 0 .95.806L90.762 84.08l49.374 44.926z" fill="#367BFF"/><g opacity=".2" transform="translate(16 37)" fill="#367BFF"><ellipse cx="147.736" cy="78.737" rx="3.736" ry="3.737"/><ellipse cx="118.736" cy="120.737" rx="3.736" ry="3.737"/><ellipse cx="47.113" cy="28.063" rx="3.736" ry="3.737"/><ellipse cx="113.396" cy="28.063" rx="3.736" ry="3.737"/><ellipse cx="71.736" cy="75.737" rx="5.736" ry="5.737"/><ellipse cx="2.491" cy="83.491" rx="2.491" ry="2.491"/><ellipse cx="30.491" cy="121.491" rx="2.491" ry="2.491"/><ellipse cx="76" cy="2.491" rx="2.491" ry="2.491"/><ellipse cx="102.151" cy="52.977" rx="2.491" ry="2.491"/><ellipse cx="98.491" cy="93.491" rx="2.491" ry="2.491"/></g><circle stroke="#357AFE" stroke-width="2" fill="#FFF" cx="91" cy="79" r="25"/><circle fill="#357AFE" opacity=".095" cx="53" cy="125" r="19"/><circle fill="#FFF" cx="53" cy="125" r="13"/><circle fill="#357AFE" opacity=".095" cx="137" cy="131" r="20"/><circle fill="#FFF" cx="137" cy="131" r="13"/><path d="M139 136h-4v1h4v-1zm5-12h-14v11h14v-11zm-2.5 13a.5.5 0 1 1 0 1h-9a.5.5 0 1 1 0-1h1.5v-1h-3.846a1.155 1.155 0 0 1-1.154-1.156v-10.688c0-.639.517-1.156 1.154-1.156h13.692c.637 0 1.154.517 1.154 1.156v10.688c0 .639-.517 1.156-1.154 1.156H140v1h1.5z" fill-opacity=".8" fill="#000"/><path fill="#367BFF" d="M130 133h14v1h-14z"/><path d="M56.167 117c1.012 0 1.833.843 1.833 1.882v12.236c0 1.04-.82 1.882-1.833 1.882h-7.334c-1.012 0-1.833-.843-1.833-1.882v-12.236c0-1.04.82-1.882 1.833-1.882h7.334zm.832 12h-9l.001 2.067c0 .515.448.933 1 .933h7c.552 0 1-.418 1-.933L56.999 129zm0-9h-9v8h9v-8zM56 118h-7c-.552 0-1 .418-1 .933l-.001.067h9l.001-.067c0-.515-.448-.933-1-.933z" fill-opacity=".8" fill="#000"/><path d="M52.496 131.338c.414 0 .75-.346.75-.772a.762.762 0 0 0-.75-.773.762.762 0 0 0-.75.773c0 .426.336.772.75.772z" fill="#367BFF"/><path d="M87.73 64.286C90.264 66.664 93.652 68 97.957 68c.576 0 1.043.448 1.043 1v5c-.71 0-1.387.148-2 .416v-4.438c-3.96-.17-7.354-1.322-9.975-3.46-2.61 2.282-6.03 3.447-10.029 3.495v8.835c0 3.829 2.168 7.382 5.576 9.381L87 90.827l1.999-1.173L89 90c0 .628.193 1.21.522 1.692l-1.977 1.16a1.082 1.082 0 0 1-1.09 0l-4.973-2.917C77.455 87.572 75 83.373 75 78.848V69c0-.567.492-1.02 1.083-1 4.304.158 7.663-1.168 10.16-3.688a1.076 1.076 0 0 1 1.487-.026z" fill-opacity=".7" fill="#000" fill-rule="nonzero"/><path d="M87 73a1 1 0 0 1 1 1v3h3a1 1 0 1 1 0 2h-3v3a1 1 0 1 1-2 0v-3h-3a1 1 0 0 1 0-2h3v-3a1 1 0 0 1 1-1z" fill="#367BFF"/><path d="M106 83a1 1 0 0 0-1-1H94a1 1 0 0 0-1 1v7a1 1 0 0 0 1 1h11a1 1 0 0 0 1-1v-7zm2 0v7a3 3 0 0 1-3 3H94a3 3 0 0 1-3-3v-7a3 3 0 0 1 3-3h11a3 3 0 0 1 3 3zm-12-2a1 1 0 1 1-2 0 5 5 0 0 1 5-5h1a5 5 0 0 1 5 5 1 1 0 1 1-2 0 3 3 0 0 0-3-3h-1a3 3 0 0 0-3 3z" fill-opacity=".7" fill="#000" fill-rule="nonzero"/><path d="M99 86a1 1 0 1 1 0 2 1 1 0 0 1 0-2zm1.5-1a.5.5 0 1 1 0 1h-3a.5.5 0 0 1 0-1h3z" fill="#367BFF"/></g></svg>