<svg width="509" height="360" xmlns="http://www.w3.org/2000/svg" xmlns:xlink="http://www.w3.org/1999/xlink"><defs><filter x="-11.7%" y="-22.3%" width="123.5%" height="144.2%" filterUnits="objectBoundingBox" id="a"><feGaussianBlur stdDeviation="13" in="SourceGraphic"/></filter><linearGradient x1="-13.203%" y1="38.206%" x2="95.74%" y2="58.484%" id="d"><stop stop-color="#5ED0FF" offset="0%"/><stop stop-color="#828EFF" offset="100%"/></linearGradient><path d="M30.712 16.393l.236.125L64.27 35.134a3.067 3.067 0 0 0 2.818.09l.19-.099L92.49 20.842l2.125 1.282-26.273 14.885a5.226 5.226 0 0 1-4.895.136l-.23-.12-33.322-18.618a3.067 3.067 0 0 0-2.763-.115l-.187.092-12.276 6.609a1.083 1.083 0 1 1-1.124-1.845l.1-.061 12.276-6.609a5.226 5.226 0 0 1 4.79-.085zm-.076-7.669l.241.127 33.395 18.657a3.067 3.067 0 0 0 2.816.091l.19-.098 18.716-10.577 2.127 1.282-19.781 11.18a5.226 5.226 0 0 1-4.891.133l-.23-.12L29.824 10.74a3.067 3.067 0 0 0-2.684-.15l-.183.084-17.809 8.903a1.083 1.083 0 1 1-1.068-1.878l.103-.059L25.99 8.738a5.226 5.226 0 0 1 4.645-.014zM30.61.689l.226.119 33.437 19.014a3.067 3.067 0 0 0 2.816.09l.19-.098 12.136-6.86 2.128 1.284-13.202 7.46a5.226 5.226 0 0 1-4.891.134l-.23-.12L29.781 2.696a3.067 3.067 0 0 0-2.769-.112l-.187.093L2.47 15.867a1.083 1.083 0 1 1-1.129-1.842l.101-.062L25.797.774A5.226 5.226 0 0 1 30.609.69z" id="c"/><filter x="-8.5%" y="-10.7%" width="117.1%" height="142.6%" filterUnits="objectBoundingBox" id="b"><feOffset dy="4" in="SourceAlpha" result="shadowOffsetOuter1"/><feGaussianBlur stdDeviation="2" in="shadowOffsetOuter1" result="shadowBlurOuter1"/><feComposite in="shadowBlurOuter1" in2="SourceAlpha" operator="out" result="shadowBlurOuter1"/><feColorMatrix values="0 0 0 0 0 0 0 0 0 0.137254902 0 0 0 0 0.62745098 0 0 0 0.3 0" in="shadowBlurOuter1"/></filter><linearGradient x1="-13.203%" y1="21.496%" x2="124.79%" y2="74.107%" id="g"><stop stop-color="#41E2FE" offset="0%"/><stop stop-color="#9A90FF" offset="100%"/></linearGradient><path d="M1.144 9.216a1.08 1.08 0 0 1 1.479-.384l40.906 24.072a1.083 1.083 0 0 1-1.095 1.866L1.528 10.698a1.083 1.083 0 0 1-.384-1.482zM8.01 4.385l.112.059 40.602 24.308a1.083 1.083 0 0 1-.997 1.916l-.112-.058L7.012 6.3a1.083 1.083 0 0 1 .998-1.915zm6.578-3.3l.113.058L54.939 24.59a1.083 1.083 0 0 1-.974 1.927l-.113-.057L13.614 3.013a1.083 1.083 0 0 1 .974-1.927z" id="f"/><filter x="-14.7%" y="-11.8%" width="129.4%" height="147.2%" filterUnits="objectBoundingBox" id="e"><feOffset dy="4" in="SourceAlpha" result="shadowOffsetOuter1"/><feGaussianBlur stdDeviation="2" in="shadowOffsetOuter1" result="shadowBlurOuter1"/><feColorMatrix values="0 0 0 0 0 0 0 0 0 0.137254902 0 0 0 0 0.62745098 0 0 0 0.4 0" in="shadowBlurOuter1"/></filter><linearGradient x1="-13.203%" y1="-2.965%" x2="95.74%" y2="88.101%" id="j"><stop stop-color="#5EE9FF" offset="0%"/><stop stop-color="#828EFF" offset="100%"/></linearGradient><path d="M13.8 8.217l16.342 9.837a1 1 0 0 1-.014 1.721L6.33 33.588a1 1 0 0 0-.014 1.721l37.072 22.318-1.248 2.166L3.634 36.698a2.5 2.5 0 0 1 .031-4.306l22.98-13.335-15.333-9.395L13.8 8.217zM20.542 4.3L43.154 18.05a1 1 0 0 1-.018 1.72L18.598 34.012a.5.5 0 0 0-.007.861l37.797 22.754-1.248 2.166L14.454 35.39a1 1 0 0 1 .012-1.722l25.18-14.611L18.054 5.745 20.542 4.3zM27.337.352L54.61 16.746a2.5 2.5 0 0 1-.033 4.304L32.244 34.012a.5.5 0 0 0-.007.861l37.796 22.754-1.248 2.166L28.1 35.39a1 1 0 0 1 .013-1.722l24.45-14.189a.5.5 0 0 0 .01-.86L24.85 1.798 27.337.352z" id="i"/><filter x="-8%" y="-6.7%" width="119.4%" height="126.9%" filterUnits="objectBoundingBox" id="h"><feOffset dy="4" in="SourceAlpha" result="shadowOffsetOuter1"/><feGaussianBlur stdDeviation="2" in="shadowOffsetOuter1" result="shadowBlurOuter1"/><feColorMatrix values="0 0 0 0 0 0 0 0 0 0.137254902 0 0 0 0 0.62745098 0 0 0 0.3 0" in="shadowBlurOuter1"/></filter><linearGradient x1="19.628%" y1="51.001%" x2="205.729%" y2="44.868%" id="k"><stop stop-color="#00BAFB" offset="0%"/><stop stop-color="#0033EA" offset="100%"/></linearGradient><linearGradient x1="26.888%" y1="32.072%" x2="87.656%" y2="52.782%" id="m"><stop stop-color="#9AD9FF" offset="0%"/><stop stop-color="#43B7FE" offset="100%"/></linearGradient><linearGradient x1="53.194%" y1="45.849%" x2="36.102%" y2="62.116%" id="l"><stop stop-color="#FFF" stop-opacity="0" offset="0%"/><stop stop-color="#FFF" stop-opacity=".3" offset="100%"/></linearGradient><filter x="-17%" y="-29.3%" width="134%" height="158.7%" filterUnits="objectBoundingBox" id="n"><feGaussianBlur stdDeviation="9" in="SourceGraphic"/></filter><linearGradient x1="50%" y1="0%" x2="50%" y2="100%" id="o"><stop stop-color="#FFF" stop-opacity="0" offset="0%"/><stop stop-color="#2A4FFD" offset="100%"/></linearGradient><filter x="-.7%" y="-.7%" width="101.4%" height="101.4%" filterUnits="objectBoundingBox" id="p"><feGaussianBlur in="SourceGraphic"/></filter><linearGradient x1="1.265%" y1="42.024%" x2="143.643%" y2="54.763%" id="r"><stop stop-color="#5DDDFF" offset="0%"/><stop stop-color="#3B76FD" offset="100%"/></linearGradient><linearGradient x1="46.119%" y1="44.999%" x2="39.906%" y2="67.457%" id="q"><stop stop-color="#FFF" stop-opacity="0" offset="0%"/><stop stop-color="#FFF" stop-opacity=".502" offset="100%"/></linearGradient><linearGradient x1="23.814%" y1="-6.219%" x2="79.937%" y2="105.945%" id="s"><stop stop-color="#2146FC" offset="0%"/><stop stop-color="#3A88FF" offset="100%"/></linearGradient><linearGradient x1="33.241%" y1="4.041%" x2="66.54%" y2="106.611%" id="t"><stop stop-color="#34C4FF" offset="0%"/><stop stop-color="#5069FD" offset="76.077%"/><stop stop-color="#4E5FFF" offset="100%"/></linearGradient><linearGradient x1="43.84%" y1="41.523%" x2="55.023%" y2="84.454%" id="u"><stop stop-color="#00FFDA" stop-opacity="0" offset="0%"/><stop stop-color="#07F" offset="100%"/></linearGradient><linearGradient x1="52.878%" y1="40.535%" x2="55.845%" y2="94.717%" id="v"><stop stop-color="#00E2FF" stop-opacity="0" offset="0%"/><stop stop-color="#007AFF" offset="100%"/></linearGradient><linearGradient x1="50%" y1="0%" x2="50%" y2="83.124%" id="w"><stop stop-color="#76FCFF" offset="0%"/><stop stop-color="#82FFFD" stop-opacity="0" offset="100%"/></linearGradient><linearGradient x1="50%" y1="0%" x2="50%" y2="50%" id="x"><stop stop-color="#76FCFF" offset="0%"/><stop stop-color="#82FFFD" stop-opacity="0" offset="100%"/></linearGradient><linearGradient x1="50%" y1="-58.084%" x2="50%" y2="61.664%" id="y"><stop stop-color="#76FCFF" offset="0%"/><stop stop-color="#82FFFD" stop-opacity="0" offset="100%"/></linearGradient><linearGradient x1="50%" y1="0%" x2="50%" y2="100%" id="z"><stop stop-color="#769DFF" offset="0%"/><stop stop-color="#82FFFD" stop-opacity="0" offset="100%"/></linearGradient><linearGradient x1="50%" y1="0%" x2="50%" y2="100%" id="A"><stop stop-color="#76FCFF" offset="0%"/><stop stop-color="#82FFFD" stop-opacity="0" offset="100%"/></linearGradient><linearGradient x1="50%" y1="-16.788%" x2="50%" y2="50%" id="B"><stop stop-color="#76FCFF" offset="0%"/><stop stop-color="#82FFFD" stop-opacity="0" offset="100%"/></linearGradient><linearGradient x1="50%" y1="0%" x2="50%" y2="100%" id="C"><stop stop-color="#76FCFF" offset="0%"/><stop stop-color="#82FFFD" stop-opacity="0" offset="100%"/></linearGradient><linearGradient x1="38.492%" y1="0%" x2="68.75%" y2="57.76%" id="D"><stop stop-color="#9AD9FF" offset="0%"/><stop stop-color="#43B7FE" offset="100%"/></linearGradient><linearGradient x1="29.408%" y1="50%" x2="78.481%" y2="66.633%" id="E"><stop stop-color="#39F4E8" offset="0%"/><stop stop-color="#00CAC6" offset="100%"/></linearGradient><linearGradient x1="41.966%" y1="50%" x2="61.261%" y2="66.763%" id="F"><stop stop-color="#006452" offset="0%"/><stop stop-color="#008598" offset="100%"/></linearGradient><linearGradient x1="41.965%" y1="50%" x2="61.263%" y2="66.763%" id="G"><stop stop-color="#23C9AC" offset="0%"/><stop stop-color="#00A0B0" offset="100%"/></linearGradient><linearGradient x1="97.269%" y1="30.32%" x2="20.108%" y2="63.075%" id="H"><stop stop-color="#BFFFF8" offset="0%"/><stop stop-color="#9DF3FB" stop-opacity="0" offset="100%"/></linearGradient><linearGradient x1="59.704%" y1="11.136%" x2="72.835%" y2="57.76%" id="I"><stop stop-color="#418AF9" offset="0%"/><stop stop-color="#3BA2F0" offset="100%"/></linearGradient><linearGradient x1="24.113%" y1="50%" x2="86.285%" y2="66.763%" id="J"><stop stop-color="#23C9AC" offset="0%"/><stop stop-color="#00A0B0" offset="100%"/></linearGradient><linearGradient x1="75.452%" y1="154.593%" x2="43.188%" y2="0%" id="K"><stop stop-color="#418AF9" offset="0%"/><stop stop-color="#5EB8FF" offset="94.565%"/><stop stop-color="#3BA2F0" offset="100%"/></linearGradient><linearGradient x1="-10.907%" y1="25.504%" x2="87.747%" y2="55.791%" id="L"><stop stop-color="#BFFFF8" offset="0%"/><stop stop-color="#9DF3FB" stop-opacity="0" offset="100%"/></linearGradient><filter x="-14.5%" y="-24.6%" width="129%" height="149.3%" filterUnits="objectBoundingBox" id="M"><feGaussianBlur stdDeviation="4.82" in="SourceGraphic"/></filter><linearGradient x1="11.675%" y1="54.239%" x2="96.075%" y2="48.278%" id="N"><stop stop-color="#98BBE6" offset="0%"/><stop stop-color="#8AB9FF" offset="100%"/></linearGradient><linearGradient x1="106.89%" y1="53.272%" x2="-12.613%" y2="57.894%" id="O"><stop stop-color="#F3D07B" offset="0%"/><stop stop-color="#F28B5D" offset="100%"/></linearGradient><filter x="-3.6%" y="-6.1%" width="107.2%" height="112.2%" filterUnits="objectBoundingBox" id="P"><feGaussianBlur stdDeviation="2" in="SourceGraphic"/></filter><linearGradient x1="9.592%" y1="52.449%" x2="92.431%" y2="51.532%" id="Q"><stop stop-color="#85D2FF" offset="0%"/><stop stop-color="#4394F6" offset="100%"/></linearGradient><linearGradient x1="26.093%" y1="50%" x2="117.665%" y2="52.563%" id="R"><stop stop-color="#F4FAFD" offset="0%"/><stop stop-color="#D7EDFF" offset="100%"/></linearGradient><linearGradient x1="0%" y1="50%" x2="100%" y2="50%" id="S"><stop stop-color="#DFEEFF" offset="0%"/><stop stop-color="#BBE1FF" offset="100%"/></linearGradient><linearGradient x1="31.475%" y1="58.989%" x2="63.225%" y2="9.073%" id="T"><stop stop-color="#86A7EA" offset="0%"/><stop stop-color="#82B6F0" offset="100%"/></linearGradient><linearGradient x1="2.085%" y1="37.892%" x2="114.073%" y2="50%" id="U"><stop stop-color="#3ACFF7" offset="0%"/><stop stop-color="#4847FC" offset="100%"/></linearGradient><filter x="-7.9%" y="-13.3%" width="115.7%" height="126.7%" filterUnits="objectBoundingBox" id="V"><feGaussianBlur stdDeviation="3.84" in="SourceGraphic"/></filter><linearGradient x1="9.592%" y1="52.431%" x2="92.431%" y2="51.52%" id="W"><stop stop-color="#85D2FF" offset="0%"/><stop stop-color="#4394F6" offset="100%"/></linearGradient><linearGradient x1="-41.628%" y1="50%" x2="115.87%" y2="45.673%" id="X"><stop stop-color="#53A0FD" offset="0%"/><stop stop-color="#B4EC51" offset="100%"/></linearGradient></defs><g fill="none" fill-rule="evenodd"><path d="M85.884 268.782L228.074 184l145.04 84.646a4 4 0 0 1 .016 6.9l-139.423 82.273a4 4 0 0 1-4.018.028L85.95 275.69a4 4 0 0 1-.065-6.908z" fill="#316ADA" opacity=".403" filter="url(#a)" transform="translate(4 1)"/><g transform="translate(298.219 159.884)"><use fill="#000" filter="url(#b)" xlink:href="#c"/><use fill-opacity=".8" fill="url(#d)" xlink:href="#c"/></g><g transform="translate(295.399 264.085)"><use fill="#000" filter="url(#e)" xlink:href="#f"/><use fill="url(#g)" xlink:href="#f"/></g><g transform="translate(86 142)"><use fill="#000" filter="url(#h)" xlink:href="#i"/><use fill="url(#j)" xlink:href="#i"/></g><path d="M145.149 7.222l141.526 82.896-.841-2.831 6.46 1.216.001 6.8a4 4 0 0 1-1.94 3.854L152.79 180.63a8 8 0 0 1-8.046.063L2.505 99.413a4.002 4.002 0 0 1-1.965-4.11l-.034-6.29 6.482.772 138.16-82.563z" fill="url(#k)" fill-rule="nonzero" transform="translate(87 136)"/><path d="M2.807 85.678L145.149.133h0l145.189 85.042a4 4 0 0 1 .016 6.893l-137.566 81.467a8 8 0 0 1-8.043.064L2.884 92.579a4 4 0 0 1-.077-6.901z" stroke="url(#l)" fill="url(#m)" transform="translate(87 136)"/><path fill="#2B63DC" opacity=".407" filter="url(#n)" d="M151 239.237L229.535 193 310 238.763 231.465 285z" transform="translate(4 1)"/><path stroke="url(#o)" fill="#0F6FFF" opacity=".3" filter="url(#p)" d="M.478 175.388l69.644-41.211 71.356 40.788-69.644 41.212z" transform="translate(164 42)"/><path stroke="url(#q)" fill="url(#r)" d="M.898 41.98L69.751.801l70.897 40.756-68.742 41.82z" transform="translate(164 42)"/><path fill="url(#s)" d="M72.052 83l68.79-41.296v82.614l-68.79 40.447z" transform="translate(164 42)"/><path fill="url(#t)" d="M.925 41.892L72.052 83l.01 81.765L.937 123.657z" transform="translate(164 42)"/><path fill="url(#u)" opacity=".8" d="M71.85 133.982l69.057-40.507v82.614L71.85 216.596z" transform="translate(164 42)"/><path fill="url(#v)" opacity=".6" d="M.925 94.047l70.93 40.712.01 81.765L.937 175.812z" transform="translate(164 42)"/><g opacity=".8" transform="translate(180.03 184.742)"><rect fill="url(#w)" x="68.912" y="20.383" width="2.074" height="19.612" rx="1.037"/><rect fill="url(#x)" opacity=".5" x="12" y="19" width="2.074" height="16.612" rx="1.037"/><rect fill="url(#y)" x="80.206" y="37.804" width="2.074" height="16.612" rx="1.037"/><rect fill="url(#z)" x="37" y="37" width="2.074" height="16.612" rx="1.037"/><rect fill="url(#A)" x="87.463" y="13" width="2.074" height="16.612" rx="1.037"/><rect fill="url(#B)" x="101.015" y="21.306" width="2.074" height="16.612" rx="1.037"/><rect fill="url(#A)" width="2.074" height="16.612" rx="1.037"/><rect fill="url(#C)" x="28" y="15" width="2.074" height="21.612" rx="1.037"/></g><g><path d="M74.213.48l.11.062.82.4a29.589 29.589 0 0 0 6.79 2.103c2.194.387 4.423.53 6.646.428l.667-.038.515-.034c.45.028.87.23 1.173.563l.108.13.591.678c.044.045.077.093.12.142a86.43 86.43 0 0 0 7.315 8.014 39.466 39.466 0 0 0 6.876 5.8l.038.026.038.026.635.423a3.183 3.183 0 0 1 1.285 2.196l.018.204v23.82c0 2.185-.857 3.9-2.195 5.233-1.698 2.171-4.755 4.902-10.057 6.628a73.805 73.805 0 0 1-.048-2.597c-2.561.288-4.67.134-5.262-.217-1.94-1.15-17.048-19.89-17.35-29.242l-.004-.28-.001-17.7-5.222-2.42L73.217.582l.02.095a.829.829 0 0 1 .975-.2z" fill="url(#D)" transform="translate(111 113)"/><path d="M211.882 135.7c-.022-.018-.054-.035-.076-.051a39.572 39.572 0 0 1-6.876-5.801 86.114 86.114 0 0 1-7.314-8.015c-.044-.048-.077-.095-.12-.14l-.592-.678a1.731 1.731 0 0 0-1.281-.693l-.515.032c-2.444.168-4.9.037-7.314-.39a29.56 29.56 0 0 1-6.788-2.103l-.821-.4a.829.829 0 0 0-.937.006.85.85 0 0 0-.344.88v23.518c0 9.252 15.394 28.362 17.354 29.522 1.796 1.065 17.562.32 17.562-9.047v-23.817a3.185 3.185 0 0 0-1.303-2.4l-.635-.422z" fill="#FCFEFF"/><path d="M27.739 15.562c-.022-.016-.055-.03-.077-.044a33.265 33.265 0 0 1-5.76-4.87 72.866 72.866 0 0 1-6.142-6.736 3.726 3.726 0 0 0-.098-.118l-.504-.57a1.436 1.436 0 0 0-1.073-.584l-.427.027a25.453 25.453 0 0 1-6.153-.339A25.183 25.183 0 0 1 1.789.55L1.11.217a.7.7 0 0 0-.79.002.718.718 0 0 0-.294.74v19.765c0 7.775 12.953 23.82 14.596 24.797 1.5.892 14.737.251 14.737-7.604V17.934a2.681 2.681 0 0 0-1.095-2.014l-.525-.358z" transform="translate(181.636 121.792)" fill="url(#E)" opacity=".8"/><path d="M83.856 22.954a7.766 7.766 0 0 1 3.471 6.08c0 1.879-1.091 2.824-2.573 2.425V34l2.19 1.274c.53.351.863.936.898 1.576a.556.556 0 0 1-.26.592.543.543 0 0 1-.638-.063l-2.19-1.275v4.364a.556.556 0 0 1-.26.592.543.543 0 0 1-.638-.063 1.997 1.997 0 0 1-.897-1.577l-.01-9.044a7.765 7.765 0 0 1-2.574-5.383c0-2.242 1.554-3.156 3.481-2.04z" fill="url(#F)" transform="translate(111 113)"/><path d="M82.948 23.258a7.746 7.746 0 0 1 3.482 6.08c0 1.878-1.092 2.824-2.573 2.424l-.001 2.543 2.19 1.277c.53.352.863.937.898 1.577a.556.556 0 0 1-.26.592.543.543 0 0 1-.638-.063l-2.19-1.274v4.358a.556.556 0 0 1-.26.591.543.543 0 0 1-.637-.063 2.002 2.002 0 0 1-.91-1.575V30.68a7.765 7.765 0 0 1-2.572-5.383c0-2.242 1.555-3.155 3.47-2.04z" fill="url(#G)" transform="translate(111 113)"/><path d="M74.918 21.547L.928 60.046 32.622 89.12l58.183-46.348c5.036-10.828-7.292-27.471-15.887-21.226z" fill="url(#H)" opacity=".8" transform="translate(111 113)"/><path d="M193.837 133.811c5.332 3.1 9.657 10.643 9.657 16.858s-4.325 8.746-9.657 5.646c-5.333-3.1-9.657-10.642-9.657-16.858 0-6.216 4.324-8.74 9.657-5.646zm0 .601c5.047 2.93 9.142 10.074 9.142 15.958s-4.095 8.279-9.142 5.35c-5.048-2.93-9.143-10.075-9.143-15.96 0-5.885 4.095-8.278 9.143-5.348z" fill="#FFF"/><path d="M187.004 141.453c4.406 2.896 7.18 7.744 7.468 13.05 0 4.81-3.34 6.767-7.468 4.37-4.409-2.893-7.185-7.743-7.467-13.05 0-4.81 3.34-6.767 7.467-4.37zm0 .601c4.102 2.697 6.685 7.21 6.953 12.15 0 4.478-3.11 6.3-6.953 4.068-4.105-2.693-6.689-7.209-6.952-12.15 0-4.478 3.11-6.3 6.952-4.068z" fill="#FFF"/></g><g><path d="M29.209 19.063l5.788 1.972a2 2 0 0 1 1.355 1.892l.01 20.926a2 2 0 0 1-2.978 1.745l-2.836-1.588a2 2 0 0 1-.237-.155c-.103.26-.263.498-.47.696L9.056 64.39l-6.889-3.059a2 2 0 0 1-1.188-1.84l.135-21.501a5 5 0 0 1 2.425-4.255l23.588-14.172a1.991 1.991 0 0 1 2.08-.501z" fill="url(#I)" transform="translate(256 119)"/><path d="M265.505 155.927l24.464-14.797a2 2 0 0 1 3.035 1.712v22.754a2 2 0 0 1-.965 1.711l-25.91 15.672a2 2 0 0 1-3.036-1.712v-21.062a5 5 0 0 1 2.412-4.278z" fill="#ACD2FF"/><path d="M11.533 38.145l23.395-13.943.194 21.454a2 2 0 0 1-1 1.75L9.094 61.86V42.44a5 5 0 0 1 2.44-4.295z" fill="url(#J)" opacity=".8" transform="translate(256 119)"/><path d="M27.15 7.431l-.002 13.99.002.045c0 .804.043 1.655-.727 2.137l-.154.086c-.929.462-1.737.385-1.798-.525h-.001v-.132c-.003-.226-.012-.45 0-.663V10.752c.14-7.77-2.475-8.59-6.19-5.015-3.616 3.477-5.913 8.67-6.034 13.629l-.006.412-.001 11.11.001.016c0 .807-.03 1.885-.906 2.437l-.163.091c-.99.494-2.144.48-2.296-.318l-.01-.078-.004.003-.001-.036V19c0-6.516 4.092-14.385 9.15-17.582 5.048-3.194 9.14-.502 9.14 6.013z" fill="url(#K)" transform="translate(256 119)"/><path d="M278.213 157.333c2.457-1.44 4.447-.226 4.447 2.71-.13 3.17-1.775 6.1-4.447 7.923-2.446 1.44-4.436.226-4.436-2.71.13-3.167 1.77-6.095 4.436-7.923z" fill="#F3E7FF"/><path d="M29.616 37.51L71.99 55.844 56.402 78.892l-38.76-26.915c-3.79-7.38 5.493-18.724 11.974-14.467z" fill="url(#L)" opacity=".7" transform="translate(256 119)"/><path d="M286.16 159.457c-4.184 1.858-7.195 5.556-8.093 9.94-.556 3.972 2.146 5.96 6.06 4.443 4.182-1.86 7.189-5.558 8.082-9.94.567-3.972-2.146-5.961-6.048-4.443zm-.077.495c-3.893 1.732-6.694 5.175-7.527 9.255-.522 3.697 2.002 5.55 5.637 4.136 3.894-1.731 6.694-5.174 7.527-9.254.522-3.698-2.001-5.55-5.637-4.137z" fill="#C6F8FF"/><path d="M291.909 164.618c-3.567 1.52-6.142 4.64-6.893 8.352-.456 3.357 1.9 5.058 5.247 3.801 3.572-1.516 6.152-4.637 6.904-8.352.445-3.357-1.9-5.057-5.258-3.801zm-.056.419c-3.322 1.412-5.72 4.318-6.415 7.775-.422 3.125 1.768 4.709 4.88 3.54 3.326-1.412 5.727-4.318 6.427-7.776.422-3.126-1.768-4.71-4.892-3.54z" fill="#C6F8FF"/></g><g opacity=".9"><path d="M98.453 29.996L68.178 11.748a7.974 7.974 0 0 0-7.36-.027l-58.9 34.284c-2.052 1.191-2.088 3.14-.08 4.35l30.275 18.247a7.956 7.956 0 0 0 7.352.027l58.908-34.275c2.052-1.2 2.088-3.15.08-4.358z" fill="#2E5FC9" opacity=".7" filter="url(#M)" transform="translate(312 275.756)"/><path d="M98.453 22.879L68.178 4.634a7.96 7.96 0 0 0-7.36-.024l-58.9 34.278c-2.052 1.191-2.088 3.14-.08 4.35l30.275 18.247a7.956 7.956 0 0 0 7.352.027l58.908-34.274c2.052-1.2 2.088-3.15.08-4.36z" fill="url(#N)" transform="translate(312 275.756)"/><path fill="#8AB9FF" d="M411.936 300.82v-2.877h-1.742l.079 2.77z"/><path fill="#98BBE6" d="M312.355 316.806v-2.875l1.286-.073.378 2.782z"/><path d="M410.453 295.71l-30.275-18.244a7.96 7.96 0 0 0-7.36-.024l-58.9 34.278c-2.052 1.191-2.088 3.14-.08 4.35l30.275 18.247a7.956 7.956 0 0 0 7.352.027l58.908-34.275c2.052-1.2 2.088-3.15.08-4.359z" fill="#FFF"/><path fill="url(#O)" d="M95.14 23.973L61.223 3.541 10.383 33.124l33.915 20.44z" transform="translate(312 275.756)"/><path d="M336.1 321.412a4.652 4.652 0 0 0-4.292-.018c-1.195.695-1.222 1.832-.053 2.545a4.652 4.652 0 0 0 4.292.009c1.195-.695 1.222-1.832.053-2.536z" fill="#C7DEE1"/></g><g><path fill="#FFF" d="M322.514 303.145l33.906 20.422 54.553-31.766-33.906-20.413z"/><path fill="#6897FD" d="M362.728 284.04l26.634 16.046 14.875-8.664-26.635-16.042z"/><path fill="#E1E9E9" d="M357.767 286.928l26.634 16.045 1.865-1.083-26.643-16.045zM352.03 298.154l19.978 12.03 1.856-1.083-19.978-12.03zM352.806 289.816l14.526 8.754 1.865-1.083-14.535-8.754zM339.788 297.396l26.634 16.037 1.865-1.083-26.643-16.037zM333.587 301.006l14.526 8.745 1.865-1.083-14.535-8.745z"/><path fill="#ECAB2C" d="M344.124 294.87l5.452 3.284 4.961-2.887-5.452-3.285z"/><path fill="#C3F8FF" opacity=".4" d="M374.23 290.971l15.338-1.047-2.026 9.06"/><path d="M393.833 291.025a2.65 2.65 0 0 0 2.453.01.772.772 0 0 0 .518-.718.772.772 0 0 0-.49-.736 2.676 2.676 0 0 0-2.455-.009.772.772 0 0 0-.517.717c-.006.326.19.62.49.736zM362.728 284.04l19.014-1.029-2.07 11.236z" fill="#C3F8FF"/></g><g opacity=".5"><path d="M166.082 150.34L61.555 88.601a8.404 8.404 0 0 0-7.723-.031l-51.519 29.68c-2.162 1.244-2.202 3.276-.1 4.538l104.536 62.653a8.401 8.401 0 0 0 7.723.032l51.52-30.601c2.151-1.244 2.202-3.275.09-4.534z" fill="#2E5FC9" opacity=".8" filter="url(#P)" transform="translate(332 30)"/><path d="M166.73 142.944L64.919 82.432a8.136 8.136 0 0 0-7.523-.03L4.942 113.79c-2.102 1.219-2.152 3.21-.1 4.444l101.81 61.41a8.121 8.121 0 0 0 7.513.03l52.464-32.286c2.102-1.217 2.152-3.208.1-4.444z" fill="url(#Q)" transform="translate(332 30)"/><path fill="#3395D3" d="M500.238 175.198v-3.84l-3.321 2.038.59.875z"/><path fill="#B9EFFF" d="M335.334 145.847v-3.588l3.073-.609v3.974z"/><path d="M163.719 62.188L61.907 1.678a8.136 8.136 0 0 0-7.522-.032L1.931 33.033c-2.102 1.22-2.152 3.211-.1 4.444l101.81 61.409a8.115 8.115 0 0 0 7.513.03l52.464-32.285c2.102-1.215 2.152-3.207.1-4.443z" fill="url(#R)" transform="translate(335.011 106.927)"/><path d="M476.234 171.283l-8.367-4.941-4.707 2.67 8.367 4.942 4.707-2.67zm-12.31-7.271l-8.356-4.942-4.707 2.671 8.367 4.942 4.697-2.671zm-12.288-7.26l-8.357-4.941-4.707 2.671 8.367 4.942 4.697-2.672zm-12.3-7.271l-8.366-4.942-4.707 2.671 8.367 4.941 4.707-2.67zm-12.308-7.272l-8.357-4.941-4.707 2.671 8.367 4.942 4.697-2.672zm-12.29-7.26l-8.356-4.94-4.707 2.67 8.367 4.942 4.697-2.671zm-12.298-7.27l-8.367-4.942-4.707 2.671 8.367 4.942 4.707-2.672zm65.326 48.4l-8.367-4.942-4.696 2.671 8.357 4.942 4.706-2.672zm-12.299-7.272l-8.367-4.942-4.706 2.672 8.367 4.94 4.706-2.67zm-12.289-7.26l-8.367-4.941-4.706 2.671 8.367 4.94 4.706-2.67zm-12.309-7.271l-8.367-4.94-4.696 2.67 8.357 4.941 4.706-2.671zm-12.299-7.272l-8.367-4.941-4.706 2.671 8.367 4.942 4.706-2.672zm-12.289-7.259l-8.367-4.942-4.706 2.672 8.367 4.941 4.706-2.67zm-12.309-7.271l-8.367-4.942-4.696 2.671 8.357 4.94 4.706-2.67zm65.337 48.4l-8.367-4.942-4.707 2.671 8.367 4.942 4.707-2.671zm-12.31-7.272l-8.366-4.94-4.697 2.67 8.357 4.941 4.707-2.671zm-12.288-7.26l-8.367-4.94-4.697 2.671 8.357 4.94 4.707-2.67zm-12.3-7.27l-8.366-4.942-4.707 2.67 8.367 4.942 4.707-2.67zm-12.308-7.272l-8.367-4.942-4.697 2.671 8.357 4.94 4.707-2.67zm-12.29-7.26l-8.366-4.941-4.697 2.67 8.357 4.941 4.707-2.67zm-12.298-7.271l-8.367-4.94-4.707 2.67 8.367 4.941 4.707-2.671zm66.271 47.864l-8.366-4.941-4.707 2.671 8.367 4.942 4.706-2.672zm-12.309-7.271l-8.356-4.94-4.707 2.67 8.357 4.941 4.706-2.671zm-12.289-7.26l-12.299-7.271-4.706 2.671 12.31 7.272 4.695-2.671zm-12.299-7.271l-8.367-4.942-4.706 2.672 8.367 4.941 4.706-2.671zm-8.367-4.942l-12.299-7.271-4.706 2.671 12.3 7.272 4.705-2.672zm-16.23-9.586l-8.357-4.941-4.707 2.67 8.367 4.941 4.696-2.67zm-12.3-7.271l-8.367-4.941-4.706 2.67 8.367 4.942 4.706-2.671z" fill="#65A0D0"/><path d="M476.234 170.518l-8.367-4.94-4.707 2.67 8.367 4.941 4.707-2.671zm-12.31-7.272l-8.356-4.941-4.707 2.67 8.367 4.942 4.697-2.67zm-12.288-7.26l-8.357-4.94-4.707 2.67 8.367 4.942 4.697-2.671zm-12.3-7.27l-8.366-4.941-4.707 2.671 8.367 4.94 4.707-2.67zm-12.308-7.272l-8.357-4.942-4.707 2.671 8.367 4.942 4.697-2.671zm-12.29-7.249l-8.356-4.941-4.707 2.671 8.367 4.942 4.697-2.672zm-12.298-7.271l-8.367-4.942-4.707 2.672 8.367 4.94 4.707-2.67zm65.326 48.4l-8.367-4.942-4.696 2.672 8.357 4.941 4.706-2.671zm-12.299-7.272l-8.367-4.941-4.706 2.671 8.367 4.94 4.706-2.67zm-12.289-7.259l-8.367-4.942-4.706 2.672 8.367 4.94 4.706-2.67zm-12.309-7.271l-8.367-4.941-4.696 2.67 8.357 4.942 4.706-2.671zm-12.299-7.272l-8.367-4.942-4.706 2.672 8.367 4.941 4.706-2.671zm-12.289-7.26l-8.367-4.941-4.706 2.671 8.367 4.942 4.706-2.671zm-12.309-7.27l-8.367-4.941-4.696 2.67 8.357 4.941 4.706-2.67zm65.337 48.4l-8.367-4.941-4.707 2.67 8.367 4.942 4.707-2.67zm-12.31-7.271l-8.366-4.941-4.697 2.67 8.357 4.942 4.707-2.671zm-12.288-7.26l-8.367-4.94-4.697 2.67 8.357 4.941 4.707-2.67zm-12.3-7.271l-8.366-4.942-4.707 2.671 8.367 4.942 4.707-2.671zm-12.308-7.272l-8.367-4.941-4.697 2.67 8.357 4.941 4.707-2.67zm-12.29-7.26l-8.366-4.94-4.697 2.67 8.357 4.941 4.707-2.67zm-12.298-7.27l-8.367-4.942-4.707 2.671 8.367 4.942 4.707-2.672zm66.271 47.864l-8.366-4.942-4.707 2.672 8.367 4.94 4.706-2.67zm-12.309-7.271l-8.356-4.941-4.707 2.67 8.357 4.942 4.706-2.671zm-12.289-7.26l-12.299-7.271-4.706 2.67 12.31 7.272 4.695-2.67zm-12.299-7.271l-8.367-4.942-4.706 2.671 8.367 4.942 4.706-2.671zm-8.367-4.942l-12.299-7.272-4.706 2.672 12.3 7.271 4.705-2.671zm-16.23-9.586l-8.357-4.942-4.707 2.671 8.367 4.941 4.696-2.67zm-12.3-7.272l-8.367-4.941-4.706 2.67 8.367 4.942 4.706-2.67z" fill="#ACDDF0"/><g><path d="M4.214 2.596l103.762 60.237a8.605 8.605 0 0 1 3.851 6.728v69.038c0 2.48-1.73 3.47-3.851 2.213L4.214 79.49C1.989 77.99.8 75.525.665 72.837V4.847c0-2.448 1.477-3.456 3.549-2.25z" fill="url(#S)" transform="translate(390.322 30)"/><path d="M1.616 2.344l1.534-.912a4 4 0 0 1 4.075-.007L111.57 62.948a4 4 0 0 1 1.969 3.438l.144 70.154a4.575 4.575 0 0 1-1.956 3.76l-1.036.724-.007-74.067a2 2 0 0 0-.994-1.729L1.616 2.344z" fill="url(#T)" transform="translate(390.322 30)"/><path fill="url(#U)" d="M3.678 7.745l104.014 60.573v66.86L3.678 73.65z" transform="translate(390.322 30)"/></g><g><path fill="#FFF" d="M410.192 59.241l71.283 41.083v55.411l-71.283-41.763z"/><path fill="#D4EBEF" d="M427.203 77.49l39.555 22.856v3.037l-39.555-22.88zM431.864 88.026l34.375 19.911v1.823l-34.375-19.923v-1.811zm0 4.226l18.698 10.845v1.817l-18.698-10.852V92.25v.002zM431.864 99.497l34.375 19.98v1.824l-34.375-19.99v-1.814zm0 4.226l23.91 13.917v1.82l-23.91-13.926v-1.811zM431.864 111.574l34.375 20.052v1.822l-34.375-20.063v-1.81zm0 4.226l16.612 9.705v1.816l-16.612-9.71v-1.81z"/><path fill="#D4EBEF" opacity=".4" d="M468.86 101.557l10.505 6.073v8.52l-10.504-6.086zM468.86 113.71l10.505 6.093v8.521l-10.504-6.11z"/><path fill="#5EC2FB" d="M427.203 85.329l3.622 2.097v4.226l-3.622-2.1z"/><path fill="#77BD8C" d="M427.203 96.79l3.622 2.105v4.225l-3.622-2.107z"/><path fill="#ECAB2C" d="M427.203 108.855l3.622 2.112v4.225l-3.622-2.115v-4.223z"/><path fill="#F5F7F7" d="M410.192 59.241l71.283 41.083v5.48l-71.283-41.15z"/><path fill="#D5EBEF" opacity=".8" d="M410.192 64.651l11.847 6.838v49.42l-11.847-6.94z"/></g></g><g opacity=".7"><path d="M145.172 44.363l-55.63-33.567a8.685 8.685 0 0 0-8.04-.034L2.168 56.852c-2.242 1.302-2.287 3.44-.092 4.76L57.697 95.18a8.685 8.685 0 0 0 8.04.035l79.334-46.09c2.25-1.305 2.297-3.437.1-4.761z" fill="#2E5FC9" opacity=".6" filter="url(#V)" transform="translate(4 80)"/><path d="M144.39 37.284L88.77 3.718a8.688 8.688 0 0 0-8.04-.035L2.25 50.64C0 51.941-.036 54.08 2.16 55.4l54.766 32.696c3.362 2.655 5.09 1.846 8.039.035l79.334-46.09c2.242-1.3 2.288-3.433.092-4.757z" fill="url(#W)" transform="translate(4 80)"/><path d="M150.01 119.69v-2.637l-1.689-.251c-.288 1.736-.432 2.632-.432 2.687 0 .056.707.123 2.12.202z" fill="#4394F6"/><path fill="#85D2FF" d="M4.537 133.081v-2.683l1.36.071.28 3.004z"/><path d="M148.39 114.679L92.77 81.112a8.685 8.685 0 0 0-8.04-.033L6.25 128.035c-2.25 1.302-2.287 3.44-.09 4.76l54.766 32.697c3.362 2.656 5.09 1.846 8.039.034l79.334-46.09c2.242-1.3 2.288-3.433.092-4.757z" fill="#FFF"/><path d="M40.897 144.58a5.058 5.058 0 0 0-4.686-.02c-1.313.762-1.341 2.005-.055 2.778a5.06 5.06 0 0 0 4.686.02c1.314-.762 1.341-2.005.055-2.778z" fill="#C7DEE1"/><path fill="url(#X)" opacity=".8" d="M139.928 38L82.92 3.26 15.548 43.93l55.225 34.25z" transform="translate(4 80)"/></g><g opacity=".9"><path fill="#FFF" d="M143.52 111.46L87.76 77.657l-68.409 39.93 55.751 33.802z"/><path fill="#EAECEC" d="M124.51 112.043l-23.74-14.391-1.696.99 23.74 14.391zM83.184 138.793l-42.51-25.77-1.696.99 42.509 25.77zM72.574 138.416l-36.99-22.424-1.697.99 36.99 22.424zM119.985 114.685l-23.74-14.391-1.697.99 23.74 14.39zM101.662 108.958l-9.933-6.025-1.697.99 9.933 6.025z"/><path d="M74.913 105.522l-4.97-3.012-17.527 10.23 4.971 3.013 17.526-10.23zm3.737 8.324l-4.962-3.011-12.444 7.26 4.97 3.012 12.436-7.26zm4.311 7.996L78 118.829l-7.92 4.62 4.972 3.013 7.91-4.62zm11.099 4.035l-4.971-3.013-10.739 6.27 4.963 3.012 10.747-6.27zM81.084 89.662a12.31 12.31 0 0 1 11.433.021l-.324-.164-6.078 3.546 4.31 4.218a12.308 12.308 0 0 1-9.52-.822c-3.103-1.885-3.026-4.928.18-6.8z" fill="#77A8E6"/><path d="M93.4 89.519l.317.16c3.111 1.883 3.025 4.93-.18 6.798-.621.324-1.262.592-1.916.803l-4.306-4.213L93.4 89.52z" fill="#8FD389"/><path d="M73.397 97.206l-.549-.334-24.314 14.19.557.334 24.306-14.19zm16 37.957l-39.74-24.097-.566.33 39.74 24.097.567-.33z" fill="#E0E6E7"/></g></g></svg>