<svg xmlns="http://www.w3.org/2000/svg" viewBox="0 0 74 74"><g fill="none" fill-rule="evenodd"><circle cx="37" cy="37" r="36.5" stroke="#467DF6"/><path fill="#FFF" d="M37 8c2.736 0 5.044 3.44 6.637 8.976 6.059-3.006 11.288-3.563 14.016-.836 2.747 2.748 2.161 8.032-.902 14.146C62.447 31.88 66 34.219 66 37c0 2.78-3.553 5.119-9.248 6.714 3.062 6.114 3.648 11.398.9 14.146-2.727 2.727-7.956 2.17-14.014-.836C42.044 62.56 39.736 66 37 66c-2.817 0-5.18-3.646-6.777-9.472-5.874 2.82-10.92 3.287-13.583.625-2.642-2.643-2.201-7.634.563-13.452C11.533 42.106 8 39.773 8 37c0-2.773 3.534-5.106 9.202-6.702-2.763-5.817-3.204-10.808-.562-13.45 2.663-2.663 7.71-2.195 13.583.625C31.82 11.646 34.183 8 37 8zm-.348 44.72l-.54.373a48.796 48.796 0 0 1-4.062 2.496C33.37 60.765 35.177 64 37 64c1.767 0 3.518-3.038 4.826-7.935a51.651 51.651 0 0 1-5.174-3.345zm18.107-8.497l-.026.006c-2.696.622-5.77 1.096-9.107 1.397-.312 3.463-.81 6.644-1.469 9.413 5.456 2.803 10.018 3.47 12.081 1.406 2.082-2.08 1.385-6.703-1.48-12.222zm-35.576-.014l-.047.096c-2.527 5.168-3.063 9.452-1.081 11.433 2.011 2.012 6.397 1.429 11.672-1.2-.6-2.648-1.06-5.656-1.353-8.912-3.37-.304-6.475-.784-9.191-1.417zm24.248 3.035l-.19.174a67.111 67.111 0 0 1-4.878 4.06 51.344 51.344 0 0 0 3.956 2.555 67.1 67.1 0 0 0 1.112-6.79zm-12.803.49l.038.318a67.02 67.02 0 0 0 .91 5.502 48.724 48.724 0 0 0 3.386-2.112 68.827 68.827 0 0 1-4.334-3.708zm.919-1.88l.225.212a65.95 65.95 0 0 0 4.903 4.162 64.467 64.467 0 0 0 5.283-4.349c-1.61.08-3.266.121-4.958.121-1.865 0-3.688-.05-5.453-.146zM37 30a93.14 93.14 0 0 0-6.757.243A92.966 92.966 0 0 0 30 37c0 2.331.085 4.596.243 6.757 2.161.158 4.426.243 6.757.243a93.14 93.14 0 0 0 6.757-.243C43.915 41.596 44 39.331 44 37a93.14 93.14 0 0 0-.243-6.757A92.966 92.966 0 0 0 37 30zm14.349 8.683l-.43.546a69.2 69.2 0 0 1-3.635 4.197 67.95 67.95 0 0 0 6.458-1.043 50.742 50.742 0 0 0-2.393-3.7zm-28.92.037l-.1.142a48.42 48.42 0 0 0-2.172 3.5c1.866.405 3.933.75 6.153 1.017a67.728 67.728 0 0 1-3.882-4.66zm5.715-7.136l-.026.03A64.881 64.881 0 0 0 23.65 37a64.915 64.915 0 0 0 4.493 5.416A100.006 100.006 0 0 1 28 37c0-1.852.05-3.663.144-5.416zm17.732.414l.03.593a101.274 101.274 0 0 1-.029 9.413A66.045 66.045 0 0 0 50.112 37a65.987 65.987 0 0 0-4.236-5.002zm9.907.101l-.006.013a51.817 51.817 0 0 1-3.16 4.887 51.946 51.946 0 0 1 3.167 4.901C60.846 40.584 64 38.8 64 37c0-1.8-3.155-3.584-8.217-4.9zm-37.652.024l-.09.022C13.082 33.457 10 35.221 10 37c0 1.79 3.119 3.564 8.13 4.878a49.616 49.616 0 0 1 3.041-4.877 49.856 49.856 0 0 1-3.04-4.878zm29.153-1.55l.318.343a68.33 68.33 0 0 1 3.747 4.4 51.012 51.012 0 0 0 2.394-3.7 68 68 0 0 0-6.46-1.043zm-20.972.048l-.018.002a66.969 66.969 0 0 0-6.136 1.015 48.464 48.464 0 0 0 2.27 3.643 67.256 67.256 0 0 1 3.884-4.66zm-8.257-12.36c-1.994 1.994-1.44 6.319 1.128 11.529 2.716-.631 5.82-1.112 9.191-1.416.293-3.256.752-6.264 1.353-8.914-5.275-2.627-9.66-3.21-11.672-1.198zm26.102.7c.658 2.768 1.157 5.95 1.469 9.413 3.347.301 6.43.778 9.133 1.403 2.864-5.519 3.56-10.141 1.48-12.222-2.064-2.064-6.626-1.397-12.082 1.406zm-7.48 4.811l-.31.238a66.4 66.4 0 0 0-4.82 4.136 101.35 101.35 0 0 1 10.413-.026 65.181 65.181 0 0 0-5.283-4.348zm5.643-3.806l-.058.034a50.974 50.974 0 0 0-3.896 2.523 67.716 67.716 0 0 1 5.065 4.234 67.338 67.338 0 0 0-1.111-6.79zm-10.744.48l-.017.082a67.78 67.78 0 0 0-.933 5.739 68.57 68.57 0 0 1 4.337-3.709 49.085 49.085 0 0 0-3.387-2.112zM37 10c-1.823 0-3.63 3.236-4.95 8.411a49.377 49.377 0 0 1 4.602 2.87 51.625 51.625 0 0 1 5.174-3.347C40.518 13.038 38.766 10 37 10z"/><g fill="#367BFF" transform="translate(19 19)"><circle cx="18" cy="3" r="3"/><circle cx="32" cy="18" r="3"/><circle cx="18" cy="33" r="3"/><circle cx="3" cy="18" r="3"/><circle cx="18" cy="18" r="4"/></g></g></svg>