<svg width="78" height="78" xmlns="http://www.w3.org/2000/svg"><path d="M0 60.121V30.363c0-.745.057-1.562.172-2.451.115-.889.316-1.792.603-2.71.803-2.293 2.38-4.4 4.733-6.32C7.861 16.96 11.62 16 16.784 16c7 0 11.677 1.534 14.03 4.601 2.352 3.068 3.528 6.723 3.528 10.966v27.35c0 6.25-1.793 10.493-5.38 12.729C25.377 73.882 21.117 75 16.183 75c-5.968-.287-10.157-1.792-12.567-4.515C1.205 67.76 0 64.307 0 60.12zm16.784 5.418c1.606 0 2.74-.401 3.4-1.204.66-.802.99-3.01.99-6.622V32.77c0-2.121-.259-3.856-.775-5.203-.517-1.348-1.722-2.021-3.615-2.021-1.78 0-2.927.673-3.443 2.02-.517 1.348-.775 3.083-.775 5.204v24.942c0 2.695.33 4.673.99 5.934.66 1.262 1.736 1.892 3.228 1.892zm24.669 7.74c.172-5.79 1.377-10.65 3.615-14.577 2.238-3.928 4.676-7.325 7.316-10.192a92.495 92.495 0 0 1 4.605-4.773c1.52-1.462 2.797-2.853 3.83-4.171a19.19 19.19 0 0 0 1.076-1.72c.315-.574.56-1.147.731-1.72.287-.746.488-1.463.603-2.15a12.03 12.03 0 0 0 .172-1.979c0-1.72-.373-3.225-1.119-4.515-.746-1.29-1.635-1.935-2.668-1.935-2.468 0-4.017.903-4.648 2.709-.631 1.806-.947 4.572-.947 8.3H41.453c.287-6.136 1.492-11.095 3.615-14.88C47.191 17.892 52.04 16 59.614 16c6.541 0 11.002 1.591 13.384 4.773 2.381 3.183 3.572 6.838 3.572 10.966v1.763c0 .602-.058 1.219-.172 1.85-.46 2.924-1.665 5.661-3.615 8.213a64.91 64.91 0 0 1-6.284 7.095 540.968 540.968 0 0 0-6.627 6.408c-2.008 1.978-3.156 3.798-3.443 5.461H77v10.75H41.453z" fill="#EFF2F5" fill-rule="evenodd"/></svg>