<svg width="120" height="120" xmlns="http://www.w3.org/2000/svg"><g transform="translate(6 7)" fill="none" fill-rule="evenodd"><path d="M50.538 22.401l-.19-.982a1 1 0 0 0-1.963.378l.189.982a1 1 0 0 0 1.964-.378zm-.944-4.91l-.19-.982a1 1 0 1 0-1.963.378l.189.982a1 1 0 0 0 1.964-.378zm-.945-4.91l-.189-.982a1 1 0 1 0-1.964.378l.19.982a1 1 0 0 0 1.963-.378zm-.944-4.91l-.189-.982a1 1 0 0 0-1.964.378l.189.982a1 1 0 1 0 1.964-.378zm-.944-4.91l-.189-.982a1 1 0 1 0-1.964.378l.189.982a1 1 0 0 0 1.964-.378zm36.311 52.718l.956-.295a1 1 0 0 0-.59-1.911l-.956.295a1 1 0 1 0 .59 1.91zm4.777-1.477l.956-.295a1 1 0 0 0-.59-1.91l-.956.295a1 1 0 1 0 .59 1.91zm4.777-1.476l.956-.295a1 1 0 0 0-.59-1.911l-.956.295a1 1 0 1 0 .59 1.91zm4.777-1.477l.956-.295a1 1 0 0 0-.59-1.91l-.956.294a1 1 0 0 0 .59 1.911zm4.777-1.476l.956-.296a1 1 0 1 0-.59-1.91l-.956.295a1 1 0 1 0 .59 1.91zM65.956 85.387l.468.884a1 1 0 1 0 1.767-.936l-.468-.884a1 1 0 1 0-1.767.936zm2.34 4.419l.467.884a1 1 0 0 0 1.768-.936l-.468-.884a1 1 0 0 0-1.768.936zm2.339 4.419l.467.883a1 1 0 0 0 1.768-.935l-.468-.884a1 1 0 1 0-1.767.936zM27.008 59.538l-.92.391a1 1 0 1 0 .783 1.84l.92-.391a1 1 0 0 0-.783-1.84zm-4.601 1.957l-.92.392a1 1 0 1 0 .783 1.84l.92-.391a1 1 0 0 0-.783-1.84zm-4.6 1.958l-.921.392a1 1 0 1 0 .783 1.84l.92-.392a1 1 0 1 0-.783-1.84zm-4.602 1.958l-.92.392a1 1 0 0 0 .783 1.84l.92-.392a1 1 0 1 0-.783-1.84zm-4.6 1.958l-.497.21a1 1 0 1 0 .784 1.841l.496-.211a1 1 0 1 0-.783-1.84z" fill="#367BFF"/><path d="M50.5 106c27.89 0 50.5-22.61 50.5-50.5S78.39 5 50.5 5 0 27.61 0 55.5 22.61 106 50.5 106zm0-2C23.714 104 2 82.286 2 55.5S23.714 7 50.5 7 99 28.714 99 55.5 77.286 104 50.5 104z" fill="#367BFF"/><path d="M55.5 102c27.89 0 50.5-22.61 50.5-50.5S83.39 1 55.5 1 5 23.61 5 51.5 27.61 102 55.5 102zm0-2C28.714 100 7 78.286 7 51.5S28.714 3 55.5 3 104 24.714 104 51.5 82.286 100 55.5 100z" fill-opacity=".8" fill="#000"/><path d="M55 38c4.76 0 8.687 3.523 9.261 8.077H65.5c1.933 0 3.5 1.55 3.5 3.461v12.693C69 65.417 66.388 68 63.167 68H46.833C43.612 68 41 65.417 41 62.23V49.539c0-1.911 1.567-3.461 3.5-3.461h1.239C46.313 41.523 50.24 38 55 38zm-7 8h14c-.563-3.405-3.483-6-7-6s-6.437 2.595-7 6z" fill="#367BFF"/><path d="M55 51a3 3 0 0 1 1 5.829V58h1a1 1 0 0 1 0 2h-1v1h1a1 1 0 0 1 0 2h-1a1 1 0 0 1-2 0v-6.17A3.001 3.001 0 0 1 55 51z" fill="#FFF"/><circle fill="#367BFF" cx="45.5" cy="3.5" r="3.5"/><circle fill="#367BFF" cx="105.5" cy="47.5" r="3.5"/><circle fill="#367BFF" cx="73.5" cy="97.5" r="3.5"/><circle fill="#367BFF" cx="8.5" cy="68.5" r="3.5"/><path d="M54.259 23.329c-5.489 6.061-12.867 8.903-22.22 8.529a1 1 0 0 0-1.039 1V64.68a13 13 0 0 0 5.978 10.94L54.46 86.84a1 1 0 0 0 1.08 0l17.482-11.22A13 13 0 0 0 79 64.681V32.857a1 1 0 0 0-1-1c-9.324 0-16.73-2.852-22.284-8.555a1 1 0 0 0-1.457.027zM77 33.846v30.835a11 11 0 0 1-5.058 9.257L55 84.812 38.058 73.938A11 11 0 0 1 33 64.681V33.885c9.051.142 16.415-2.677 22.026-8.45 5.65 5.415 12.992 8.219 21.974 8.411z" fill-opacity=".8" fill="#000"/></g></svg>