<svg width="120" height="120" xmlns="http://www.w3.org/2000/svg"><g fill="none" fill-rule="evenodd"><path d="M113.823 53.908l.001.006.008.039c.14.763.159 2.531.143 7.977v.097a842.793 842.793 0 0 0 0 5.111c.015 5.444-.003 7.21-.144 7.973l-.008.046c-.38 1.995-1.202 3.725-2.393 5-1.34 1.433-3.102 2.228-4.967 2.228h-.522c-5.706 0-10.35 4.633-10.35 10.325 0 1.166.453 2.84.902 3.882 1.722 3.864.401 8.578-3.094 11.006l-.303.198-.076.042-13.194 7.276-.122.057-.161.06c-1.106.498-2.323.749-3.613.749-2.706 0-5.355-1.137-7.103-3.055-2.402-2.622-6.35-5.322-8.59-5.322-2.196 0-6.205 2.705-8.528 5.206-1.734 1.885-4.362 3-7.048 3a9.066 9.066 0 0 1-3.653-.745l-.218-.09-.102-.05-.102-.056-12.756-7.117-.252-.169c-3.466-2.424-4.778-7.135-3.065-10.98.454-1.052.906-2.725.906-3.892 0-5.692-4.644-10.325-10.35-10.325h-.537c-3.644 0-6.518-2.89-7.355-7.227l-.008-.045c-.141-.763-.16-2.53-.144-7.977v-.107a840.743 840.743 0 0 0 0-4.994v-.107c-.015-5.446.003-7.213.144-7.977l.008-.043c.38-1.996 1.202-3.726 2.393-5 1.365-1.462 3.169-2.259 5.055-2.229h.433c5.707 0 10.35-4.633 10.35-10.325 0-1.141-.417-2.707-.847-3.737l-.063-.14c-1.727-3.87-.4-8.588 3.107-11.014l.305-.199 13.516-7.402.12-.055.206-.079a9.188 9.188 0 0 1 3.587-.708c2.66 0 5.277 1.084 7.02 2.915 2.379 2.468 6.242 5.001 8.404 5.001 2.171 0 6-2.479 8.335-4.888 1.737-1.81 4.34-2.878 6.983-2.878 1.262 0 2.481.24 3.596.706l.245.093.124.058 13.121 7.285.248.165c3.48 2.417 4.8 7.13 3.083 10.984-.454 1.052-.906 2.726-.906 3.893 0 5.692 4.643 10.326 10.35 10.326h.418c1.9-.03 3.706.767 5.07 2.227 1.191 1.275 2.014 3.005 2.393 5z" fill-rule="nonzero" stroke="#000" stroke-opacity=".8" stroke-width="1.96"/><path d="M36 65c0 13.785 11.215 25 25 25 13.77 0 24.985-11.214 25-25 0-13.785-11.215-25-25-25S36 51.215 36 65z" stroke-opacity=".8" stroke="#000" stroke-width="2"/><path d="M26 65c0 19.299 15.7 35 35 35 19.278 0 34.979-15.7 35-35 0-19.3-15.7-35-35-35S26 45.7 26 65z" stroke="#367BFF" stroke-width="2"/><path d="M110.223 96.65l.1.074.767.643a1 1 0 0 1-1.185 1.607l-.1-.075-.767-.643a1 1 0 0 1 1.185-1.607zm-98.354-.803a1 1 0 0 1-.123 1.41l-.766.642a1 1 0 0 1-1.286-1.532l.766-.643a1 1 0 0 1 1.41.123zm94.523-2.412l.101.075.766.643a1 1 0 0 1-1.184 1.607l-.101-.075-.766-.643a1 1 0 0 1 1.184-1.607zM15.7 92.633a1 1 0 0 1-.124 1.41l-.766.642a1 1 0 1 1-1.285-1.532l.766-.643a1 1 0 0 1 1.409.123zm86.862-2.411l.101.074.766.643a1 1 0 0 1-1.184 1.607l-.101-.075-.766-.643a1 1 0 0 1 1.184-1.606zm-83.032-.803a1 1 0 0 1-.124 1.41l-.766.642a1 1 0 1 1-1.285-1.532l.766-.643a1 1 0 0 1 1.409.123zm79.202-2.411l.101.074.766.643a1 1 0 0 1-1.184 1.607l-.102-.075-.766-.643a1 1 0 0 1 1.185-1.606zm-75.372-.802a1 1 0 0 1-.123 1.408l-.766.643a1 1 0 1 1-1.286-1.532l.766-.643a1 1 0 0 1 1.409.124zm71.542-2.412l.1.074.767.643a1 1 0 0 1-1.185 1.607l-.1-.075-.767-.643a1 1 0 0 1 1.185-1.606zm-67.712-.802a1 1 0 0 1-.123 1.408l-.766.643a1 1 0 0 1-1.286-1.532l.766-.643a1 1 0 0 1 1.41.124zm63.881-2.412l.102.074.766.643a1 1 0 0 1-1.185 1.607l-.101-.075-.766-.643a1 1 0 0 1 1.184-1.606zm-60.05-.802a1 1 0 0 1-.124 1.408l-.766.643a1 1 0 0 1-1.285-1.532l.766-.643a1 1 0 0 1 1.408.124zm55.185-7.207a4 4 0 0 1 1.036 4.795l.05.036.05.038.766.643a1 1 0 0 1-1.184 1.607l-.101-.075-.766-.642a1.082 1.082 0 0 1-.09-.086 4.002 4.002 0 0 1-5.396-5.823 4 4 0 0 1 5.635-.493zm-45.993-.507a4 4 0 0 1-5.395 5.823c-.028.03-.058.058-.09.086l-.767.642a1 1 0 0 1-1.285-1.532l.766-.643a1.01 1.01 0 0 1 .1-.074 4 4 0 0 1 6.67-4.302zM61 33a1 1 0 0 1 1 1v1c0 .042-.003.084-.008.125a4 4 0 1 1-1.985 0A1.082 1.082 0 0 1 60 35v-1a1 1 0 0 1 1-1zm0-5a1 1 0 0 1 1 1v1a1 1 0 0 1-2 0v-1a1 1 0 0 1 1-1zm0-5a1 1 0 0 1 1 1v1a1 1 0 0 1-2 0v-1a1 1 0 0 1 1-1zm0-5a1 1 0 0 1 1 1v1a1 1 0 0 1-2 0v-1a1 1 0 0 1 1-1zm0-5a1 1 0 0 1 1 1v1a1 1 0 0 1-2 0v-1a1 1 0 0 1 1-1zm0-5a1 1 0 0 1 1 1v1a1 1 0 0 1-2 0V9a1 1 0 0 1 1-1zm0-5a1 1 0 0 1 1 1v1a1 1 0 0 1-2 0V4a1 1 0 0 1 1-1z" fill="#367BFF"/><path d="M61 48c4.236 0 8 3.815 8 9v2h1a4 4 0 0 1 3.995 3.8L74 63v10a4 4 0 0 1-3.8 3.995L70 77H52a4 4 0 0 1-3.995-3.8L48 73V63a4 4 0 0 1 3.8-3.995L52 59h1v-2c0-5.09 2.665-8.86 7.717-8.996zm0 15a3 3 0 0 0-1.172 5.762l.172.067V71.8l.005.12c.05.557.435 1.08.995 1.08s.946-.523.995-1.08L62 71.8v-2.971A3.001 3.001 0 0 0 61 63zm0-13c-3.36 0-6 2.689-6 6v3h12v-3c0-3.311-2.64-6-6-6z" fill="#367BFF" fill-rule="nonzero"/></g></svg>