<svg xmlns="http://www.w3.org/2000/svg" width="33" height="46" viewBox="0 0 33 46">
  <g fill="none" fill-rule="evenodd" transform="translate(-16 -10)">
    <path stroke="#000" stroke-opacity=".8" stroke-width="2" d="M40.8820511,24.689103 C40.9597951,24.1372361 41,23.5733132 41,23 C41,16.372583 35.627417,11 29,11 C22.372583,11 17,16.372583 17,23 C17,27.388619 19.3558644,31.2269963 22.8719252,33.3194641"/>
    <rect width="52" height="52" x="6" y="7" fill="#000" opacity="0"/>
    <g transform="translate(16 15)">
      <path fill="#467DF6" d="M9.03587777,14.9503728 C6.62490072,13.572314 5,10.975915 5,8 C5,3.581722 8.581722,0 13,0 C17.418278,0 21,3.581722 21,8 C21,9.67367443 20.4860418,11.2273075 19.607344,12.5116808 C19.2140957,12.362367 18.7844497,12.2808989 18.3268879,12.2808989 C17.6738517,12.2808989 17.0670189,12.4471233 16.5297834,12.7391674 L16.5297834,8.84272139 C16.5297834,6.72042567 14.9498053,5 12.8457022,5 C10.7415504,5 9.03587777,6.72042567 9.03587777,8.84272139 L9.03587777,14.9503728 Z"/>
      <path fill="#000" fill-opacity=".8" d="M29.3559324,16.3257932 L29.2559714,16.3257932 C28.5171569,16.3257932 27.9108115,16.5414344 27.3267879,16.9086434 C26.8157245,15.3942529 25.5157444,14.3033708 23.8414102,14.3033708 C23.1025469,14.3033708 22.3969228,14.5189625 21.8129479,14.8861715 C21.3018359,13.3718305 20.0012709,12.2808989 18.3268879,12.2808989 C17.6738517,12.2808989 17.0670189,12.4471233 16.5297834,12.7391674 L16.5297834,8.84272139 C16.5297834,6.72042567 14.9498053,5 12.8457022,5 C10.7415504,5 9.03587777,6.72042567 9.03587777,8.84272139 L9.03587777,23.7609337 L6.72132535,21.419085 C5.23346146,19.9184599 2.60016462,20.132071 1.33337485,21.419085 C0.0665850729,22.7060991 -0.764197418,25.2965665 1.04981903,27.1395437 L11.689547,37.8782778 C11.9090615,38.0996629 12.1503617,38.2843072 12.4041876,38.4404305 C14.3440934,40.0482077 16.5669703,41 21.2674758,41 C32.0055564,41 33,35.1143072 33,27.8539573 L33,20.1684651 C33,18.0462189 31.4600843,16.3257932 29.3559324,16.3257932 Z M31,27.7179207 C31,33.9488354 30.9709228,39 21.2135212,39 C17.0800412,39 14.5984724,38.0560392 12.7185525,36.1445136 L2.58476486,25.8329622 C1.68817561,24.9146645 1.91363459,23.7405392 2.64762663,22.9887755 C3.38156964,22.2370621 4.72868457,22.2110474 5.43776727,22.9319752 C5.43776727,22.9319752 7.21569615,24.7422043 8.74747366,26.3018288 C9.90668976,27.4821314 10.9249817,28.5188511 10.9249817,28.5188511 L10.9249817,8.84613743 C10.9249817,7.82654325 11.7378697,7 12.7406179,7 C13.743317,7 14.4297459,7.82659347 14.4297459,8.84613743 L14.4297459,21.3589917 L14.4500951,21.3589917 C14.4368559,21.4252839 14.4297459,21.4938361 14.4297459,21.564146 C14.4297459,22.1305426 14.8813504,22.589817 15.4384272,22.589817 C15.9954551,22.589817 16.4470595,22.1305928 16.4470595,21.564146 C16.4470595,21.4938361 16.4399986,21.4252839 16.4267103,21.3589917 L16.4470595,21.3589917 L16.4470595,16.2307374 C16.4470595,15.2111432 17.1725196,14.3845497 18.1752678,14.3845497 C18.1752678,14.3845497 19.9518727,14.3599412 19.9518727,16.2307374 L19.9518727,22.9999247 L19.9722219,22.9999247 C19.9589827,23.0662671 19.9518727,23.1348193 19.9518727,23.2050789 C19.9518727,23.7715257 20.4034772,24.2307499 20.960505,24.2307499 C21.5175819,24.2307499 21.9691863,23.771576 21.9691863,23.2050789 C21.9691863,23.1348193 21.9621254,23.0662671 21.9488371,22.9999247 L21.9691863,22.9999247 L21.9691863,18.2820291 C21.9691863,17.2623847 22.6830743,16.4357912 23.6858715,16.4357912 C23.6858715,16.4357912 25.4993011,16.551451 25.4993011,18.2820291 L25.4993011,24.2306997 L25.5196503,24.2306997 C25.5064601,24.2969919 25.4993011,24.3655943 25.4993011,24.435854 C25.4993011,25.0023008 25.9509056,25.4615249 26.5079824,25.4615249 C27.0650593,25.4615249 27.4913621,25.002351 27.4913621,24.435854 C27.4913621,24.3655943 27.4846935,24.2969919 27.4721407,24.2306997 L27.4913621,24.2306997 L27.4913621,20.1691974 C27.4913621,19.1496032 28.2393779,18.3230097 29.242077,18.3230097 C29.242077,18.3230097 31,18.2501887 31,20.1691974 C31,20.1691974 31,26.0589081 31,27.7179207 Z"/>
      <path fill="#467DF6" d="M7.58069556,14 L7.58069556,10.5090414 C7.2515121,9.76431776 7.06456653,8.94151543 7.06456653,8.07339183 C7.06456653,4.76524425 9.72197581,2.08345596 13.0000504,2.08345596 C16.278125,2.08345596 18.9355343,4.76524425 18.9355343,8.07339183 C18.9355343,8.52528203 18.8826109,8.96399804 18.7876008,9.38674224 C19.5341734,9.41614257 20.2077621,9.72886442 20.6980847,10.230959 C20.8881552,9.54335749 21,8.8227442 21,8.07339183 C21,3.61461297 17.418246,0 13,0 C8.58175403,0 5,3.61461297 5,8.07339183 C5,10.4193144 5.99758065,12.5248969 7.58069556,14 Z"/>
    </g>
  </g>
</svg>
