<svg width="600" height="400" xmlns="http://www.w3.org/2000/svg" xmlns:xlink="http://www.w3.org/1999/xlink"><defs><filter x="-3.9%" y="-6.7%" width="107.9%" height="113.4%" filterUnits="objectBoundingBox" id="a"><feGaussianBlur stdDeviation="3.6" in="SourceGraphic"/></filter><linearGradient x1="118.674%" y1="120.521%" x2="18.702%" y2="19.602%" id="b"><stop stop-color="#245CD7" offset="0%"/><stop stop-color="#81B0FF" offset="100%"/></linearGradient><linearGradient x1="8.847%" y1="69.622%" x2="91.153%" y2="16.607%" id="c"><stop stop-color="#569AEA" offset="0%"/><stop stop-color="#2355C3" offset="100%"/></linearGradient><linearGradient x1="18.238%" y1="52.873%" x2="80.8%" y2="50%" id="d"><stop stop-color="#D2E5FF" offset="0%"/><stop stop-color="#86B1FC" offset="100%"/></linearGradient><linearGradient x1="0%" y1="30.479%" x2="102.663%" y2="69.521%" id="e"><stop stop-color="#00E2FF" offset="0%"/><stop stop-color="#D2E6FF" offset="100%"/></linearGradient><linearGradient x1="57.553%" y1="41.111%" x2="37.247%" y2="59.903%" id="f"><stop stop-color="#4E98FF" offset="0%"/><stop stop-color="#00E9FF" stop-opacity="0" offset="100%"/></linearGradient><linearGradient x1="100%" y1="58.134%" x2="-28.476%" y2="32.422%" id="g"><stop stop-color="#5697E3" offset="0%"/><stop stop-color="#2658C7" offset="100%"/></linearGradient><linearGradient x1="115.244%" y1="26.5%" x2="-17.561%" y2="73.144%" id="h"><stop stop-color="#00E2FF" offset="0%"/><stop stop-color="#D2E6FF" offset="100%"/></linearGradient><linearGradient x1="115.244%" y1="24.133%" x2="-17.561%" y2="75.476%" id="i"><stop stop-color="#00E2FF" offset="0%"/><stop stop-color="#D2E6FF" offset="100%"/></linearGradient><linearGradient x1="31.088%" y1="42.525%" x2="60.07%" y2="58.465%" id="j"><stop stop-color="#4E98FF" offset="0%"/><stop stop-color="#00E9FF" stop-opacity="0" offset="100%"/></linearGradient><linearGradient x1="64.759%" y1="61.84%" x2="37.368%" y2="0%" id="m"><stop stop-color="#668EC1" offset="0%"/><stop stop-color="#EDF4FC" offset="100%"/></linearGradient><path id="l" d="M2.86.169l87.166 49.707v123.708L2.861 122.61z"/><filter x="-21.8%" y="-14.4%" width="152.8%" height="126.5%" filterUnits="objectBoundingBox" id="k"><feOffset dx="4" dy="-2" in="SourceAlpha" result="shadowOffsetOuter1"/><feGaussianBlur stdDeviation="7" in="shadowOffsetOuter1" result="shadowBlurOuter1"/><feColorMatrix values="0 0 0 0 0 0 0 0 0 0.350738895 0 0 0 0 0.756085824 0 0 0 0.2 0" in="shadowBlurOuter1"/></filter><linearGradient x1="50%" y1="114.902%" x2="50%" y2="18.081%" id="n"><stop stop-color="#D8E9FF" offset="0%"/><stop stop-color="#FFF" offset="100%"/></linearGradient><path id="p" d="M2.473.377L89.64 50.084v123.708L2.473 122.818z"/><filter x="-21.8%" y="-14.4%" width="152.8%" height="126.5%" filterUnits="objectBoundingBox" id="o"><feOffset dx="4" dy="-2" in="SourceAlpha" result="shadowOffsetOuter1"/><feGaussianBlur stdDeviation="7" in="shadowOffsetOuter1" result="shadowBlurOuter1"/><feColorMatrix values="0 0 0 0 0 0 0 0 0 0.350738895 0 0 0 0 0.756085824 0 0 0 0.2 0" in="shadowBlurOuter1"/></filter><path id="r" d="M3.043.52l87.165 49.707v123.708L3.043 122.96z"/><filter x="-21.8%" y="-14.4%" width="152.8%" height="126.5%" filterUnits="objectBoundingBox" id="q"><feOffset dx="4" dy="-2" in="SourceAlpha" result="shadowOffsetOuter1"/><feGaussianBlur stdDeviation="7" in="shadowOffsetOuter1" result="shadowBlurOuter1"/><feColorMatrix values="0 0 0 0 0 0 0 0 0 0.350738895 0 0 0 0 0.756085824 0 0 0 0.2 0" in="shadowBlurOuter1"/></filter><linearGradient x1="50%" y1="114.902%" x2="50%" y2="70.066%" id="s"><stop stop-color="#D8E9FF" offset="0%"/><stop stop-color="#FFF" offset="100%"/></linearGradient><linearGradient x1="43.867%" y1="9.941%" x2="95.386%" y2="76.427%" id="t"><stop stop-color="#569AEA" offset="0%"/><stop stop-color="#2355C3" offset="100%"/></linearGradient><linearGradient x1="35.851%" y1="1.821%" x2="63.776%" y2="93.027%" id="u"><stop stop-color="#ECF6FF" offset="0%"/><stop stop-color="#8FBFFB" offset="100%"/></linearGradient><linearGradient x1="97.269%" y1="27.321%" x2="11.025%" y2="67.642%" id="v"><stop stop-color="#64E3F5" offset="0%"/><stop stop-color="#9DF3FB" stop-opacity="0" offset="100%"/></linearGradient></defs><g fill="none" fill-rule="evenodd"><path fill="#114BBB" opacity=".106" filter="url(#a)" d="M74.012 278.227l135.915-81.184 138.875 81.235-135.531 80.077z" transform="translate(89 21)"/><path fill="url(#b)" d="M.448 85.064l145.082 83.628.018 71.66L.467 156.739z" transform="translate(156.766 101)"/><path fill="url(#c)" d="M145.177 168.137l141.245-83.073v72.617l-141.245 83.072z" transform="translate(156.766 101)"/><path fill="url(#d)" d="M.32 85.064L142.014.618l144.48 84.539-141.314 83.366z" transform="translate(156.766 101)"/><g transform="translate(179.869 219.917)" fill="url(#e)"><path d="M98.377 59.799a1.652 1.652 0 0 1-2.493 1.422L2.497 6.051A5.083 5.083 0 0 1 0 1.673 1.655 1.655 0 0 1 2.497.25l93.387 55.182a5.073 5.073 0 0 1 2.493 4.368zM98.377 72.69a1.652 1.652 0 0 1-2.493 1.423L2.497 18.943A5.083 5.083 0 0 1 0 14.565a1.655 1.655 0 0 1 2.497-1.425l93.387 55.182a5.073 5.073 0 0 1 2.493 4.368zM98.377 85.583a1.652 1.652 0 0 1-2.493 1.422L2.497 31.834A5.083 5.083 0 0 1 0 27.458a1.655 1.655 0 0 1 2.497-1.425l93.387 55.182a5.073 5.073 0 0 1 2.493 4.368z"/></g><g transform="translate(89 223.006)" fill="url(#f)"><path opacity=".1" d="M.487 82.462L92.65 27.441l94.424 54.348L94.91 136.81z"/><path opacity=".25" d="M.487 69.694L92.65 14.672l94.424 54.348-92.162 55.022z"/><path opacity=".45" d="M.487 55.764L92.65.743l94.424 54.348-92.162 55.021z"/></g><path fill="url(#g)" d="M99 83.482L210.627 16 325 82.545 213.37 150z" transform="translate(89 101)"/><g><path d="M100.889 2.085c0 2.249-1.19 4.33-3.129 5.47L3.128 63.208A2.076 2.076 0 0 1 0 61.42c0-2.248 1.19-4.328 3.128-5.468L97.76.295a2.076 2.076 0 0 1 3.129 1.79z" fill="url(#h)" transform="translate(326.182 218.373)"/><path d="M3.128 68.939l94.617-55.666a2.08 2.08 0 0 1 3.135 1.792 6.359 6.359 0 0 1-3.135 5.481L3.128 76.197A2.076 2.076 0 0 1 0 74.408c0-2.248 1.19-4.33 3.128-5.47zM3.135 82.201L97.75 26.55a2.076 2.076 0 0 1 3.129 1.79c0 2.248-1.19 4.329-3.129 5.469L3.135 89.475A2.08 2.08 0 0 1 0 87.682a6.359 6.359 0 0 1 3.135-5.48z" fill="url(#i)" transform="translate(326.182 218.373)"/><g transform="translate(326.182 220.917)" fill="url(#j)"><path opacity=".1" d="M1.76 85.699l99.86-59.518 81.878 47.045-99.855 59.517z"/><path opacity=".25" d="M1.76 72.256l99.86-59.511 81.878 47.051-99.855 59.511z"/><path opacity=".45" d="M.22 59.9L100.08.39l81.877 47.036-99.854 59.526z"/></g></g><g><g opacity=".8"><g transform="translate(292.112 21)"><use fill="#000" filter="url(#k)" xlink:href="#l"/><use fill="url(#m)" xlink:href="#l"/></g><path fill="url(#n)" d="M.687 1.192L87.852 50.9v123.707L.687 123.623z" transform="translate(292.112 21)"/><path fill="#ECAB2C" d="M304.571 44.306l8.718 4.994v10.049l-8.718-5.005z"/><path fill="#77BD8C" d="M304.576 68.405l8.718 4.994v10.049l-8.718-5.005z"/><path fill="#5EC2FB" d="M304.582 91.5l8.717 4.995v10.049l-8.717-5.004z"/><path fill="#D4DDDF" d="M318.52 58.315l52.303 29.995v3.019l-52.302-30.005v-3.009zM318.52 53.29l34.869 20.007v3.01L318.52 56.31v-3.02zM318.526 82.414l52.302 29.995v3.019l-52.303-29.995v-3.019zM318.525 77.4l26.15 14.992v3.02l-26.151-15.003V77.4zM318.529 100.496l43.586 24.99v3.02l-43.585-25.001v-3.009zM318.53 105.51l52.303 29.995v3.019l-52.303-29.995zM318.53 123.481l52.303 29.995v3.018L318.53 126.5zM318.53 132.598l52.303 29.995v3.018l-52.303-29.994zM318.53 141.715l52.303 29.995v3.018l-52.303-29.994z"/></g><g transform="translate(260.112 41)"><use fill="#000" filter="url(#o)" xlink:href="#p"/><use fill="url(#m)" xlink:href="#p"/></g><path fill="url(#n)" d="M.27 1.43l87.165 49.708v123.707L.269 123.861z" transform="translate(260.112 41)"/><path fill="#ECAB2C" d="M272.184 64.475l8.717 4.994v10.048l-8.717-5.004z"/><path fill="#77BD8C" d="M272.19 88.574l8.716 4.994v10.049l-8.717-5.005z"/><path fill="#5EC2FB" d="M272.194 111.67l8.718 4.994v10.049l-8.718-5.004z"/><path fill="#D4DDDF" d="M286.133 78.484l52.303 29.995v3.019l-52.303-30.005v-3.009zM286.132 73.46l34.87 20.006v3.009l-34.869-19.997V73.46zM286.138 102.583l52.303 29.995v3.019l-52.304-29.995v-3.019zM286.137 97.569l26.151 14.992v3.019l-26.152-15.002v-3.009zM286.141 120.665l43.587 24.99v3.02l-43.586-25.001v-3.009zM286.142 125.68l52.304 29.994v3.019l-52.304-29.995zM286.142 143.65l52.304 29.995v3.018l-52.304-29.994zM286.142 152.767l52.304 29.995v3.018l-52.304-29.994zM286.142 161.884l52.304 29.995v3.018l-52.304-29.994z"/><g><g transform="translate(226.112 61)"><use fill="#000" filter="url(#q)" xlink:href="#r"/><use fill="url(#m)" xlink:href="#r"/></g><path fill="url(#s)" d="M.811 1.583l87.166 49.708v123.707L.81 124.025z" transform="translate(226.112 61)"/><path fill="#ECAB2C" d="M237.725 84.747l8.717 4.994v10.05l-8.717-5.005z"/><path fill="#77BD8C" d="M237.73 108.846l8.718 4.994v10.05l-8.718-5.005z"/><path fill="#5EC2FB" d="M237.735 131.943l8.718 4.994v10.049l-8.718-5.005z"/><path fill="#D4DDDF" d="M251.674 98.757l52.303 29.995v3.018l-52.303-30.004v-3.009zM251.673 93.733l34.87 20.006v3.009L251.673 96.75v-3.018zM251.68 122.856l52.302 29.995v3.019l-52.304-29.995v-3.019zM251.678 117.842l26.151 14.992v3.019l-26.152-15.003v-3.008zM251.683 140.938l43.586 24.99v3.02l-43.585-25.001v-3.009zM251.684 145.952l52.303 29.995v3.019l-52.303-29.995zM251.684 163.923l52.303 29.995v3.018l-52.303-29.994zM251.684 173.04l52.303 29.994v3.02l-52.303-29.996zM251.684 182.157l52.303 29.994v3.02l-52.303-29.996z"/></g></g><g><path fill="#406AC5" d="M273.253 247.229l6.678-3.35-2.53-3.856-7.082 2.03zM211.234 126.452l6.475-3.35 3.643.204-2.024 2.537-7.082 2.03-1.012-1.42z"/><path d="M65.852 35.025c9.73 20.53 8.553 40.366-1.978 47.622L78.86 114.27c2.024 4.273 1.486 8.373-1.199 9.175-2.685.802-6.5-2.03-8.523-6.293L54.152 85.526c-13.971 0-31.345-14.34-41.075-34.87C2.095 27.483 5.007 5.195 19.58.882 34.15-3.43 54.871 11.854 65.852 35.025zm-6.684 2.609C51.218 20.867 36.227 9.804 25.68 12.92c-10.543 3.126-12.657 19.243-4.708 36.02 7.95 16.777 22.941 27.84 33.488 24.714 10.548-3.126 12.657-19.254 4.708-36.02z" fill="url(#t)" transform="translate(201.522 120.768)"/><path d="M59.775 38.08c9.73 20.54 8.552 40.362-1.98 47.62l14.987 31.626c2.023 4.263 1.486 8.373-1.198 9.165-2.684.791-6.502-2.02-8.524-6.283L48.072 88.584c-13.97.005-31.344-14.343-41.074-34.874C-3.983 30.54-1.07 8.251 13.504 3.938c14.568-4.324 35.29 10.961 46.27 34.142zm-7.693 2.609c-7.95-16.777-22.942-27.84-33.488-24.714-10.548 3.126-12.657 19.253-4.708 36.02 7.95 16.767 22.942 27.84 33.488 24.713 10.546-3.126 12.657-19.243 4.708-36.02z" fill="url(#u)" transform="translate(201.522 120.768)"/></g><g><path d="M100.31 3.661L.306 60.901l53.08 56.15 87.695-59.397c12.898-27.536-18.703-69.875-40.771-53.993z" fill="url(#v)" opacity=".55" transform="translate(114.288 136.064)"/><path d="M214.02 151.713c13.12 7.57 23.758 26.012 23.758 41.213 0 15.2-10.63 21.369-23.75 13.809-13.12-7.56-23.758-26.013-23.758-41.203 0-15.191 10.631-21.38 23.75-13.82zm0 1.473c12.421 7.153 22.491 24.62 22.494 39.008.003 14.388-10.063 20.231-22.483 13.078-12.42-7.154-22.49-24.63-22.493-39.019-.003-14.388 10.062-20.23 22.483-13.067z" fill="#64E3F5"/><path d="M197.204 170.399c10.145 5.853 18.372 20.14 18.374 31.895.002 11.757-8.22 16.543-18.366 10.68-10.146-5.863-18.373-20.14-18.375-31.896-.002-11.756 8.221-16.542 18.367-10.68zm0 1.463c9.446 5.456 17.105 18.757 17.107 29.7.002 10.944-7.654 15.405-17.1 9.949-9.446-5.457-17.105-18.758-17.107-29.701-.002-10.944 7.654-15.405 17.1-9.948z" fill="#64E3F5"/><path d="M185.66 180.88c8.447 5 15.296 17.202 15.298 27.245.002 10.042-6.844 14.13-15.29 9.122-8.448-5.008-15.298-17.203-15.3-27.245 0-10.042 6.846-14.13 15.292-9.122zm0 1.87c7.884 4.63 14.277 15.916 14.278 25.202.002 9.286-6.388 13.071-14.272 8.441-7.884-4.63-14.276-15.916-14.278-25.202-.001-9.287 6.388-13.072 14.272-8.442z" fill="#64E3F5"/></g></g></svg>