<svg width="600" height="400" xmlns="http://www.w3.org/2000/svg" xmlns:xlink="http://www.w3.org/1999/xlink"><defs><linearGradient x1="114.458%" y1="68.513%" x2="-15.67%" y2="26.381%" id="a"><stop stop-color="#85F0F5" stop-opacity=".3" offset="0%"/><stop stop-color="#7BD7FF" offset="51.813%"/><stop stop-color="#6CE8F0" stop-opacity=".2" offset="100%"/></linearGradient><linearGradient x1="129.115%" y1="76.674%" x2="-23.367%" y2="21.342%" id="b"><stop stop-color="#85F0F5" stop-opacity=".3" offset="0%"/><stop stop-color="#7BD7FF" offset="51.741%"/><stop stop-color="#6CE8F0" stop-opacity=".2" offset="100%"/></linearGradient><linearGradient x1="100%" y1="57.754%" x2="21.767%" y2="41.05%" id="c"><stop stop-color="#85F0F5" stop-opacity=".3" offset="0%"/><stop stop-color="#7BD7FF" offset="51.813%"/><stop stop-color="#6CE8F0" stop-opacity=".2" offset="100%"/></linearGradient><linearGradient x1="95.856%" y1="93.32%" x2="24.107%" y2="0%" id="d"><stop stop-color="#85F0F5" stop-opacity=".3" offset="0%"/><stop stop-color="#7BD7FF" offset="51.813%"/><stop stop-color="#6CE8F0" stop-opacity=".2" offset="100%"/></linearGradient><linearGradient x1="100%" y1="65.469%" x2="21.767%" y2="32.146%" id="e"><stop stop-color="#85F0F5" stop-opacity=".3" offset="0%"/><stop stop-color="#7BD7FF" offset="51.813%"/><stop stop-color="#6CE8F0" stop-opacity=".2" offset="100%"/></linearGradient><filter x="-4.8%" y="-8.3%" width="109.7%" height="116.6%" filterUnits="objectBoundingBox" id="f"><feGaussianBlur stdDeviation="3" in="SourceGraphic"/></filter><linearGradient x1="119.052%" y1="120.521%" x2="18.53%" y2="19.602%" id="g"><stop stop-color="#245CD7" offset="0%"/><stop stop-color="#81B0FF" offset="100%"/></linearGradient><linearGradient x1="8.62%" y1="69.622%" x2="91.38%" y2="16.607%" id="h"><stop stop-color="#569AEA" offset="0%"/><stop stop-color="#2355C3" offset="100%"/></linearGradient><linearGradient x1="18.238%" y1="52.858%" x2="80.8%" y2="50%" id="i"><stop stop-color="#D2E5FF" offset="0%"/><stop stop-color="#86B1FC" offset="100%"/></linearGradient><linearGradient x1="0%" y1="30.585%" x2="102.663%" y2="69.415%" id="j"><stop stop-color="#00E2FF" offset="0%"/><stop stop-color="#D2E6FF" offset="100%"/></linearGradient><linearGradient x1="57.553%" y1="41.159%" x2="37.247%" y2="59.849%" id="k"><stop stop-color="#4E98FF" offset="0%"/><stop stop-color="#00E9FF" stop-opacity="0" offset="100%"/></linearGradient><linearGradient x1="100%" y1="58.105%" x2="-28.476%" y2="32.486%" id="l"><stop stop-color="#5697E3" offset="0%"/><stop stop-color="#2658C7" offset="100%"/></linearGradient><linearGradient x1="115.244%" y1="26.629%" x2="-17.561%" y2="73.017%" id="m"><stop stop-color="#00E2FF" offset="0%"/><stop stop-color="#D2E6FF" offset="100%"/></linearGradient><linearGradient x1="115.244%" y1="24.274%" x2="-17.561%" y2="75.336%" id="n"><stop stop-color="#00E2FF" offset="0%"/><stop stop-color="#D2E6FF" offset="100%"/></linearGradient><linearGradient x1="31.088%" y1="42.566%" x2="60.07%" y2="58.419%" id="o"><stop stop-color="#4E98FF" offset="0%"/><stop stop-color="#00E9FF" stop-opacity="0" offset="100%"/></linearGradient><linearGradient x1="93.123%" y1="50%" x2="14.675%" y2="50%" id="p"><stop stop-color="#96CEFF" offset="0%"/><stop stop-color="#CDDBE8" offset="100%"/></linearGradient><linearGradient x1="56.162%" y1="54.199%" x2="2.581%" y2="36.35%" id="q"><stop stop-color="#6BB6CD" offset="0%"/><stop stop-color="#A6E55D" offset="100%"/></linearGradient><linearGradient x1="74.226%" y1="56.106%" x2="4.524%" y2="53.706%" id="r"><stop stop-color="#91F3F7" offset="0%"/><stop stop-color="#58E3EC" offset="100%"/></linearGradient><linearGradient x1="-34.73%" y1="116.857%" x2="93.739%" y2="21.226%" id="s"><stop stop-color="#5697E3" offset="0%"/><stop stop-color="#2658C7" offset="100%"/></linearGradient><linearGradient x1="-20.365%" y1="5.18%" x2="88.1%" y2="87.675%" id="t"><stop stop-color="#D2E5FF" offset="0%"/><stop stop-color="#5992F4" offset="100%"/></linearGradient><linearGradient x1="50%" y1="39.158%" x2="63.394%" y2="55.282%" id="u"><stop stop-color="#00E2FF" offset="0%"/><stop stop-color="#D2E6FF" offset="100%"/></linearGradient><linearGradient x1="50%" y1="39.159%" x2="63.394%" y2="55.282%" id="v"><stop stop-color="#00E2FF" offset="0%"/><stop stop-color="#D2E6FF" offset="100%"/></linearGradient><linearGradient x1="50%" y1="39.152%" x2="63.394%" y2="55.285%" id="w"><stop stop-color="#00E2FF" offset="0%"/><stop stop-color="#D2E6FF" offset="100%"/></linearGradient><linearGradient x1="-34.73%" y1="117.402%" x2="93.739%" y2="20.992%" id="x"><stop stop-color="#5697E3" offset="0%"/><stop stop-color="#2658C7" offset="100%"/></linearGradient><linearGradient x1="100%" y1="50%" x2="18.681%" y2="50%" id="y"><stop stop-color="#245CD7" offset="0%"/><stop stop-color="#74A7FF" offset="100%"/></linearGradient><linearGradient x1="-20.725%" y1="5.18%" x2="88.295%" y2="87.675%" id="z"><stop stop-color="#D2E5FF" offset="0%"/><stop stop-color="#5992F4" offset="100%"/></linearGradient><linearGradient x1="50%" y1="0%" x2="50%" y2="100%" id="A"><stop stop-color="#00E2FF" offset="0%"/><stop stop-color="#D2E6FF" offset="100%"/></linearGradient><linearGradient x1="50%" y1="0%" x2="50%" y2="100%" id="B"><stop stop-color="#00E2FF" offset="0%"/><stop stop-color="#D2E6FF" offset="100%"/></linearGradient><linearGradient x1="50%" y1="0%" x2="50%" y2="100%" id="C"><stop stop-color="#00E2FF" offset="0%"/><stop stop-color="#D2E6FF" offset="100%"/></linearGradient><linearGradient x1="50%" y1="0%" x2="50%" y2="100%" id="D"><stop stop-color="#00E2FF" offset="0%"/><stop stop-color="#D2E6FF" offset="100%"/></linearGradient><linearGradient x1="50%" y1="0%" x2="50%" y2="100%" id="E"><stop stop-color="#00E2FF" offset="0%"/><stop stop-color="#D2E6FF" offset="100%"/></linearGradient><linearGradient x1="50%" y1="0%" x2="50%" y2="100%" id="F"><stop stop-color="#00E2FF" offset="0%"/><stop stop-color="#D2E6FF" offset="100%"/></linearGradient><linearGradient x1="50%" y1="100%" x2="50%" y2="5.625%" id="G"><stop stop-color="#4589E8" offset="0%"/><stop stop-color="#00E9FF" stop-opacity="0" offset="100%"/></linearGradient><linearGradient x1="50%" y1="100%" x2="50%" y2="8.541%" id="H"><stop stop-color="#4589E8" offset="0%"/><stop stop-color="#00E9FF" stop-opacity="0" offset="100%"/></linearGradient><linearGradient x1="50%" y1="0%" x2="50%" y2="100%" id="I"><stop stop-color="#76D8FF" offset="0%"/><stop stop-color="#82FFFD" stop-opacity="0" offset="100%"/></linearGradient><linearGradient x1="50%" y1="0%" x2="50%" y2="50%" id="J"><stop stop-color="#76D8FF" offset="0%"/><stop stop-color="#82FFFD" stop-opacity="0" offset="100%"/></linearGradient><linearGradient x1="-23.102%" y1="79.947%" x2="100%" y2="34.276%" id="K"><stop stop-color="#5697E3" offset="0%"/><stop stop-color="#2658C7" offset="100%"/></linearGradient><linearGradient x1="333.737%" y1="115.577%" x2="14.735%" y2="33.494%" id="L"><stop stop-color="#245CD7" offset="0%"/><stop stop-color="#8BB5FE" offset="100%"/></linearGradient><linearGradient x1="0%" y1="48.576%" x2="83.473%" y2="51.338%" id="M"><stop stop-color="#D2E5FF" offset="0%"/><stop stop-color="#86B1FC" offset="100%"/></linearGradient><linearGradient x1="41.362%" y1="28.259%" x2="57.272%" y2="74.241%" id="N"><stop stop-color="#4E98FF" offset="0%"/><stop stop-color="#00E9FF" offset="100%"/></linearGradient><linearGradient x1="54.483%" y1="79.889%" x2="54.483%" y2="20.162%" id="O"><stop stop-color="#D8E9FF" offset="0%"/><stop stop-color="#FFF" offset="100%"/></linearGradient><linearGradient x1="0%" y1="45.244%" x2="107.558%" y2="50%" id="P"><stop stop-color="#91DEC7" offset="0%"/><stop stop-color="#55BB96" offset="100%"/></linearGradient><linearGradient x1="50%" y1="-14.327%" x2="50%" y2="100%" id="S"><stop stop-color="#FDCF2D" offset="0%"/><stop stop-color="#ECAB2C" offset="100%"/></linearGradient><path d="M19.886 3.723v20.18l-.058-.001c.047.22.072.444.072.671 0 3.011-4.254 5.452-9.5 5.452-5.247 0-9.5-2.601-9.5-5.612 0-.123.007-.245.02-.366H.9V3.724h18.986z" id="R"/><filter x="-31.6%" y="-22.8%" width="163.2%" height="145.6%" filterUnits="objectBoundingBox" id="Q"><feOffset in="SourceAlpha" result="shadowOffsetOuter1"/><feGaussianBlur stdDeviation="2" in="shadowOffsetOuter1" result="shadowBlurOuter1"/><feColorMatrix values="0 0 0 0 0.748018569 0 0 0 0 0.331975413 0 0 0 0 0.00651380499 0 0 0 0.401715472 0" in="shadowBlurOuter1"/></filter><linearGradient x1="95.774%" y1="44.397%" x2="5.94%" y2="50%" id="T"><stop stop-color="#F4C73C" offset="0%"/><stop stop-color="#FFE34B" offset="100%"/></linearGradient><linearGradient x1="0%" y1="45.135%" x2="89.703%" y2="50%" id="U"><stop stop-color="#FEC" offset="0%"/><stop stop-color="#FFD927" offset="100%"/></linearGradient><linearGradient x1="50%" y1="-14.327%" x2="50%" y2="100%" id="X"><stop stop-color="#FDCF2D" offset="0%"/><stop stop-color="#ECAB2C" offset="100%"/></linearGradient><path d="M19.082 3.712v13.18c-.218 2.105-4.406 3.786-9.541 3.786-5.135 0-9.323-1.68-9.533-3.787H0V3.711h19.082z" id="W"/><filter x="-31.4%" y="-35.4%" width="162.9%" height="170.7%" filterUnits="objectBoundingBox" id="V"><feOffset in="SourceAlpha" result="shadowOffsetOuter1"/><feGaussianBlur stdDeviation="2" in="shadowOffsetOuter1" result="shadowBlurOuter1"/><feColorMatrix values="0 0 0 0 0.748018569 0 0 0 0 0.331975413 0 0 0 0 0.00651380499 0 0 0 0.401715472 0" in="shadowBlurOuter1"/></filter><linearGradient x1="95.774%" y1="47.056%" x2="5.94%" y2="50%" id="Y"><stop stop-color="#F4C73C" offset="0%"/><stop stop-color="#FFE34B" offset="100%"/></linearGradient><linearGradient x1="0%" y1="47.458%" x2="89.703%" y2="50%" id="Z"><stop stop-color="#FEC" offset="0%"/><stop stop-color="#FFD927" offset="100%"/></linearGradient><path d="M19.886 3.723v20.18l-.058-.001c.047.22.072.444.072.671 0 3.011-4.254 5.452-9.5 5.452-5.247 0-9.5-2.601-9.5-5.612 0-.123.007-.245.02-.366H.9V3.724h18.986z" id="ab"/><filter x="-31.6%" y="-22.8%" width="163.2%" height="145.6%" filterUnits="objectBoundingBox" id="aa"><feOffset in="SourceAlpha" result="shadowOffsetOuter1"/><feGaussianBlur stdDeviation="2" in="shadowOffsetOuter1" result="shadowBlurOuter1"/><feColorMatrix values="0 0 0 0 0.748018569 0 0 0 0 0.331975413 0 0 0 0 0.00651380499 0 0 0 0.401715472 0" in="shadowBlurOuter1"/></filter><linearGradient x1="50%" y1="-14.327%" x2="50%" y2="100%" id="ae"><stop stop-color="#FDCF2D" offset="0%"/><stop stop-color="#ECAB2C" offset="100%"/></linearGradient><path d="M19.886 3.723v12.18l-.058-.001c.047.22.072.444.072.671 0 3.011-4.254 5.452-9.5 5.452-5.247 0-9.5-2.601-9.5-5.612 0-.123.007-.245.02-.366H.9V3.724h18.986z" id="ad"/><filter x="-31.6%" y="-32.8%" width="163.2%" height="165.6%" filterUnits="objectBoundingBox" id="ac"><feOffset in="SourceAlpha" result="shadowOffsetOuter1"/><feGaussianBlur stdDeviation="2" in="shadowOffsetOuter1" result="shadowBlurOuter1"/><feColorMatrix values="0 0 0 0 0.748018569 0 0 0 0 0.331975413 0 0 0 0 0.00651380499 0 0 0 0.401715472 0" in="shadowBlurOuter1"/></filter><path d="M19.886 3.723v20.18l-.058-.001c.047.22.072.444.072.671 0 3.011-4.254 5.452-9.5 5.452-5.247 0-9.5-2.601-9.5-5.612 0-.123.007-.245.02-.366H.9V3.724h18.986z" id="ag"/><filter x="-31.6%" y="-22.8%" width="163.2%" height="145.6%" filterUnits="objectBoundingBox" id="af"><feOffset in="SourceAlpha" result="shadowOffsetOuter1"/><feGaussianBlur stdDeviation="2" in="shadowOffsetOuter1" result="shadowBlurOuter1"/><feColorMatrix values="0 0 0 0 0.748018569 0 0 0 0 0.331975413 0 0 0 0 0.00651380499 0 0 0 0.401715472 0" in="shadowBlurOuter1"/></filter><path d="M19.886 3.723v12.18l-.058-.001c.047.22.072.444.072.671 0 3.011-4.254 5.452-9.5 5.452-5.247 0-9.5-2.601-9.5-5.612 0-.123.007-.245.02-.366H.9V3.724h18.986z" id="ai"/><filter x="-31.6%" y="-32.8%" width="163.2%" height="165.6%" filterUnits="objectBoundingBox" id="ah"><feOffset in="SourceAlpha" result="shadowOffsetOuter1"/><feGaussianBlur stdDeviation="2" in="shadowOffsetOuter1" result="shadowBlurOuter1"/><feColorMatrix values="0 0 0 0 0.748018569 0 0 0 0 0.331975413 0 0 0 0 0.00651380499 0 0 0 0.401715472 0" in="shadowBlurOuter1"/></filter><linearGradient x1="34.294%" y1="34.752%" x2="100%" y2="65.248%" id="aj"><stop stop-color="#EFF2F6" offset="0%"/><stop stop-color="#DAE1E9" offset="100%"/></linearGradient><linearGradient x1="53.482%" y1="38.518%" x2="46.518%" y2="50%" id="ak"><stop stop-color="#DCE4EB" offset="0%"/><stop stop-color="#B7C4D3" offset="100%"/></linearGradient><linearGradient x1="39.929%" y1="5%" x2="44.733%" y2="120.472%" id="al"><stop stop-color="#FFF" offset="0%"/><stop stop-color="#D4DBE3" offset="100%"/></linearGradient><path d="M4.808 54.476l1.037 5.209 1.243-3.868.808.476 1.242 5.33 1.037-3.99.816.481-1.445 4.804-.782-.46-1.269-5.435L6.22 60.96l-.782-.46L4 54l.808.476zm6.943 4.085l2.473 1.456c.49.288.884.661 1.183 1.121.3.46.45.946.45 1.46 0 .44-.134.746-.401.916-.267.17-.678.093-1.232-.233l-1.729-1.018v2.39l-.744-.438V58.56zm3.353 3.598c0-.416-.15-.786-.45-1.111a3.014 3.014 0 0 0-.677-.518l-1.482-.872v1.959l1.482.872c.335.196.606.283.814.26.209-.024.313-.22.313-.59zm2.174 3.484c.018.331.091.635.221.912.247.52.682.963 1.306 1.33.28.165.534.273.764.326.444.103.666-.051.666-.462 0-.308-.094-.582-.281-.823-.19-.24-.486-.527-.89-.86l-.745-.61c-.487-.4-.831-.727-1.033-.982-.35-.442-.524-.897-.524-1.367 0-.508.17-.824.512-.949.342-.125.826-.003 1.453.366a5.1 5.1 0 0 1 1.468 1.293c.403.524.605 1.1.605 1.728l-.7-.412a2.385 2.385 0 0 0-.24-.837c-.227-.429-.612-.803-1.156-1.123-.44-.259-.755-.35-.947-.273-.192.077-.288.241-.288.493 0 .277.112.546.337.806.147.169.48.467 1 .896l.77.635c.372.306.659.594.86.864.35.47.525.956.525 1.46 0 .625-.222.943-.665.951-.442.01-.957-.159-1.543-.504-.684-.402-1.22-.897-1.606-1.484-.387-.584-.576-1.18-.569-1.785l.7.411zm9.128 1.389c.97.57 1.69 1.314 2.156 2.23.364.715.546 1.462.546 2.242 0 .845-.208 1.424-.625 1.738-.489.369-1.186.287-2.092-.246a5.389 5.389 0 0 1-1.995-2.036c-.431-.808-.647-1.636-.647-2.482 0-.765.184-1.31.554-1.637.474-.42 1.175-.356 2.103.19zm.075 5.332c.656.386 1.13.423 1.424.112.293-.31.44-.78.44-1.41 0-.664-.17-1.298-.508-1.903a3.738 3.738 0 0 0-1.386-1.424c-.569-.334-1.033-.407-1.392-.217-.36.19-.54.677-.54 1.46 0 .625.155 1.244.463 1.855.308.611.808 1.12 1.499 1.527zm3.593-2.116c.01-.281.058-.463.146-.545.157-.143.46-.083.909.181a3.726 3.726 0 0 1 .284.183v.631a8.993 8.993 0 0 0-.24-.152c-.204-.12-.326-.138-.366-.053-.04.086-.06.352-.06.798l.666.392v.547l-.673-.397v3.557l-.666-.392V71.44l-.558-.328v-.546l.558.328v-.647zm1.994 1.174c.01-.281.059-.463.146-.545.157-.144.46-.083.91.181a3.726 3.726 0 0 1 .284.183v.631a8.993 8.993 0 0 0-.24-.152c-.204-.12-.326-.138-.366-.053-.04.086-.06.352-.06.798l.666.392v.547l-.674-.397v3.557l-.666-.392v-3.557l-.557-.328v-.546l.557.328v-.647zm1.961 1.8l.685.404v4.103l-.685-.403v-4.103zm0-1.55l.685.403v.785l-.685-.403v-.785zm3.249 3.324c.451.266.819.595 1.102.987.283.393.453.882.51 1.467l-.654-.385a2.255 2.255 0 0 0-.273-.794c-.143-.252-.37-.47-.685-.655-.43-.253-.736-.218-.92.104-.12.21-.18.52-.18.93 0 .413.084.81.254 1.193.17.382.437.68.8.894.28.165.502.207.665.128.164-.08.276-.254.339-.523l.655.386c-.075.502-.262.792-.562.868-.299.077-.682-.022-1.148-.297a3.344 3.344 0 0 1-1.254-1.328c-.312-.578-.468-1.161-.468-1.752 0-.723.17-1.186.513-1.387.342-.202.777-.147 1.306.164zm3.956 2.355c.284.167.56.398.827.692.267.295.47.592.61.892.134.288.224.583.27.886.039.214.059.528.059.944l-2.938-1.729c.013.426.109.818.288 1.176.18.359.458.649.835.87.352.207.632.253.842.138a.563.563 0 0 0 .254-.331l.663.39a.823.823 0 0 1-.174.403.763.763 0 0 1-.331.261c-.205.085-.458.075-.76-.031a2.982 2.982 0 0 1-.55-.262c-.5-.294-.922-.73-1.269-1.307a3.576 3.576 0 0 1-.52-1.874c0-.662.175-1.097.524-1.305.35-.207.806-.145 1.37.187zm1.074 2.456a2.77 2.77 0 0 0-.191-.832 2.151 2.151 0 0 0-.925-1.044c-.309-.182-.568-.22-.778-.114-.21.107-.32.333-.333.68l2.227 1.31z" id="am"/><path d="M25.341 40.958c.251-.416.807-.464 1.42-.122l9.681 5.406c1.147.641 1.9 2.256 1.402 3.008L28.94 62.675c-.575.866-2.279-.109-2.82-1.613l-2.172-6.026 1.706-2.83 1.934 5.368 6.376-9.614-6.197-3.46-3.06 5.076L23 52.406l-3.12 5.172c-.541.899-2.245-.03-2.82-1.537L8.156 32.67c-.498-1.308.255-2.083 1.402-1.442l9.682 5.407c.612.342 1.168 1.01 1.419 1.707l1.393 3.867-1.706 2.829-2.113-5.863-6.197-3.461 6.376 16.734 2.882-4.779L23 44.84l2.341-3.882z" id="an"/><filter x="-1.7%" y="-1.6%" width="103.3%" height="103.1%" filterUnits="objectBoundingBox" id="ao"><feGaussianBlur stdDeviation=".5" in="SourceAlpha" result="shadowBlurInner1"/><feOffset in="shadowBlurInner1" result="shadowOffsetInner1"/><feComposite in="shadowOffsetInner1" in2="SourceAlpha" operator="arithmetic" k2="-1" k3="1" result="shadowInnerInner1"/><feColorMatrix values="0 0 0 0 0 0 0 0 0 0 0 0 0 0 0 0 0 0 0.25 0" in="shadowInnerInner1"/></filter></defs><g fill="none" fill-rule="evenodd"><g stroke-linecap="round" stroke-width="2"><path d="M179 75l-9.165 5.499a4 4 0 0 0 .062 6.896l90.54 52.129a5 5 0 0 0 5.09-.06L276 133.1h0" stroke="url(#a)" transform="translate(119 213)"/><path d="M282 11.8l17.341-10.37a6 6 0 0 1 6.129-.02l88.126 51.992a3 3 0 0 1-.013 5.175L374 70h0" stroke="url(#b)" transform="translate(119 213)"/><path d="M132 49L80.11 80.134a6 6 0 0 1-6.207-.02L54 68h0" stroke="url(#c)" transform="translate(119 213)"/><path d="M15 87v25.783a4 4 0 0 1-1.88 3.392l-11.295 7.06a2 2 0 0 0 .061 3.428l54.033 31.138a4 4 0 0 0 4.117-.074L69.2 152h0" stroke="url(#d)" transform="translate(119 213)"/><path d="M175.1 65.5l-41 24.5" stroke="url(#e)" transform="translate(119 213)"/></g><path fill="#88C1FF" opacity=".35" filter="url(#f)" d="M.208 114.08l92-54.68 93.81 54.74-91.754 53.98z" transform="translate(216 139)"/><path fill="url(#g)" d="M.291 55.08l94.2 54.15.012 46.4-94.2-54.14z" transform="translate(216 139)"/><path fill="url(#h)" d="M94.262 108.87l91.709-53.79v47.02l-91.709 53.79z" transform="translate(216 139)"/><path fill="url(#i)" d="M.208 55.08l92-54.68 93.81 54.74-91.754 53.98z" transform="translate(216 139)"/><g transform="translate(231 216)" fill="url(#j)"><path d="M63.875 38.72a1.071 1.071 0 0 1-1.615.923L1.618 3.916A3.287 3.287 0 0 1 0 1.084 1.073 1.073 0 0 1 1.618.159L62.26 35.894a3.28 3.28 0 0 1 1.615 2.826zM63.875 47.068a1.071 1.071 0 0 1-1.615.923L1.618 12.263A3.287 3.287 0 0 1 0 9.432a1.073 1.073 0 0 1 1.618-.925L62.26 44.242a3.28 3.28 0 0 1 1.615 2.826zM63.875 55.416a1.071 1.071 0 0 1-1.615.923L1.618 20.61A3.287 3.287 0 0 1 0 17.779a1.073 1.073 0 0 1 1.618-.924L62.26 52.59a3.28 3.28 0 0 1 1.615 2.826z"/></g><g transform="translate(172 218)" fill="url(#k)"><path opacity=".201" d="M.316 53.395l59.84-35.627 61.308 35.191-59.84 35.627z"/><path opacity=".304" d="M.316 45.127L60.156 9.5l61.308 35.191-59.84 35.627z"/><path opacity=".45" d="M.316 36.108L60.156.48l61.308 35.191-59.84 35.627z"/></g><path fill="url(#l)" d="M89 54.209L137.404 25 187 53.803 138.594 83z" transform="translate(172 139)"/><g><path d="M65.506 1.35a4.103 4.103 0 0 1-2.027 3.539L2.027 40.93A1.346 1.346 0 0 1 0 39.77c0-1.456.771-2.802 2.027-3.539L63.48.19a1.346 1.346 0 0 1 2.027 1.161z" fill="url(#m)" transform="translate(326 215)"/><path d="M2.027 44.64L63.469 8.593A1.349 1.349 0 0 1 65.5 9.755a4.112 4.112 0 0 1-2.031 3.547L2.027 49.34A1.346 1.346 0 0 1 0 48.18c0-1.456.771-2.803 2.027-3.54zM2.031 53.228L63.473 17.19A1.346 1.346 0 0 1 65.5 18.35a4.103 4.103 0 0 1-2.027 3.54L2.031 57.937A1.349 1.349 0 0 1 0 56.775c0-1.459.773-2.808 2.031-3.547z" fill="url(#n)" transform="translate(326 215)"/><g transform="translate(326 216)" fill="url(#o)"><path opacity=".201" d="M1.143 56.138L65.981 17.6l53.162 30.462L54.309 86.6z"/><path opacity=".304" d="M1.143 47.434L65.981 8.9l53.162 30.466L54.309 77.9z"/><path opacity=".45" d="M.143 39.434L64.981.9l53.162 30.456L53.309 69.9z"/></g></g><g><path d="M26.226 107.32l27.279-16.28a2.681 2.681 0 0 1 2.45 0l16.531 9.28a.758.758 0 0 1 .031 1.43l-27.76 16.27a2.681 2.681 0 0 1-2.45.01l-16.05-9.28a.758.758 0 0 1-.031-1.43z" fill="url(#p)" transform="translate(115 192)"/><path fill="#B3C7DA" d="M188.079 293.18l-28.738 16.98v1.92l28.738-17zM140.75 299.76l18.585 10.4v1.92l-18.585-10.4z"/><path fill="#6B93B7" d="M157.563 286.29l-1.61-.95v13.49l1.61.94z"/><path d="M198.927 192.83l-79.806 45.53a5.5 5.5 0 0 0-2.526 4.33v65.17c0 1.6 1.131 2.23 2.526 1.41l79.806-46.71a5.471 5.471 0 0 0 2.437-4.27v-64.01c0-1.57-1.091-2.22-2.437-1.45z" fill="#E9F0F7"/><path fill="url(#q)" d="M84.311 3.2L3.318 49.5v56.39l80.993-47.31z" transform="translate(115 192)"/><path fill="#DCE7F2" d="M157.56 299.76l-.146-13.1 11.077-6.74v13z"/><path fill="#6EABE1" opacity=".398" d="M168.491 280.1v2.41l-11.077 6.74v-2.41z"/><path fill="#C5CFD7" d="M117.268 240.17l-1.968-.88-.045 69.05 2.013 1.18z"/><path fill="#C5E3FF" d="M115.3 239.3l82.923-47.06 2.087.31-83.074 47.85z"/><path fill="#FFF" d="M191.456 204.05l-64.23 36.8v53.03l64.23-37.56v-52.27z"/><path fill="#CDCDCD" d="M191.456 204.05l-64.23 36.8v3.51l64.23-36.85v-3.46z"/><path fill="#EDEDED" d="M191.456 207.51l-64.23 36.85v5.85l64.23-36.94v-5.76z"/><path fill="#F1F2F3" d="M180.892 223.95l-44.433 25.5v28.78l44.433-25.77z"/><path fill="#6FC2A4" d="M180.231 255.92l-1.656.96v1.93l1.656-.96z"/><path fill="#DBDDDE" d="M177.581 257.46l-8.631 5.01v1.55l8.631-5.02z"/><path fill="#ECAB2C" d="M164.289 265.18l-1.667.97v1.93l1.667-.96v-1.94z"/><path fill="#DBDDDE" d="M161.621 266.73l-8.692 5.05v1.55l8.692-5.05v-1.55zM145.213 276.65l-8.754 5.08v1.56l8.754-5.09v-1.55z"/><path d="M176.919 250.13s-2.275-6.67-4.645-5.03c-3.154 2.2-3.093 5.91-6.319 7.91s-3.233-5.92-6.337-3.69c-3.104 2.23-3.417 9.29-6.689 11.22-3.272 1.93-3.229-9.27-7.044-6.8-2.5 1.62-3.748 10.51-4.708 15.15a4.754 4.754 0 0 1-2.358 3.31l38.1-22.07z" fill="#6FC2A4"/><path stroke="#ECAB2C" d="M178.575 243.78l-6.3-4.08-5.32 7.7-7.67-5.25-6.355 11.8-6.708-7.78"/></g><g><path fill="url(#r)" d="M.344 30.37L50.57.51l34.317 19.75-50.225 29.86z" transform="translate(173 308)"/><path fill="url(#s)" d="M84.739 20.42v20L34.62 69.64l-.034-19.8z" transform="translate(173 308)"/><path fill="url(#t)" d="M.287 30.3l34.341 19.51v19.83L.287 49.83z" transform="translate(173 308)"/><g><path d="M9.905 19.68l7.523-4.42a.779.779 0 0 1 1.259.77 2.849 2.849 0 0 1-1.249 2.23l-7.533 4.42a.773.773 0 0 1-1.249-.77v-.01a2.83 2.83 0 0 1 1.249-2.22zM9.905 24.68l7.523-4.42a.779.779 0 0 1 1.259.77 2.849 2.849 0 0 1-1.249 2.23l-7.533 4.42a.773.773 0 0 1-1.249-.77v-.01a2.83 2.83 0 0 1 1.249-2.22z" fill="url(#u)" transform="translate(211 336)"/><path d="M22.443 12.32l7.523-4.41a.776.776 0 0 1 1.259.77 2.83 2.83 0 0 1-1.249 2.22l-7.533 4.42a.768.768 0 0 1-1.249-.76v-.01a2.852 2.852 0 0 1 1.249-2.23zM22.443 17.32l7.523-4.41a.776.776 0 0 1 1.259.77 2.83 2.83 0 0 1-1.249 2.22l-7.533 4.42a.768.768 0 0 1-1.249-.76v-.01a2.852 2.852 0 0 1 1.249-2.23z" fill="url(#v)" transform="translate(211 336)"/><path d="M34.145 5.46l7.523-4.42a.779.779 0 0 1 1.259.77 2.849 2.849 0 0 1-1.249 2.23l-7.533 4.42a.771.771 0 0 1-1.248-.76v-.02a2.832 2.832 0 0 1 1.248-2.22zM34.145 10.46l7.523-4.42a.779.779 0 0 1 1.259.77 2.849 2.849 0 0 1-1.249 2.23l-7.533 4.42a.771.771 0 0 1-1.248-.76v-.02a2.832 2.832 0 0 1 1.248-2.22z" fill="url(#w)" transform="translate(211 336)"/><path d="M213.805 360.84c1.385-.81 2.508-.13 2.508 1.53a5.7 5.7 0 0 1-2.508 4.47c-1.385.81-2.507.13-2.507-1.53a5.7 5.7 0 0 1 2.507-4.47z" fill="#58E3EC"/></g><g><path fill="url(#x)" d="M34.586 49.16l50.153-29.42v20L34.586 69.16v-20z" transform="translate(173 286)"/><path fill="url(#y)" d="M.244 29.89L50.47.03l34.317 19.75-50.225 29.85z" transform="translate(173 286)"/><path fill="url(#z)" d="M.287 29.92l34.341 19.41v19.83L.287 49.35z" transform="translate(173 286)"/><g stroke="#58E3EC" stroke-linecap="round"><path d="M173.8 326.6l33.3 19.3M173.8 348l33.3 19.3"/></g><g><path d="M10.157 17.99a.771.771 0 0 1 1.249.76v9.02a2.83 2.83 0 0 1-1.249 2.22l-.01.01a.771.771 0 0 1-1.249-.76v-9a2.882 2.882 0 0 1 1.259-2.25z" fill="url(#A)" transform="translate(211 314)"/><path d="M15.173 15.05a.771.771 0 0 1 1.248.76v9.01a2.835 2.835 0 0 1-1.248 2.23l-.011.01a.773.773 0 0 1-1.248-.77v-9a2.861 2.861 0 0 1 1.259-2.24z" fill="url(#B)" transform="translate(211 314)"/><path d="M20.188 12.11a.77.77 0 0 1 1.249.76v9.01a2.852 2.852 0 0 1-1.249 2.23h-.01a.768.768 0 0 1-1.249-.76v-9a2.864 2.864 0 0 1 1.259-2.24z" fill="url(#C)" transform="translate(211 314)"/><path d="M25.2 9.17a.768.768 0 0 1 1.249.76v9.01a2.849 2.849 0 0 1-1.249 2.23h-.01a.768.768 0 0 1-1.249-.76v-9A2.848 2.848 0 0 1 25.2 9.17z" fill="url(#D)" transform="translate(211 314)"/><path d="M30.218 6.22a.773.773 0 0 1 1.249.77V16a2.83 2.83 0 0 1-1.249 2.22l-.01.01a.77.77 0 0 1-1.249-.76v-9a2.882 2.882 0 0 1 1.259-2.25z" fill="url(#E)" transform="translate(211 314)"/><path d="M35.234 3.28a.771.771 0 0 1 1.248.76v9.02a2.832 2.832 0 0 1-1.248 2.22l-.011.01a.771.771 0 0 1-1.248-.76v-9a2.88 2.88 0 0 1 1.259-2.25z" fill="url(#F)" transform="translate(211 314)"/><path d="M40.249.34a.771.771 0 0 1 1.249.76v9.01a2.836 2.836 0 0 1-1.249 2.23l-.01.01a.771.771 0 0 1-1.249-.76v-9A2.867 2.867 0 0 1 40.249.34z" fill="url(#A)" transform="translate(211 314)"/><path d="M214.047 339.16c1.385-.81 2.508-.12 2.508 1.53a5.7 5.7 0 0 1-2.508 4.47c-1.385.82-2.507.13-2.507-1.53a5.727 5.727 0 0 1 2.507-4.47z" fill="#58E3EC"/></g></g></g><g><path fill="url(#G)" opacity=".3" d="M0 177.1l93.96 54.02L185.7 177V0H.7z" transform="translate(216.3 18)"/><path fill="url(#H)" opacity=".4" d="M44.7 176l49.5 29 48.5-29V51h-98z" transform="translate(216.3 18)"/><g transform="translate(288 152)"><rect fill="url(#I)" transform="matrix(-1 0 0 1 1 0)" width="1" height="37" rx=".5"/><rect fill="url(#I)" transform="matrix(-1 0 0 1 43 0)" x="21" y="29" width="1" height="37" rx=".5"/><rect fill="url(#I)" transform="matrix(-1 0 0 1 25 0)" x="12" y="17" width="1" height="37" rx=".5"/><rect fill="url(#I)" transform="matrix(-1 0 0 1 61 0)" x="30" y="16" width="1" height="37" rx=".5"/><rect fill="url(#J)" transform="matrix(-1 0 0 1 85 0)" x="42" y="24" width="1" height="37" rx=".5"/></g></g><g><path fill="url(#K)" d="M60.51 93.86l100.305-58.83v10l-100.3 58.83v-10z" transform="translate(359 258)"/><path fill="url(#L)" d="M.575 59.28l60.1 34.7v9.9l-60.1-34.7z" transform="translate(359 258)"/><path fill="url(#M)" d="M.578 59.35L100.978.66 160.8 35.11 60.6 94.91z" transform="translate(359 258)"/><g><path fill="url(#N)" opacity=".8" d="M92.336.28L96.3 3.3v85L4.4 142.2.5 140 .389 54.21z" transform="translate(388 190)"/><path fill="url(#O)" d="M4.389 57.21L96.336 3.28v85L4.389 142.21v-85z" transform="translate(388 190)"/><g stroke-linecap="round" stroke-linejoin="round" stroke-width="2"><path d="M0 .5c4.365 15.25 8.365 22.917 12 23 5.453.124 8.31-15.683 12-18 3.69-2.317 6.26 22.401 10.5 20.5 4.24-1.901 5.613-18.483 14-19.5 5.591-.678 12.258 5.822 20 19.5" stroke="url(#P)" transform="rotate(-12 1417.781 -1783.902)"/><path stroke="#3CBA8C" d="M474.394 259.447l1.183 8.722-8.923-1.058"/></g></g><g><g transform="translate(441 282)"><use fill="#000" filter="url(#Q)" xlink:href="#R"/><use fill="url(#S)" xlink:href="#R"/></g><path d="M10.54 10.904c5.27 0 9.542-2.44 9.542-5.452C20.082 2.441 15.81 0 10.54 0 5.27 0 1 2.441 1 5.452s4.272 5.452 9.54 5.452z" fill="url(#T)" fill-rule="nonzero" transform="translate(441 282)"/><path d="M20.042 17.024c.026.164.04.331.04.5 0 3.01-4.272 5.452-9.541 5.452C5.27 22.976 1 20.535 1 17.524c0-.169.013-.336.04-.5.442 2.777 4.527 4.952 9.5 4.952 4.966 0 9.046-2.168 9.5-4.937z" fill="url(#U)" fill-rule="nonzero" transform="translate(441 282)"/><path d="M20.042 13.024c.026.164.04.331.04.5 0 3.01-4.272 5.452-9.541 5.452C5.27 18.976 1 16.535 1 13.524c0-.169.013-.336.04-.5.442 2.777 4.527 4.952 9.5 4.952 4.966 0 9.046-2.168 9.5-4.937z" fill="url(#U)" fill-rule="nonzero" transform="translate(441 282)"/><path d="M20.042 9.024c.026.164.04.331.04.5 0 3.01-4.272 5.452-9.541 5.452C5.27 14.976 1 12.535 1 9.524c0-.169.013-.336.04-.5.442 2.777 4.527 4.952 9.5 4.952 4.966 0 9.046-2.168 9.5-4.937zM20.042 21.024c.026.164.04.331.04.5 0 3.01-4.272 5.452-9.541 5.452C5.27 26.976 1 24.535 1 21.524c0-.169.013-.336.04-.5.442 2.777 4.527 4.952 9.5 4.952 4.966 0 9.046-2.168 9.5-4.937z" fill="url(#U)" fill-rule="nonzero" transform="translate(441 282)"/><g transform="translate(439 308)"><use fill="#000" filter="url(#V)" xlink:href="#W"/><use fill="url(#X)" xlink:href="#W"/><ellipse fill="url(#Y)" fill-rule="nonzero" cx="9.541" cy="3.952" rx="9.541" ry="3.952"/><path d="M.037 8.6c.428 2.019 4.52 3.602 9.504 3.602 4.985 0 9.076-1.583 9.504-3.602.024.115.037.232.037.35 0 2.183-4.272 3.952-9.541 3.952C4.27 12.902 0 11.132 0 8.95c0-.118.012-.235.037-.35" fill="url(#Z)" fill-rule="nonzero"/><path d="M.037 12.6c.428 2.019 4.52 3.602 9.504 3.602 4.985 0 9.076-1.583 9.504-3.602.024.115.037.232.037.35 0 2.183-4.272 3.952-9.541 3.952C4.27 16.902 0 15.132 0 12.95c0-.118.012-.235.037-.35" fill="url(#Z)" fill-rule="nonzero"/></g><g><g transform="translate(422 292)"><use fill="#000" filter="url(#aa)" xlink:href="#ab"/><use fill="url(#S)" xlink:href="#ab"/></g><path d="M10.54 10.904c5.27 0 9.542-2.44 9.542-5.452C20.082 2.441 15.81 0 10.54 0 5.27 0 1 2.441 1 5.452s4.272 5.452 9.54 5.452z" fill="url(#T)" fill-rule="nonzero" transform="translate(422 292)"/><path d="M20.042 17.024c.026.164.04.331.04.5 0 3.01-4.272 5.452-9.541 5.452C5.27 22.976 1 20.535 1 17.524c0-.169.013-.336.04-.5.442 2.777 4.527 4.952 9.5 4.952 4.966 0 9.046-2.168 9.5-4.937z" fill="url(#U)" fill-rule="nonzero" transform="translate(422 292)"/><path d="M20.042 13.024c.026.164.04.331.04.5 0 3.01-4.272 5.452-9.541 5.452C5.27 18.976 1 16.535 1 13.524c0-.169.013-.336.04-.5.442 2.777 4.527 4.952 9.5 4.952 4.966 0 9.046-2.168 9.5-4.937z" fill="url(#U)" fill-rule="nonzero" transform="translate(422 292)"/><path d="M20.042 9.024c.026.164.04.331.04.5 0 3.01-4.272 5.452-9.541 5.452C5.27 14.976 1 12.535 1 9.524c0-.169.013-.336.04-.5.442 2.777 4.527 4.952 9.5 4.952 4.966 0 9.046-2.168 9.5-4.937zM20.042 21.024c.026.164.04.331.04.5 0 3.01-4.272 5.452-9.541 5.452C5.27 26.976 1 24.535 1 21.524c0-.169.013-.336.04-.5.442 2.777 4.527 4.952 9.5 4.952 4.966 0 9.046-2.168 9.5-4.937z" fill="url(#U)" fill-rule="nonzero" transform="translate(422 292)"/></g><g transform="translate(439 307)"><use fill="#000" filter="url(#ac)" xlink:href="#ad"/><use fill="url(#ae)" xlink:href="#ad"/><ellipse fill="url(#T)" fill-rule="nonzero" cx="10.541" cy="5.452" rx="9.541" ry="5.452"/><path d="M20.042 9.024c.026.164.04.331.04.5 0 3.01-4.272 5.452-9.541 5.452C5.27 14.976 1 12.535 1 9.524c0-.169.013-.336.04-.5.442 2.777 4.527 4.952 9.5 4.952 4.966 0 9.046-2.168 9.5-4.937z" fill="url(#U)" fill-rule="nonzero"/><path d="M20.042 13.024c.026.164.04.331.04.5 0 3.01-4.272 5.452-9.541 5.452C5.27 18.976 1 16.535 1 13.524c0-.169.013-.336.04-.5.442 2.777 4.527 4.952 9.5 4.952 4.966 0 9.046-2.168 9.5-4.937z" fill="url(#U)" fill-rule="nonzero"/></g><g><g transform="translate(404 303)"><use fill="#000" filter="url(#af)" xlink:href="#ag"/><use fill="url(#S)" xlink:href="#ag"/></g><path d="M10.54 10.904c5.27 0 9.542-2.44 9.542-5.452C20.082 2.441 15.81 0 10.54 0 5.27 0 1 2.441 1 5.452s4.272 5.452 9.54 5.452z" fill="url(#T)" fill-rule="nonzero" transform="translate(404 303)"/><path d="M20.042 17.024c.026.164.04.331.04.5 0 3.01-4.272 5.452-9.541 5.452C5.27 22.976 1 20.535 1 17.524c0-.169.013-.336.04-.5.442 2.777 4.527 4.952 9.5 4.952 4.966 0 9.046-2.168 9.5-4.937z" fill="url(#U)" fill-rule="nonzero" transform="translate(404 303)"/><path d="M20.042 13.024c.026.164.04.331.04.5 0 3.01-4.272 5.452-9.541 5.452C5.27 18.976 1 16.535 1 13.524c0-.169.013-.336.04-.5.442 2.777 4.527 4.952 9.5 4.952 4.966 0 9.046-2.168 9.5-4.937z" fill="url(#U)" fill-rule="nonzero" transform="translate(404 303)"/><path d="M20.042 9.024c.026.164.04.331.04.5 0 3.01-4.272 5.452-9.541 5.452C5.27 14.976 1 12.535 1 9.524c0-.169.013-.336.04-.5.442 2.777 4.527 4.952 9.5 4.952 4.966 0 9.046-2.168 9.5-4.937zM20.042 21.024c.026.164.04.331.04.5 0 3.01-4.272 5.452-9.541 5.452C5.27 26.976 1 24.535 1 21.524c0-.169.013-.336.04-.5.442 2.777 4.527 4.952 9.5 4.952 4.966 0 9.046-2.168 9.5-4.937z" fill="url(#U)" fill-rule="nonzero" transform="translate(404 303)"/></g><g transform="translate(421 317)"><use fill="#000" filter="url(#ah)" xlink:href="#ai"/><use fill="url(#ae)" xlink:href="#ai"/><ellipse fill="url(#T)" fill-rule="nonzero" cx="10.541" cy="5.452" rx="9.541" ry="5.452"/><path d="M20.042 9.024c.026.164.04.331.04.5 0 3.01-4.272 5.452-9.541 5.452C5.27 14.976 1 12.535 1 9.524c0-.169.013-.336.04-.5.442 2.777 4.527 4.952 9.5 4.952 4.966 0 9.046-2.168 9.5-4.937z" fill="url(#U)" fill-rule="nonzero"/><path d="M20.042 13.024c.026.164.04.331.04.5 0 3.01-4.272 5.452-9.541 5.452C5.27 18.976 1 16.535 1 13.524c0-.169.013-.336.04-.5.442 2.777 4.527 4.952 9.5 4.952 4.966 0 9.046-2.168 9.5-4.937z" fill="url(#U)" fill-rule="nonzero"/></g></g></g><g><path fill="url(#aj)" d="M67 26.255L17.278 0 0 10l49 27z" transform="translate(277 69)"/><path fill="url(#ak)" d="M48 37.036L67 26l-.047 60.734L48.95 98z" transform="translate(277 69)"/><path fill="#1349D4" d="M326 161l18-10-.047 6.456L326 168z"/><path fill="url(#al)" d="M0 10l48.99 26.815L49 99 .01 72.185z" transform="translate(277 69)"/><path fill="#537FF0" d="M277 134l49 26.991V168l-48.987-26.884z"/><path fill="#C5CED7" d="M334 100.592v.608l-48-26.592V74z"/><g transform="translate(277 69)"><use fill="#000" xlink:href="#am"/><use fill="#BECADB" xlink:href="#am"/></g><g transform="translate(277 69)"><use fill="#417FF9" xlink:href="#an"/><use fill="#000" filter="url(#ao)" xlink:href="#an"/></g></g></g></svg>