<svg width="48" height="48" xmlns="http://www.w3.org/2000/svg"><g fill="none" fill-rule="evenodd"><g transform="translate(4 5)"><path d="M23.172 0a2 2 0 0 1 1.414.586l6.828 6.828A2 2 0 0 1 32 8.828V18a1 1 0 0 1-2 0v-8h-6a2 2 0 0 1-2-2V2.007L3 2a1 1 0 0 0-.993.883L2 3v32a1 1 0 0 0 1 1h21a1 1 0 0 1 0 2H3a3 3 0 0 1-3-3V3a3 3 0 0 1 3-3zm5.847 8L24 3v5h5.02z" fill-opacity=".8" fill="#000"/><rect fill="#367BFF" x="7" y="10" width="11" height="2" rx="1"/><rect fill="#367BFF" x="7" y="17" width="18" height="2" rx="1"/><rect fill="#367BFF" x="7" y="24" width="11" height="2" rx="1"/></g><g transform="translate(24 26)"><path d="M.75 7C2.35 2.903 6.336 0 11 0s8.65 2.903 10.25 7c-1.6 4.097-5.586 7-10.25 7S2.35 11.097.75 7zM11 12a9.003 9.003 0 0 0 8.065-5A9.003 9.003 0 0 0 11 2a9.003 9.003 0 0 0-8.065 5A9.003 9.003 0 0 0 11 12z" fill-opacity=".8" fill="#000"/><circle fill="#367BFF" cx="11" cy="7" r="3"/></g></g></svg>