<svg width="48" height="48" xmlns="http://www.w3.org/2000/svg"><g fill="none" fill-rule="evenodd"><path d="M25 33h-2a1 1 0 0 1-1-1v-3a2 2 0 0 1-2-2v-5a2 2 0 0 1 2-2h4a2 2 0 0 1 2 2v5a2 2 0 0 1-2 2v3a1 1 0 0 1-1 1zm-1-14a3 3 0 1 0 0-6 3 3 0 0 0 0 6z" fill="#367BFF"/><path d="M24 42c10.348 0 19-8.365 19-19 0-10.494-8.506-19-19-19C13.365 4 5 12.652 5 23c0 10.494 8.506 19 19 19zm0 2C12.402 44 3 34.598 3 23 3 11.562 12.246 2 24 2c11.598 0 21 9.402 21 21 0 11.754-9.562 21-21 21z" fill-opacity=".8" fill="#000" fill-rule="nonzero"/><path d="M24 35c6.628 0 12-5.372 12-12s-5.372-12-12-12-12 5.372-12 12 5.372 12 12 12zm0 2c-7.732 0-14-6.268-14-14S16.268 9 24 9s14 6.268 14 14-6.268 14-14 14z" fill-opacity=".8" fill="#000" fill-rule="nonzero"/><path d="M23 2h2v7a1 1 0 0 1-2 0V2zm1 34a1 1 0 0 1 1 1v7h-2v-7a1 1 0 0 1 1-1zm21-14v2H35a1 1 0 1 1 0-2h10zm-31 1a1 1 0 0 1-1 1H3v-2h10a1 1 0 0 1 1 1z" fill="#367BFF" fill-rule="nonzero"/></g></svg>