<svg width="90" height="90" xmlns="http://www.w3.org/2000/svg"><defs><linearGradient x1="75.301%" y1="94.607%" x2="29.164%" y2="30.293%" id="a"><stop stop-color="#344FC3" stop-opacity="0" offset="0%"/><stop stop-color="#344FC3" offset="100%"/></linearGradient></defs><g fill="none" fill-rule="evenodd"><rect fill="#5878E0" width="90" height="90" rx="20"/><path fill="url(#a)" opacity=".4" d="M46.102 18.115l-28.626 50.92 31.75 30.117 41.456-.44V58.72z"/><circle fill="#FFF" cx="45" cy="28" r="10"/><circle fill="#FFF" cx="24" cy="62" r="10"/><path d="M58.585 60l1.32 2h7.928l1.668 3H39.72c.185-.971.281-1.974.281-3v-2h18.585zM34.048 39.664a16.03 16.03 0 0 0 4.144 2.82l-8.098 13.918c-2.128.047-4.102.125-5.922.236l9.876-16.974zM45 20.94l14.48 26.04a15.973 15.973 0 0 0-4.364 2.439L45 31.227V20.939z" fill="#FFF" fill-rule="nonzero"/><circle fill="#FFF" cx="65" cy="62" r="10"/></g></svg>