<svg width="48" height="48" xmlns="http://www.w3.org/2000/svg"><g fill="none" fill-rule="evenodd"><path d="M7 29V13a3 3 0 0 1 3-3h5V7a3 3 0 0 1 3-3h21a3 3 0 0 1 3 3v22h1a2 2 0 0 1 2 2v8a4 4 0 0 1-4 4H8a4 4 0 0 1-4-4v-8a2 2 0 0 1 2-2h1zm2 0h6V12h-5a1 1 0 0 0-1 1v16zm8 0h3a1 1 0 0 1 1 1v1.5a2.5 2.5 0 0 0 2.5 2.5h2a2.5 2.5 0 0 0 2.5-2.5V30a1 1 0 0 1 1-1h11V7a1 1 0 0 0-1-1H18a1 1 0 0 0-1 1v22zM6 31v8a2 2 0 0 0 2 2h33a2 2 0 0 0 2-2v-8H30a5 5 0 0 1-5 5h-1a5 5 0 0 1-5-5H6z" fill-opacity=".8" fill="#000"/><path d="M34.5 22a1 1 0 0 1 0 2h-13a1 1 0 0 1 0-2h13zm0-5a1 1 0 0 1 0 2h-13a1 1 0 0 1 0-2h13zm0-5a1 1 0 0 1 0 2h-13a1 1 0 0 1 0-2h13z" fill="#367BFF"/></g></svg>