<svg width="600" height="400" xmlns="http://www.w3.org/2000/svg" xmlns:xlink="http://www.w3.org/1999/xlink"><defs><linearGradient x1="42.36%" y1="24.027%" x2="29.487%" y2="73.009%" id="a"><stop stop-color="#4E98FF" offset="0%"/><stop stop-color="#00E9FF" stop-opacity="0" offset="100%"/></linearGradient><linearGradient x1="40.179%" y1="28.259%" x2="34.279%" y2="90.883%" id="b"><stop stop-color="#4E98FF" offset="0%"/><stop stop-color="#00E9FF" stop-opacity="0" offset="100%"/><stop stop-color="#00E9FF" stop-opacity="0" offset="100%"/></linearGradient><linearGradient x1="40.179%" y1="28.259%" x2="29.132%" y2="100%" id="c"><stop stop-color="#4E98FF" offset="0%"/><stop stop-color="#00E9FF" stop-opacity="0" offset="100%"/></linearGradient><linearGradient x1="82.4%" y1="61.84%" x2="22.268%" y2="0%" id="f"><stop stop-color="#3582E3" offset="0%"/><stop stop-color="#E7F2FF" offset="100%"/></linearGradient><path id="e" d="M5.3.8l171.616 97.19v140.3L5.2 137.79.046 3.5z"/><filter x="-11.6%" y="-11.2%" width="127.7%" height="120.6%" filterUnits="objectBoundingBox" id="d"><feOffset dx="4" dy="-2" in="SourceAlpha" result="shadowOffsetOuter1"/><feGaussianBlur stdDeviation="7.5" in="shadowOffsetOuter1" result="shadowBlurOuter1"/><feColorMatrix values="0 0 0 0 0 0 0 0 0 0.350738895 0 0 0 0 0.756085824 0 0 0 0.2 0" in="shadowBlurOuter1"/></filter><linearGradient x1="70.598%" y1="56.2%" x2="32.747%" y2="39.347%" id="i"><stop stop-color="#245CD7" offset="0%"/><stop stop-color="#6C96E7" offset="63.782%"/><stop stop-color="#74A7FF" offset="100%"/></linearGradient><path id="h" d="M.046 3.5l171.67 97.95v140.3L0 141.25z"/><filter x="-6.4%" y="-4.1%" width="114%" height="110.7%" filterUnits="objectBoundingBox" id="g"><feMorphology radius=".5" operator="dilate" in="SourceAlpha" result="shadowSpreadOuter1"/><feOffset dx="1" dy="3" in="shadowSpreadOuter1" result="shadowOffsetOuter1"/><feGaussianBlur stdDeviation="3" in="shadowOffsetOuter1" result="shadowBlurOuter1"/><feColorMatrix values="0 0 0 0 0.140006757 0 0 0 0 0.478367242 0 0 0 0 0.79407269 0 0 0 0.5 0" in="shadowBlurOuter1"/></filter><linearGradient x1="72.43%" y1="18.165%" x2="25.397%" y2="44.716%" id="j"><stop stop-color="#4E98FF" offset="0%"/><stop stop-color="#00E9FF" stop-opacity="0" offset="100%"/></linearGradient><linearGradient x1="77.124%" y1="61.84%" x2="26.783%" y2="0%" id="m"><stop stop-color="#668EC1" offset="0%"/><stop stop-color="#EDF4FC" offset="100%"/></linearGradient><path id="l" d="M2.735 1l77.239 43.56v69.79L2.735 70.22z"/><filter x="-26.5%" y="-23.4%" width="163.4%" height="143.2%" filterUnits="objectBoundingBox" id="k"><feOffset dx="4" dy="-2" in="SourceAlpha" result="shadowOffsetOuter1"/><feGaussianBlur stdDeviation="7.5" in="shadowOffsetOuter1" result="shadowBlurOuter1"/><feColorMatrix values="0 0 0 0 0 0 0 0 0 0.350738895 0 0 0 0 0.756085824 0 0 0 0.2 0" in="shadowBlurOuter1"/></filter><linearGradient x1="37.941%" y1="39.781%" x2="73.217%" y2="64.934%" id="n"><stop stop-color="#D8E9FF" offset="0%"/><stop stop-color="#FFF" offset="100%"/></linearGradient><linearGradient x1="78.579%" y1="61.84%" x2="25.538%" y2="0%" id="q"><stop stop-color="#668EC1" offset="0%"/><stop stop-color="#EDF4FC" offset="100%"/></linearGradient><path id="p" d="M78.385 42.84v69.21L2.411 68.65.011 1.02 2.411 0z"/><filter x="-26.2%" y="-23.7%" width="162.5%" height="143.7%" filterUnits="objectBoundingBox" id="o"><feOffset dx="4" dy="-2" in="SourceAlpha" result="shadowOffsetOuter1"/><feGaussianBlur stdDeviation="7.5" in="shadowOffsetOuter1" result="shadowBlurOuter1"/><feColorMatrix values="0 0 0 0 0 0 0 0 0 0.350738895 0 0 0 0 0.756085824 0 0 0 0.2 0" in="shadowBlurOuter1"/></filter><linearGradient x1="56.655%" y1="60.838%" x2="27.013%" y2="33.333%" id="r"><stop stop-color="#D8E9FF" offset="0%"/><stop stop-color="#FFF" offset="100%"/></linearGradient><linearGradient x1="65.025%" y1="100%" x2="25.635%" y2="-28.869%" id="s"><stop stop-color="#0385E4" offset="0%"/><stop stop-color="#8AC04B" offset="100%"/></linearGradient><linearGradient x1="50%" y1="81.01%" x2="42.451%" y2="0%" id="t"><stop stop-color="#6BB6CD" offset="0%"/><stop stop-color="#BFF283" offset="100%"/></linearGradient><linearGradient x1="50%" y1="0%" x2="67.248%" y2="94.714%" id="u"><stop stop-color="#349EF2" offset="0%"/><stop stop-color="#3773C0" offset="100%"/></linearGradient><linearGradient x1="42.1%" y1="80.612%" x2="47.186%" y2="3.909%" id="v"><stop stop-color="#468DEF" offset="0%"/><stop stop-color="#BBD8FF" offset="100%"/></linearGradient><linearGradient x1="41.955%" y1="80.612%" x2="47.134%" y2="3.909%" id="w"><stop stop-color="#468DEF" offset="0%"/><stop stop-color="#BBD8FF" offset="100%"/></linearGradient><linearGradient x1="50%" y1="0%" x2="67.204%" y2="94.714%" id="x"><stop stop-color="#349EF2" offset="0%"/><stop stop-color="#3773C0" offset="100%"/></linearGradient><linearGradient x1="42.026%" y1="80.612%" x2="47.159%" y2="3.909%" id="y"><stop stop-color="#468DEF" offset="0%"/><stop stop-color="#BBD8FF" offset="100%"/></linearGradient><linearGradient x1="63.35%" y1="61.84%" x2="38.574%" y2="0%" id="B"><stop stop-color="#668EC1" offset="0%"/><stop stop-color="#EDF4FC" offset="100%"/></linearGradient><path id="A" d="M194 86.21l60.1 34.43.019 95.03-2.519 1.53-57.581-35.96L191.5 87.7z"/><filter x="-20.8%" y="-10.2%" width="154.3%" height="126.5%" filterUnits="objectBoundingBox" id="z"><feMorphology radius="1" operator="dilate" in="SourceAlpha" result="shadowSpreadOuter1"/><feOffset dx="4" dy="4" in="shadowSpreadOuter1" result="shadowOffsetOuter1"/><feGaussianBlur stdDeviation="4" in="shadowOffsetOuter1" result="shadowBlurOuter1"/><feColorMatrix values="0 0 0 0 0.0728662247 0 0 0 0 0.368176819 0 0 0 0 0.70946558 0 0 0 0.388658217 0" in="shadowBlurOuter1"/></filter><linearGradient x1="50%" y1="122.742%" x2="47.336%" y2="50%" id="C"><stop stop-color="#D8E9FF" offset="0%"/><stop stop-color="#FCFDFF" offset="92.8%"/><stop stop-color="#FFF" offset="100%"/></linearGradient><linearGradient x1="57.991%" y1="38.986%" x2="39.427%" y2="85.932%" id="D"><stop stop-color="#F68D55" offset="0%"/><stop stop-color="#E25D5D" offset="100%"/></linearGradient><linearGradient x1="58.135%" y1="38.986%" x2="39.237%" y2="85.932%" id="E"><stop stop-color="#F68D55" offset="0%"/><stop stop-color="#E25D5D" offset="100%"/></linearGradient><linearGradient x1="50%" y1="0%" x2="50%" y2="100%" id="F"><stop stop-color="#FFD750" offset="0%"/><stop stop-color="#FFC24C" offset="100%"/></linearGradient><linearGradient x1="50%" y1="0%" x2="50%" y2="100%" id="G"><stop stop-color="#FFF2BB" offset="0%"/><stop stop-color="#FFE083" offset="100%"/></linearGradient></defs><g fill="none" fill-rule="evenodd"><path fill="url(#a)" opacity=".5" d="M.1 22.9l171.716 97.99v140.3L.1 160.69z" transform="translate(275 25)"/><path fill="url(#b)" opacity=".3" d="M24 12l171.716 97.99v140.3L24 149.79z" transform="translate(275 25)"/><path fill="url(#c)" opacity=".1" d="M46 0l171.716 97.99v140.3L46 137.79z" transform="translate(275 25)"/><g transform="translate(246.354 59)"><use fill="#000" filter="url(#d)" xlink:href="#e"/><use fill="url(#f)" xlink:href="#e"/></g><g transform="translate(246.354 59)"><use fill="#000" filter="url(#g)" xlink:href="#h"/><use fill="url(#i)" xlink:href="#h"/></g><path fill="url(#j)" opacity=".35" d="M5.4 115.4l171.5 235 134.1-81v-134L139.4 37.5z" transform="translate(107 25)"/><g transform="translate(332.265 139.78)"><use fill="#000" filter="url(#k)" xlink:href="#l"/><use fill="url(#m)" xlink:href="#l"/></g><path fill="url(#n)" d="M0 2l77.239 43.56v69.79L0 71.22z" transform="translate(332.265 139.78)"/><g transform="translate(254.589 96.98)"><use fill="#000" filter="url(#o)" xlink:href="#p"/><use fill="url(#q)" xlink:href="#p"/></g><path fill="url(#r)" d="M0 1l75.974 42.84v69.21L0 69.65V1z" transform="translate(254.589 96.98)"/><path d="M43.998 2.451c9.994 5.75 18.111 19.75 18.111 31.26 0 5.225-1.673 9.034-4.434 11.095C69.012 58.979 76.874 79.954 76.874 99l-.004.651-.188-.109.043.068-10 5-11-16 1.644-.329-47.141-27.485a69.43 69.43 0 0 1-.003-.646c0-19.318 8.117-31.246 19.775-31.852-2.53-5.04-4.044-10.478-4.044-15.448 0-1.752.188-3.345.543-4.766L22.225 5.61l8.993-4.399c3.265-1.895 7.784-1.632 12.78 1.239z" fill="url(#s)" transform="translate(367.675 245.889)"/><path d="M33.773 7.451c9.994 5.75 18.111 19.75 18.111 31.26 0 5.225-1.673 9.034-4.434 11.095C58.787 63.979 66.649 84.954 66.649 104l-.004.651L.003 65.797A69.429 69.429 0 0 1 0 65.151c0-19.318 8.117-31.246 19.775-31.852-2.53-5.04-4.044-10.478-4.044-15.448 0-11.47 8.069-16.13 18.042-10.4z" fill="url(#t)" transform="translate(367.675 245.889)"/><g><path d="M32.516 1.871c7.676 4.39 13.908 15.12 13.908 23.96 0 4.01-1.283 6.937-3.401 8.524 8.7 10.846 14.73 26.92 14.73 41.526l-.003.497-.063-.037.062.059-7.8 2.9-3.9-8.3h2.405L6.551 46.76a53.284 53.284 0 0 1-.002-.499c0-14.842 6.242-24.023 15.204-24.516-1.941-3.863-3.104-8.036-3.104-11.854 0-1.741.242-3.28.69-4.592L15.95 4.9l6.093-3.528a6.62 6.62 0 0 1 1.381-.8L23.549.5l.023.011c2.413-.964 5.533-.593 8.944 1.36z" fill="url(#u)" transform="translate(162 192)"/><path d="M25.349 5.83h.005c7.494 4.29 13.578 14.85 13.578 23.58 0 3.961-1.253 6.86-3.321 8.442C44.106 48.51 49.993 64.347 49.993 78.78l-.003.497L.002 50.36A53.266 53.266 0 0 1 0 49.87c0-14.665 6.098-23.78 14.848-24.328-1.897-3.805-3.033-7.921-3.033-11.692 0-8.7 6.057-12.3 13.534-8.02z" fill="url(#v)" transform="translate(162 192)"/><path d="M33.51 1.726l.257.145c7.676 4.39 13.908 15.12 13.908 23.96 0 4.01-1.283 6.937-3.401 8.524 8.7 10.846 14.73 26.92 14.73 41.526l-.003.497-.063-.037.062.059-7.8 2.9-3.9-8.3h2.405L7.802 46.76a53.284 53.284 0 0 1-.002-.499c0-14.842 6.242-24.023 15.204-24.516C21.063 17.882 19.9 13.709 19.9 9.89c0-1.909.291-3.573.825-4.964L16.8 3.5l8-3 .023.011c2.352-.94 5.376-.61 8.686 1.215z" fill="url(#u)" transform="translate(235 235)"/><path d="M25.967 4.8c7.676 4.39 13.908 15.12 13.908 23.96 0 4.01-1.283 6.937-3.401 8.524 8.7 10.846 14.73 26.92 14.73 41.526l-.003.497L.002 49.689A53.284 53.284 0 0 1 0 49.19c0-14.842 6.242-24.024 15.204-24.516C13.263 20.81 12.1 16.638 12.1 12.82c0-8.81 6.2-12.41 13.867-8.02z" fill="url(#w)" transform="translate(235 235)"/><path d="M33.51 1.726l.257.145c7.676 4.39 13.908 15.12 13.908 23.96 0 4.01-1.283 6.937-3.401 8.524 8.7 10.846 14.73 26.92 14.73 41.526l-.003.497-.063-.037.062.059-7.8 2.9-3.9-8.3h2.405L7.802 46.76a53.284 53.284 0 0 1-.002-.499c0-14.842 6.242-24.023 15.204-24.516C21.063 17.882 19.9 13.709 19.9 9.89c0-1.909.291-3.573.825-4.964L16.8 3.5l8-3 .023.011c2.352-.94 5.376-.61 8.686 1.215z" fill="url(#u)" transform="translate(248 281)"/><path d="M25.967 4.8c7.676 4.39 13.908 15.12 13.908 23.96 0 4.01-1.283 6.937-3.401 8.524 8.7 10.846 14.73 26.92 14.73 41.526l-.003.497L.002 49.689A53.284 53.284 0 0 1 0 49.19c0-14.842 6.242-24.024 15.204-24.516C13.263 20.81 12.1 16.638 12.1 12.82c0-8.81 6.2-12.41 13.867-8.02z" fill="url(#w)" transform="translate(248 281)"/><g><path d="M33.151 1.871c7.676 4.39 13.908 15.12 13.908 23.96 0 4.01-1.283 6.937-3.401 8.524 8.7 10.846 14.73 26.92 14.73 41.526l-.003.497-.063-.037.062.059-3.862 1.486-3.938 1.514-3.9-8.4h2.405L7.186 46.76a53.284 53.284 0 0 1-.002-.499c0-14.842 6.242-24.023 15.204-24.516-1.941-3.863-3.104-8.036-3.104-11.854 0-1.837.27-3.448.766-4.807L16.584 4.2l7.6-3.7.022.012c2.413-.965 5.534-.594 8.945 1.36z" fill="url(#x)" transform="translate(178.916 239.3)"/><path d="M25.665 5.41C33.251 9.75 39.41 20.39 39.41 29.18c0 3.986-1.267 6.899-3.358 8.484C44.65 48.42 50.607 64.374 50.607 78.9l-.003.489L.002 50.116A53.32 53.32 0 0 1 0 49.62c0-14.763 6.173-23.908 15.033-24.424-1.92-3.835-3.068-7.98-3.068-11.776 0-8.76 6.126-12.35 13.7-8.01z" fill="url(#y)" transform="translate(178.916 239.3)"/></g><g><path d="M32.516 1.871c7.676 4.39 13.908 15.12 13.908 23.96 0 4.01-1.283 6.937-3.401 8.524 8.7 10.846 14.73 26.92 14.73 41.526l-.003.497-.063-.037.062.059-7.8 2.9-3.9-8.3h2.405L6.551 46.76a53.284 53.284 0 0 1-.002-.499c0-14.842 6.242-24.023 15.204-24.516-1.941-3.863-3.104-8.036-3.104-11.854 0-1.741.242-3.28.69-4.592L15.95 4.9l6.093-3.528a6.62 6.62 0 0 1 1.381-.8L23.549.5l.023.011c2.413-.964 5.533-.593 8.944 1.36z" fill="url(#u)" transform="translate(107.751 197.7)"/><path d="M25.349 5.83h.005c7.494 4.29 13.578 14.85 13.578 23.58 0 3.961-1.253 6.86-3.321 8.442C44.106 48.51 49.993 64.347 49.993 78.78l-.003.497L.002 50.36A53.266 53.266 0 0 1 0 49.87c0-14.665 6.098-23.78 14.848-24.328-1.897-3.805-3.033-7.921-3.033-11.692 0-8.7 6.057-12.3 13.534-8.02z" fill="url(#v)" transform="translate(107.751 197.7)"/></g></g><g><path fill="#6897FD" d="M259.693 156.47l42.393 24.41v1.26l-42.393-24.41z"/><path fill="#6897FD" d="M259.682 120.28l1.1.63.011 36.84-1.1-.64z"/><path fill="#6FC2A4" d="M266.205 132.78l6.52 3.76.008 27.44-6.52-3.76zM277.074 147.79l6.547 3.77v18.69l-6.547-3.77zM288.506 163.08l6.52 3.76v9.98l-6.52-3.76z"/></g><g><path fill="#6897FD" d="M361.369 216.29l43.215 24.88v1.28l-43.216-24.89v-1.27z"/><path d="M363 211.22s3.258-19.96 8.308-9.21 9.284 9.34 9.974 2.56c.69-6.78 7.986-1.45 9.975 7.66 1.092 5 4.311 4.303 9.051-4.23.678-1.221 1.678-3.721 3-7.5" stroke="#6FC2A4" stroke-linecap="round"/><path d="M366.308 211.39s3.258-19.96 8.308-9.21 9.284 9.34 9.974 2.56c.69-6.78 7.986-1.45 9.975 7.66 1.092 5 4.311 4.302 9.051-4.23.678-1.222 1.678-3.722 3-7.5" stroke="#ECAB2C" stroke-linecap="round"/></g><g transform="translate(107 25)"><use fill="#000" filter="url(#z)" xlink:href="#A"/><use fill="url(#B)" xlink:href="#A"/></g><path fill="url(#C)" d="M191.466 87.71l60.1 34.43.019 95.03-60.1-34.43z" transform="translate(107 25)"/><g><path fill="url(#D)" d="M14.988 9.86l9.665-.88 9.877 25.43-8.69-8.5-.975 9.38z" transform="translate(310 170)"/><path fill="url(#E)" d="M10.265.7l9.667 12.01-9.87 14.06L8.34 15.34l-7.945-.58z" transform="translate(310 170)"/><path d="M18.314 2.2c7.113 4.1 12.88 14.07 12.881 22.29.001 8.22-5.763 11.55-12.875 7.45-7.112-4.1-12.88-14.07-12.881-22.28C5.438 1.45 11.2-1.89 18.314 2.2z" fill="url(#F)" transform="translate(310 155)"/><path d="M18.315 7.16c4.742 2.73 8.586 9.38 8.587 14.86.001 5.48-3.842 7.7-8.583 4.97-4.741-2.73-8.587-9.38-8.588-14.86-.001-5.48 3.843-7.7 8.584-4.97z" fill="url(#G)" transform="translate(310 155)"/></g></g></svg>