<svg xmlns="http://www.w3.org/2000/svg" width="42" height="40" viewBox="0 0 42 40">
  <g fill="none" fill-rule="evenodd" transform="translate(-12 -14)">
    <path fill="#000" fill-opacity=".8" fill-rule="nonzero" d="M42.1167854,24.6040265 L40.0048211,25.5945248 C39.3425112,25.9051441 38.5634565,25.8293854 37.9734015,25.3969807 C37.5376324,25.0776399 37.0676243,24.806961 36.5716203,24.5904164 C35.9013604,24.2977954 35.4442698,23.6626612 35.3796596,22.934169 L35.2081315,21 L32.0929431,21 L31.9188011,23.0222924 C31.8558818,23.7529673 31.3981,24.3906018 30.7259038,24.6838538 C30.0839251,24.9639231 29.6226484,25.2177524 29.2361727,25.5108586 C28.640496,25.9626243 27.8425894,26.0444441 27.1676228,25.7229739 L24.8739854,24.6305422 L23.3558235,27.2428861 L25.5360248,28.7472229 C26.1293171,29.156594 26.4564243,29.85355 26.3922277,30.5715049 C26.372812,30.7886446 26.3630314,31.0063423 26.3630314,31.2248338 C26.3630314,31.3675057 26.3670195,31.5086874 26.3750275,31.6501007 C26.4144467,32.3462013 26.0885119,33.0125902 25.5148281,33.4088185 L23.65216,34.6953127 L25.1812231,37.3299629 L26.8812106,36.5326521 C27.5802706,36.2047861 28.4056204,36.3086054 29.0017044,36.7993852 C29.5239246,37.2293502 30.1044025,37.5857186 30.7250679,37.856153 C31.3991645,38.1498683 31.8577289,38.789791 31.919179,39.5225248 L32.1269501,42 L35.173049,42 L35.3792475,39.6109118 C35.4423259,38.8800635 35.9004462,38.2423962 36.5729471,37.9493762 C37.1229377,37.7097359 37.6977807,37.3385154 38.2954665,36.8464167 C38.8873343,36.3591082 39.7056849,36.2530245 40.4022425,36.573313 L42.1071048,37.3572774 L43.6478852,34.698865 L41.7819046,33.4079321 C41.2088304,33.0114648 40.8834339,32.3452942 40.9230176,31.649569 C40.9309673,31.5098458 40.9349836,31.3671661 40.9349836,31.2239939 C40.9349836,30.9545854 40.9200597,30.6861783 40.8905377,30.419174 C40.8096921,29.6879843 41.1367772,28.9714366 41.7421701,28.5534967 L43.6460946,27.2391009 L42.1167854,24.6040265 Z M42.9197884,31.7631766 L45.6135656,33.6268003 C45.9942906,33.8896729 46.1124758,34.4355744 45.8828589,34.831143 L43.3477874,39.2050736 C43.1147939,39.6056813 42.5812723,39.7803698 42.1676243,39.5863648 L39.5667068,38.3904206 C38.9057141,38.9346424 38.1679011,39.4360319 37.3718397,39.7828893 L37.095793,42.9812638 C37.0569607,43.4406609 36.6433127,44 36.184079,44 L31.113936,44 C30.648793,44 30.2402101,43.434782 30.202222,42.9812638 L29.9261753,39.6896662 C29.1301139,39.3428088 28.3914567,38.8876109 27.730464,38.3433891 L25.1303907,39.562849 C24.7108334,39.7593736 24.1798444,39.5888843 23.9502276,39.1933157 L21.4151561,34.825264 C21.1830067,34.4246563 21.3079453,33.8829541 21.6836052,33.6242808 L24.3782266,31.7631766 C24.3680965,31.5842889 24.3630314,31.4054012 24.3630314,31.2248338 C24.3630314,30.9443244 24.3756941,30.6671744 24.4001753,30.3933838 L21.386454,28.3139191 C21.0048848,28.0502067 20.8875438,27.511024 21.1171607,27.1146156 L23.6522322,22.7524428 C23.8852257,22.3518351 24.4187473,22.2015022 24.8323953,22.3955072 L28.0276152,23.9173126 C28.6100992,23.4755523 29.2466107,23.1471716 29.9261753,22.8507051 L30.202222,19.6450036 C30.2410543,19.1856065 30.6547023,19 31.113936,19 L36.184079,19 C36.649222,19 37.0578049,19.1923253 37.095793,19.6450036 L37.3718397,22.7574819 C38.0066628,23.0346319 38.604342,23.3798096 39.1555913,23.7837767 L42.1676243,22.3711516 C42.5871816,22.1746271 43.1181706,22.3451163 43.3477874,22.7406849 L45.8828589,27.1087366 C46.1150083,27.5093443 45.9900697,28.0510466 45.6144098,28.3105597 L42.8784236,30.1993789 C42.9155675,30.5353182 42.9349836,30.8771365 42.9349836,31.2239939 C42.9349836,31.4045613 42.9299185,31.5851288 42.9197884,31.7631766 Z"/>
    <path fill="#000" fill-opacity=".8" d="M20,52 L46,52 C46.5522847,52 47,52.4477153 47,53 C47,53.5522847 46.5522847,54 46,54 L20,54 C19.4477153,54 19,53.5522847 19,53 C19,52.4477153 19.4477153,52 20,52 Z M14,18 L14,45 C14,46.1045695 14.8954305,47 16,47 L50,47 C51.1045695,47 52,46.1045695 52,45 L52,18 C52,16.8954305 51.1045695,16 50,16 L16,16 C14.8954305,16 14,16.8954305 14,18 Z M54,18 L54,45 C54,47.209139 52.209139,49 50,49 L16,49 C13.790861,49 12,47.209139 12,45 L12,18 C12,15.790861 13.790861,14 16,14 L50,14 C52.209139,14 54,15.790861 54,18 Z"/>
    <path fill="#467DF6" d="M33.5,36 C31.0151,36 29,33.9849 29,31.5 C29,29.0142 31.0151,27 33.5,27 C35.9849,27 38,29.0142 38,31.5 C38,33.9849 35.9849,36 33.5,36 L33.5,36 Z"/>
  </g>
</svg>
