<svg width="200" height="200" xmlns="http://www.w3.org/2000/svg"><g fill="none" fill-rule="evenodd"><path d="M139.186 104.575l20.503 1.92a.64.64 0 1 0 .12-1.275l-20.504-1.919a.64.64 0 1 0-.12 1.274zm-24.909 19.68l-5.126 20.472a.64.64 0 1 0 1.243.31l5.126-20.472a.64.64 0 1 0-1.243-.31zm-18.869-12.581L70.42 123.189a.64.64 0 1 0 .537 1.162l24.988-11.515a.64.64 0 1 0-.537-1.162zm7.867-27.256l-16.018-26.87a.641.641 0 0 0-1.101.655l16.018 26.87a.641.641 0 0 0 1.101-.655zm28.803.699l16.018-22.391a.641.641 0 0 0-1.043-.744l-16.017 22.392a.641.641 0 0 0 1.043.744z" fill="#367BFF"/><path d="M117 126c-13.478 0-24-10.521-24-23 0-13.479 10.522-24 24-24 12.478 0 23 10.521 23 24 0 12.479-10.522 23-23 23zm-1-2c12.374 0 22-9.626 22-22 0-11.374-9.626-21-22-21-11.374 0-21 9.626-21 21 0 12.374 9.626 22 21 22z" fill="#357AFE" fill-rule="nonzero"/><g opacity=".2" transform="translate(70.048 66.193)" fill="#367BFF"><ellipse cx="81.371" cy="66.534" rx="3.844" ry="3.839"/><ellipse cx="62.15" cy="63.335" rx="2.563" ry="2.559"/><ellipse cx="50.617" cy="2.559" rx="2.563" ry="2.559"/><ellipse cx="3.844" cy="22.391" rx="3.844" ry="3.839"/></g><g transform="translate(131.76 45.118)"><ellipse fill="#357AFE" opacity=".095" cx="16.251" cy="16.236" rx="16.251" ry="16.236"/><ellipse fill="#FFF" cx="16.251" cy="16.236" rx="10.251" ry="10.236"/><path d="M15.798 9.386l-.42.42a4.488 4.488 0 0 1-3.172 1.312h-1.08a.64.64 0 0 0-.641.64v4.062a8.314 8.314 0 0 0 3.915 7.052l1.512.944c.208.13.471.13.68 0l1.511-.944a8.314 8.314 0 0 0 3.915-7.052v-4.062a.64.64 0 0 0-.64-.64c-1.974 0-3.518-.578-4.673-1.732a.641.641 0 0 0-.907 0zm4.939 2.993v3.44a7.035 7.035 0 0 1-3.313 5.968l-1.173.732-1.172-.732a7.035 7.035 0 0 1-3.313-5.967v-3.422h.44a5.77 5.77 0 0 0 4.066-1.675c1.202.998 2.697 1.55 4.465 1.656z" fill-opacity=".8" fill="#000"/><path d="M15.905 17.473l-1.734-1.978a.641.641 0 0 0-.965.842l2.243 2.56a.641.641 0 0 0 .986-.027l3.524-4.478a.64.64 0 1 0-1.008-.79l-3.046 3.871z" fill="#367BFF"/></g><g transform="translate(94.569 133.366)"><ellipse fill="#357AFE" opacity=".095" cx="14.485" cy="14.398" rx="14.251" ry="14.236"/><ellipse fill="#FFF" cx="14.485" cy="14.398" rx="10.251" ry="10.236"/><rect fill-opacity=".8" fill="#000" x="10.641" y="19.516" width="7.689" height="1.28" rx=".64"/><path d="M14.962 19.303c2.664-2.964 4.008-5.2 4.008-6.825A4.482 4.482 0 0 0 14.485 8 4.482 4.482 0 0 0 10 12.478c0 1.624 1.344 3.86 4.008 6.825.255.283.7.283.954 0zm-3.68-6.825a3.201 3.201 0 0 1 3.203-3.198 3.201 3.201 0 0 1 3.204 3.198c0 1.123-1.062 2.964-3.204 5.43-2.142-2.466-3.204-4.307-3.204-5.43z" fill-opacity=".8" fill="#000"/><ellipse fill="#367BFF" cx="14.485" cy="12.478" rx="1.922" ry="1.919"/></g><path d="M106.024 104v-8.31c0-.933.746-1.69 1.666-1.69h3.304v-2.31c0-.933.745-1.69 1.665-1.69h13.644c.92 0 1.666.757 1.666 1.69V104h.056a2 2 0 0 1 1.971 2v5.986a2 2 0 0 1-2 2h-21.99a2 2 0 0 1-2-2V106a2 2 0 0 1 2.011-2h.007zm1.954.03h3.016V96h-3.016v8.03zm4.998 0h1.666a.84.84 0 0 1 .833.845v.422c0 1.168.932 2.114 2.082 2.114s2.083-.946 2.083-2.114v-.422a.84.84 0 0 1 .832-.846H126V92h-13.024v12.03zm-6.965 1.97v6h21.988v-6h-6.716c-.208 1.902-1.797 3.382-3.726 3.382-1.93 0-3.518-1.48-3.725-3.382h-7.821z" fill-opacity=".8" fill="#000"/><path d="M116 96h7a1 1 0 1 0 0-2h-7a1 1 0 0 0 0 2zm0 3h7a1 1 0 1 0 0-2h-7a1 1 0 0 0 0 2zm0 3h7a1 1 0 1 0 0-2h-7a1 1 0 0 0 0 2z" fill="#367BFF"/><g transform="translate(147.982 90.46)"><ellipse fill="#357AFE" opacity=".095" cx="15.766" cy="15.398" rx="15.251" ry="15.236"/><ellipse fill="#FFF" cx="15.766" cy="15.398" rx="10.251" ry="10.236"/><path d="M15.766 9a3.841 3.841 0 0 1 3.845 3.839 3.83 3.83 0 0 1-1.512 3.05c.37.163.724.366 1.055.606a.64.64 0 1 1-.754 1.035 4.466 4.466 0 0 0-2.634-.853 4.482 4.482 0 0 0-4.485 4.478.64.64 0 0 1-1.281 0c0-2.35 1.41-4.372 3.433-5.267a3.826 3.826 0 0 1-1.51-3.05A3.841 3.841 0 0 1 15.765 9zm0 1.28a2.56 2.56 0 0 0-2.562 2.559 2.56 2.56 0 0 0 2.562 2.559 2.56 2.56 0 0 0 2.563-2.56 2.56 2.56 0 0 0-2.563-2.558z" fill-opacity=".8" fill="#000"/><path d="M17.982 20.154l-1.733-1.979a.641.641 0 0 0-.965.843l2.243 2.559a.642.642 0 0 0 .986-.026l3.524-4.479a.64.64 0 1 0-1.008-.79l-3.047 3.872z" fill="#367BFF"/></g><g transform="translate(68.94 38.839)"><ellipse fill="#357AFE" opacity=".095" cx="16.766" cy="16.398" rx="16.251" ry="16.236"/><ellipse fill="#FFF" cx="16.766" cy="16.398" rx="10.251" ry="10.236"/><path d="M12.922 13.839A3.841 3.841 0 0 1 16.766 10a3.841 3.841 0 0 1 3.845 3.839h.64a1.28 1.28 0 0 1 1.282 1.279v4.478a3.201 3.201 0 0 1-3.204 3.199h-5.125A3.201 3.201 0 0 1 11 19.596v-4.478c0-.707.574-1.28 1.281-1.28h.641zm1.282 0h5.125a2.56 2.56 0 0 0-2.563-2.56 2.56 2.56 0 0 0-2.562 2.56zm-1.923 1.279v4.478c0 1.06.861 1.92 1.923 1.92h5.125a1.92 1.92 0 0 0 1.922-1.92v-4.478h-8.97z" fill-opacity=".8" fill="#000"/><path d="M18.049 16.398a.64.64 0 0 1 0 1.279h-.642v1.918a.64.64 0 1 1-1.281 0v-1.918h-.642a.64.64 0 1 1 0-1.28h2.565z" fill="#367BFF"/></g><g transform="translate(55.64 106.255)"><ellipse fill="#357AFE" opacity=".095" cx="16.611" cy="16.236" rx="16.251" ry="16.236"/><ellipse fill="#FFF" cx="16.611" cy="16.236" rx="10.251" ry="10.236"/><path d="M11.597 10.901a6.402 6.402 0 0 1 9.054-.007 6.402 6.402 0 0 1 .424 8.58l1.831 1.83a.64.64 0 0 1-.906.907l-1.832-1.831a6.402 6.402 0 0 1-8.578-.424 6.402 6.402 0 0 1 .007-9.055zm.905.905a5.122 5.122 0 0 0-.006 7.243 5.122 5.122 0 0 0 7.244-.005 5.122 5.122 0 0 0 .005-7.243 5.122 5.122 0 0 0-7.243.005z" fill-opacity=".8" fill="#000"/><path d="M14.763 14.068l1.36-1.36a.64.64 0 1 1 .904.905l-2.718 2.719a1.92 1.92 0 0 0-.002 2.716 1.92 1.92 0 0 0 2.716-.002l1.36-1.36a.64.64 0 1 0-.905-.904l-1.36 1.36a.64.64 0 1 1-.904-.905l2.718-2.719a1.92 1.92 0 0 0 .002-2.716 1.92 1.92 0 0 0-2.716.002l-1.36 1.36a.64.64 0 1 0 .905.904z" fill="#367BFF"/><path d="M19.29 14.97a.64.64 0 1 1 .905.904l-.454.454a.64.64 0 1 1-.905-.904l.455-.455zm-6.79-.448a.64.64 0 0 1 .905.904l-.454.455a.64.64 0 1 1-.905-.905l.454-.454z" fill-opacity=".8" fill="#000"/></g></g></svg>