<svg xmlns="http://www.w3.org/2000/svg" xmlns:xlink="http://www.w3.org/1999/xlink" viewBox="0 0 27 33"><defs><linearGradient id="svg-ico-ppt-c" x1="50%" x2="50%" y1="34.71%" y2="1.732%"><stop offset="0%" stop-color="#FFF"/><stop offset="100%" stop-color="#F4F4F4"/></linearGradient><path id="svg-ico-ppt-b" d="M22,1 L28,7 L28,28.5 C28,29.3284271 27.3284271,30 26.5,30 L7.5,30 C6.67157288,30 6,29.3284271 6,28.5 L6,2.5 C6,1.67157288 6.67157288,1 7.5,1 L22,1 Z"/><filter id="svg-ico-ppt-a" width="127.3%" height="120.7%" x="-13.6%" y="-6.9%" filterUnits="objectBoundingBox"><feMorphology in="SourceAlpha" operator="dilate" radius="1" result="shadowSpreadOuter1"/><feOffset dy="1" in="shadowSpreadOuter1" result="shadowOffsetOuter1"/><feGaussianBlur in="shadowOffsetOuter1" result="shadowBlurOuter1" stdDeviation=".5"/><feComposite in="shadowBlurOuter1" in2="SourceAlpha" operator="out" result="shadowBlurOuter1"/><feColorMatrix in="shadowBlurOuter1" values="0 0 0 0 0   0 0 0 0 0   0 0 0 0 0  0 0 0 0.15 0"/></filter></defs><g fill="none" fill-rule="evenodd" transform="translate(-3)"><use fill="#000" filter="url(#svg-ico-ppt-a)" xlink:href="#svg-ico-ppt-b"/><path fill="url(#svg-ico-ppt-c)" stroke="#666" stroke-opacity=".4" d="M22.2071068,0.5 L28.5,6.79289322 L28.5,28.5 C28.5,29.6045695 27.6045695,30.5 26.5,30.5 L7.5,30.5 C6.3954305,30.5 5.5,29.6045695 5.5,28.5 L5.5,2.5 C5.5,1.3954305 6.3954305,0.5 7.5,0.5 L22.2071068,0.5 Z"/><path fill="#000" d="M28,7 L23.5,7 C22.6715729,7 22,6.32842712 22,5.5 L22,1 L28,7 Z" opacity=".15"/><g transform="translate(3 8)"><rect width="16" height="16" fill="#F2733D" rx="2.2"/><path fill="#FFF" d="M5,5 L4.5,5 C4.22385763,5 4,4.77614237 4,4.5 C4,4.22385763 4.22385763,4 4.5,4 L5.75,4 L9.5,4 C10.8807119,4 12,5.11928813 12,6.5 C12,7.88071187 10.8807119,9 9.5,9 L5.75,9 L5,9 L5,12.5 C5,12.7761424 4.77614237,13 4.5,13 C4.22385763,13 4,12.7761424 4,12.5 L4,9 C4,8.44771525 4.44771525,8 5,8 L9.5,8 C10.3284271,8 11,7.32842712 11,6.5 C11,5.67157288 10.3284271,5 9.5,5 L5,5 Z"/></g></g></svg>