<svg xmlns="http://www.w3.org/2000/svg" xmlns:xlink="http://www.w3.org/1999/xlink"><defs><filter x="-6.4%" y="-11%" width="112.8%" height="122%" filterUnits="objectBoundingBox" id="a"><feGaussianBlur stdDeviation="4" in="SourceGraphic"/></filter><linearGradient x1="39.861%" y1="11.325%" x2="39.861%" y2="49.339%" id="b"><stop stop-color="#7EBAFF" offset="0%"/><stop stop-color="#2C63A6" offset="100%"/></linearGradient><linearGradient x1="47.355%" y1="18.781%" x2="48.949%" y2="46.27%" id="c"><stop stop-color="#5697E3" offset="0%"/><stop stop-color="#2658C7" offset="100%"/></linearGradient><linearGradient x1="25.553%" y1="69.622%" x2="74.447%" y2="16.607%" id="d"><stop stop-color="#5697E3" offset="0%"/><stop stop-color="#2658C7" offset="100%"/></linearGradient><linearGradient x1="71.956%" y1="81.933%" x2="31.476%" y2="19.602%" id="e"><stop stop-color="#245CD7" offset="0%"/><stop stop-color="#74A7FF" offset="100%"/></linearGradient><linearGradient x1="25.102%" y1="93.158%" x2="44.89%" y2="24.915%" id="f"><stop stop-color="#008BFF" offset="0%"/><stop stop-color="#D2E6FF" offset="100%"/></linearGradient><linearGradient x1="79.626%" y1="61.84%" x2="24.642%" y2="0%" id="i"><stop stop-color="#668EC1" offset="0%"/><stop stop-color="#EDF4FC" offset="100%"/></linearGradient><path id="h" d="M2.61.878l46.993 27.065v38.922L2.61 39.8z"/><filter x="-43.6%" y="-40.2%" width="204.3%" height="174.3%" filterUnits="objectBoundingBox" id="g"><feOffset dx="4" dy="-2" in="SourceAlpha" result="shadowOffsetOuter1"/><feGaussianBlur stdDeviation="7.5" in="shadowOffsetOuter1" result="shadowBlurOuter1"/><feColorMatrix values="0 0 0 0 0 0 0 0 0 0.350738895 0 0 0 0 0.756085824 0 0 0 0.2 0" in="shadowBlurOuter1"/></filter><linearGradient x1="50%" y1="19.175%" x2="30.406%" y2="64.58%" id="j"><stop stop-color="#96C4FA" offset="0%"/><stop stop-color="#427CE7" offset="100%"/></linearGradient><linearGradient x1="2.401%" y1="50%" x2="80.8%" y2="50%" id="k"><stop stop-color="#D2E5FF" offset="0%"/><stop stop-color="#86B1FC" offset="100%"/></linearGradient><linearGradient x1="50%" y1="100%" x2="50%" y2="-4.619%" id="l"><stop stop-color="#4589E8" offset="0%"/><stop stop-color="#00E9FF" stop-opacity="0" offset="100%"/></linearGradient><linearGradient x1="80.608%" y1="61.84%" x2="23.802%" y2="0%" id="o"><stop stop-color="#668EC1" offset="0%"/><stop stop-color="#EDF4FC" offset="100%"/></linearGradient><path id="n" d="M2.5 0l47.26 26.784.009 38.518-47.26-26.785z"/><filter x="-43.4%" y="-40.6%" width="203.7%" height="175%" filterUnits="objectBoundingBox" id="m"><feOffset dx="4" dy="-2" in="SourceAlpha" result="shadowOffsetOuter1"/><feGaussianBlur stdDeviation="7.5" in="shadowOffsetOuter1" result="shadowBlurOuter1"/><feColorMatrix values="0 0 0 0 0 0 0 0 0 0.350738895 0 0 0 0 0.756085824 0 0 0 0.2 0" in="shadowBlurOuter1"/></filter><linearGradient x1="50%" y1="83.251%" x2="50%" y2="18.081%" id="p"><stop stop-color="#D8E9FF" offset="0%"/><stop stop-color="#FFF" offset="100%"/></linearGradient><linearGradient x1="50%" y1="18.024%" x2="30.406%" y2="65.125%" id="q"><stop stop-color="#96C4FA" offset="0%"/><stop stop-color="#427CE7" offset="100%"/></linearGradient><linearGradient x1="80.299%" y1="61.84%" x2="24.066%" y2="0%" id="t"><stop stop-color="#668EC1" offset="0%"/><stop stop-color="#EDF4FC" offset="100%"/></linearGradient><path id="s" d="M2.25.25l47.26 26.914v38.705L2.257 38.953z"/><filter x="-43.4%" y="-40.4%" width="203.7%" height="174.7%" filterUnits="objectBoundingBox" id="r"><feOffset dx="4" dy="-2" in="SourceAlpha" result="shadowOffsetOuter1"/><feGaussianBlur stdDeviation="7.5" in="shadowOffsetOuter1" result="shadowBlurOuter1"/><feColorMatrix values="0 0 0 0 0 0 0 0 0 0.350738895 0 0 0 0 0.756085824 0 0 0 0.2 0" in="shadowBlurOuter1"/></filter><linearGradient x1="50%" y1="83.251%" x2="50%" y2="14.175%" id="u"><stop stop-color="#D8E9FF" offset="0%"/><stop stop-color="#FFF" offset="100%"/></linearGradient><linearGradient x1="50%" y1="19.657%" x2="30.406%" y2="64.352%" id="v"><stop stop-color="#96C4FA" offset="0%"/><stop stop-color="#427CE7" offset="100%"/></linearGradient><linearGradient x1="80.556%" y1="61.84%" x2="23.846%" y2="0%" id="y"><stop stop-color="#668EC1" offset="0%"/><stop stop-color="#EDF4FC" offset="100%"/></linearGradient><path id="x" d="M1.499 0l47.22 26.786.01 38.517L1.507 38.52z"/><filter x="-43.4%" y="-40.6%" width="203.7%" height="175%" filterUnits="objectBoundingBox" id="w"><feOffset dx="4" dy="-2" in="SourceAlpha" result="shadowOffsetOuter1"/><feGaussianBlur stdDeviation="7.5" in="shadowOffsetOuter1" result="shadowBlurOuter1"/><feColorMatrix values="0 0 0 0 0 0 0 0 0 0.350738895 0 0 0 0 0.756085824 0 0 0 0.2 0" in="shadowBlurOuter1"/></filter><linearGradient x1="50%" y1="83.251%" x2="50%" y2="18.081%" id="z"><stop stop-color="#D8E9FF" offset="0%"/><stop stop-color="#FFF" offset="100%"/></linearGradient><linearGradient x1="50%" y1="22.126%" x2="30.406%" y2="63.184%" id="A"><stop stop-color="#96C4FA" offset="0%"/><stop stop-color="#427CE7" offset="100%"/></linearGradient><linearGradient x1="80.547%" y1="61.84%" x2="23.854%" y2="0%" id="D"><stop stop-color="#668EC1" offset="0%"/><stop stop-color="#EDF4FC" offset="100%"/></linearGradient><path id="C" d="M1.537 0L48.76 26.784v38.518L1.54 38.517z"/><filter x="-43.4%" y="-40.6%" width="203.8%" height="175%" filterUnits="objectBoundingBox" id="B"><feOffset dx="4" dy="-2" in="SourceAlpha" result="shadowOffsetOuter1"/><feGaussianBlur stdDeviation="7.5" in="shadowOffsetOuter1" result="shadowBlurOuter1"/><feColorMatrix values="0 0 0 0 0 0 0 0 0 0.350738895 0 0 0 0 0.756085824 0 0 0 0.2 0" in="shadowBlurOuter1"/></filter><linearGradient x1="50%" y1="83.251%" x2="50%" y2="18.081%" id="E"><stop stop-color="#D8E9FF" offset="0%"/><stop stop-color="#FFF" offset="100%"/></linearGradient><linearGradient x1="50%" y1="14.098%" x2="30.406%" y2="66.981%" id="F"><stop stop-color="#96C4FA" offset="0%"/><stop stop-color="#427CE7" offset="100%"/></linearGradient><linearGradient x1="92.49%" y1="68.709%" x2="14.153%" y2="32.19%" id="G"><stop stop-color="#245CD7" offset="0%"/><stop stop-color="#74A7FF" offset="100%"/></linearGradient><linearGradient x1="26.214%" y1="58.503%" x2="100%" y2="25.192%" id="H"><stop stop-color="#5697E3" offset="0%"/><stop stop-color="#2658C7" offset="100%"/></linearGradient><linearGradient x1="2.401%" y1="50%" x2="80.8%" y2="50%" id="I"><stop stop-color="#D2E5FF" offset="0%"/><stop stop-color="#86B1FC" offset="100%"/></linearGradient><linearGradient x1="31.088%" y1="42.227%" x2="61.377%" y2="62.94%" id="J"><stop stop-color="#4E98FF" offset="0%"/><stop stop-color="#00E9FF" stop-opacity="0" offset="100%"/></linearGradient><linearGradient x1="50%" y1="-14.327%" x2="50%" y2="100%" id="M"><stop stop-color="#FDCF2D" offset="0%"/><stop stop-color="#ECAB2C" offset="100%"/></linearGradient><path d="M19.886 3.723v20.18l-.058-.001c.047.22.072.444.072.671 0 3.011-4.254 5.452-9.5 5.452-5.247 0-9.5-2.601-9.5-5.612 0-.123.007-.245.02-.366H.9V3.724h18.986z" id="L"/><filter x="-31.6%" y="-22.8%" width="163.2%" height="145.6%" filterUnits="objectBoundingBox" id="K"><feOffset in="SourceAlpha" result="shadowOffsetOuter1"/><feGaussianBlur stdDeviation="2" in="shadowOffsetOuter1" result="shadowBlurOuter1"/><feColorMatrix values="0 0 0 0 0.748018569 0 0 0 0 0.331975413 0 0 0 0 0.00651380499 0 0 0 0.401715472 0" in="shadowBlurOuter1"/></filter><linearGradient x1="95.774%" y1="44.397%" x2="5.94%" y2="50%" id="N"><stop stop-color="#F4C73C" offset="0%"/><stop stop-color="#FFE34B" offset="100%"/></linearGradient><linearGradient x1="0%" y1="45.135%" x2="89.703%" y2="50%" id="O"><stop stop-color="#FEC" offset="0%"/><stop stop-color="#FFD927" offset="100%"/></linearGradient><path d="M19.886 3.723v20.18l-.058-.001c.047.22.072.444.072.671 0 3.011-4.254 5.452-9.5 5.452-5.247 0-9.5-2.601-9.5-5.612 0-.123.007-.245.02-.366H.9V3.724h18.986z" id="Q"/><filter x="-31.6%" y="-22.8%" width="163.2%" height="145.6%" filterUnits="objectBoundingBox" id="P"><feOffset in="SourceAlpha" result="shadowOffsetOuter1"/><feGaussianBlur stdDeviation="2" in="shadowOffsetOuter1" result="shadowBlurOuter1"/><feColorMatrix values="0 0 0 0 0.748018569 0 0 0 0 0.331975413 0 0 0 0 0.00651380499 0 0 0 0.401715472 0" in="shadowBlurOuter1"/></filter><path d="M19.886 3.723v20.18l-.058-.001c.047.22.072.444.072.671 0 3.011-4.254 5.452-9.5 5.452-5.247 0-9.5-2.601-9.5-5.612 0-.123.007-.245.02-.366H.9V3.724h18.986z" id="S"/><filter x="-31.6%" y="-22.8%" width="163.2%" height="145.6%" filterUnits="objectBoundingBox" id="R"><feOffset in="SourceAlpha" result="shadowOffsetOuter1"/><feGaussianBlur stdDeviation="2" in="shadowOffsetOuter1" result="shadowBlurOuter1"/><feColorMatrix values="0 0 0 0 0.748018569 0 0 0 0 0.331975413 0 0 0 0 0.00651380499 0 0 0 0.401715472 0" in="shadowBlurOuter1"/></filter><linearGradient x1="50%" y1="-14.327%" x2="50%" y2="100%" id="V"><stop stop-color="#FDCF2D" offset="0%"/><stop stop-color="#ECAB2C" offset="100%"/></linearGradient><path d="M19.886 3.723v12.18l-.058-.001c.047.22.072.444.072.671 0 3.011-4.254 5.452-9.5 5.452-5.247 0-9.5-2.601-9.5-5.612 0-.123.007-.245.02-.366H.9V3.724h18.986z" id="U"/><filter x="-31.6%" y="-32.8%" width="163.2%" height="165.6%" filterUnits="objectBoundingBox" id="T"><feOffset in="SourceAlpha" result="shadowOffsetOuter1"/><feGaussianBlur stdDeviation="2" in="shadowOffsetOuter1" result="shadowBlurOuter1"/><feColorMatrix values="0 0 0 0 0.748018569 0 0 0 0 0.331975413 0 0 0 0 0.00651380499 0 0 0 0.401715472 0" in="shadowBlurOuter1"/></filter><path d="M19.886 3.723v12.18l-.058-.001c.047.22.072.444.072.671 0 3.011-4.254 5.452-9.5 5.452-5.247 0-9.5-2.601-9.5-5.612 0-.123.007-.245.02-.366H.9V3.724h18.986z" id="X"/><filter x="-31.6%" y="-32.8%" width="163.2%" height="165.6%" filterUnits="objectBoundingBox" id="W"><feOffset in="SourceAlpha" result="shadowOffsetOuter1"/><feGaussianBlur stdDeviation="2" in="shadowOffsetOuter1" result="shadowBlurOuter1"/><feColorMatrix values="0 0 0 0 0.748018569 0 0 0 0 0.331975413 0 0 0 0 0.00651380499 0 0 0 0.401715472 0" in="shadowBlurOuter1"/></filter><linearGradient x1="0%" y1="97.699%" x2="100%" y2="2.301%" id="Y"><stop stop-color="#00E6FF" offset="0%"/><stop stop-color="#77BD8C" offset="100%"/></linearGradient><linearGradient x1=".605%" y1="100%" x2="99.395%" y2="0%" id="Z"><stop stop-color="#00E6FF" offset="0%"/><stop stop-color="#77BD8C" offset="100%"/></linearGradient><filter x="-4.6%" y="-7.9%" width="109.3%" height="115.8%" filterUnits="objectBoundingBox" id="aa"><feGaussianBlur stdDeviation="1" in="SourceGraphic"/></filter><linearGradient x1="34.294%" y1="32.905%" x2="100%" y2="67.095%" id="ab"><stop stop-color="#EFF2F6" offset="0%"/><stop stop-color="#DAE1E9" offset="100%"/></linearGradient><linearGradient x1="53.624%" y1="38.518%" x2="46.376%" y2="50%" id="ac"><stop stop-color="#DCE4EB" offset="0%"/><stop stop-color="#B7C4D3" offset="100%"/></linearGradient><linearGradient x1="40.708%" y1="5%" x2="53.53%" y2="100%" id="ad"><stop stop-color="#FFF" offset="0%"/><stop stop-color="#D4DBE3" offset="100%"/></linearGradient><path d="M5.452 55.273l1.007 4.976 1.207-3.695.785.455L9.658 62.1l1.007-3.811.792.458-1.403 4.59-.76-.44-1.232-5.192-1.24 3.76-.76-.439-1.395-6.208.785.454zm6.743 3.903l2.403 1.39c.475.275.858.632 1.148 1.071.291.44.437.904.437 1.394 0 .422-.13.714-.39.876-.259.163-.657.088-1.195-.223l-1.68-.972v2.283l-.723-.419v-5.4zm3.257 3.436c0-.397-.145-.75-.436-1.061a2.922 2.922 0 0 0-.658-.495l-1.44-.833v1.871l1.44.833c.325.188.588.271.79.248.203-.022.304-.21.304-.563zm2.112 3.329c.017.316.088.606.214.87.24.497.663.92 1.269 1.272.271.157.519.26.742.311.43.098.647-.05.647-.442 0-.294-.091-.556-.273-.786-.184-.23-.473-.503-.865-.82l-.724-.585c-.472-.381-.807-.694-1.003-.937-.34-.422-.509-.857-.509-1.306 0-.485.166-.787.498-.906.332-.12.802-.003 1.41.35a4.93 4.93 0 0 1 1.427 1.235c.392.5.587 1.05.587 1.65l-.68-.393a2.25 2.25 0 0 0-.232-.8c-.22-.41-.595-.767-1.123-1.073-.427-.247-.733-.334-.92-.26-.186.073-.28.23-.28.47 0 .265.11.521.327.77.143.161.467.447.971.856l.749.606c.36.293.64.568.836.826.34.449.509.913.509 1.394 0 .598-.215.901-.645.91-.43.008-.93-.153-1.5-.482-.664-.385-1.184-.857-1.56-1.418-.375-.558-.56-1.126-.552-1.705l.68.393zm8.866 1.326c.942.546 1.64 1.256 2.093 2.131.354.683.531 1.397.531 2.142 0 .806-.202 1.36-.607 1.66-.475.352-1.152.274-2.032-.235a5.19 5.19 0 0 1-1.937-1.945c-.42-.772-.63-1.563-.63-2.372 0-.73.18-1.251.539-1.563.46-.4 1.141-.34 2.043.182zm.072 5.094c.638.369 1.099.404 1.383.107.285-.297.428-.746.428-1.346 0-.635-.165-1.241-.493-1.819a3.599 3.599 0 0 0-1.347-1.36c-.552-.32-1.003-.389-1.352-.207-.349.181-.523.646-.523 1.394 0 .598.15 1.189.449 1.772.299.584.784 1.07 1.455 1.459zm3.49-2.021c.01-.269.057-.443.142-.521.152-.137.447-.08.883.173a3.63 3.63 0 0 1 .276.175v.603a8.752 8.752 0 0 0-.232-.146c-.2-.115-.318-.132-.357-.05-.038.082-.058.336-.058.762l.647.375v.522l-.654-.379v3.397l-.647-.374V71.48l-.542-.314v-.522l.542.314v-.618zm1.937 1.121c.01-.269.057-.442.142-.52.153-.138.447-.08.883.172a3.63 3.63 0 0 1 .277.175v.603a8.752 8.752 0 0 0-.233-.146c-.199-.115-.317-.131-.356-.05-.039.082-.058.336-.058.763l.647.374v.522l-.655-.379v3.398l-.647-.375v-3.397l-.541-.314v-.522l.541.314v-.618zm1.905 1.72l.665.385v3.92l-.665-.386v-3.919zm0-1.481l.665.385v.75l-.665-.385v-.75zm3.155 3.175c.439.254.796.568 1.07.943.276.375.441.842.497 1.401l-.636-.368a2.13 2.13 0 0 0-.266-.758c-.138-.24-.36-.45-.665-.626-.417-.241-.715-.208-.894.1-.116.2-.174.496-.174.888 0 .395.082.774.247 1.14.165.364.424.65.778.854.271.157.486.198.645.122.159-.076.268-.243.329-.5l.636.369c-.073.48-.255.756-.545.83-.291.073-.663-.022-1.116-.284a3.218 3.218 0 0 1-1.218-1.27c-.303-.55-.454-1.108-.454-1.672 0-.691.166-1.133.498-1.326.332-.193.755-.14 1.268.157zm3.842 2.25c.277.16.544.38.804.661s.457.565.592.852c.131.275.218.557.262.847.039.203.058.504.058.901l-2.853-1.652c.012.407.105.781.28 1.124.174.342.444.62.81.831.342.198.614.242.818.132a.539.539 0 0 0 .247-.317l.644.372a.78.78 0 0 1-.17.386.74.74 0 0 1-.321.25c-.199.08-.445.07-.738-.03a2.918 2.918 0 0 1-.534-.25c-.485-.281-.896-.697-1.233-1.249a3.374 3.374 0 0 1-.505-1.79c0-.633.17-1.048.509-1.247.34-.198.783-.138 1.33.179zm1.044 2.346a2.61 2.61 0 0 0-.186-.795 2.066 2.066 0 0 0-.898-.997c-.3-.174-.552-.21-.756-.109-.203.102-.311.318-.323.65l2.163 1.251z" id="ae"/><path d="M26.421 40.567c.24-.413.768-.46 1.35-.121l9.21 5.365c1.091.636 1.807 2.239 1.333 2.985l-8.47 13.32c-.546.86-2.167-.107-2.682-1.6l-2.066-5.98 1.623-2.807 1.84 5.326 6.065-9.54-5.895-3.433-2.912 5.037-1.622 2.807-2.968 5.133c-.515.893-2.136-.029-2.683-1.525l-8.47-23.19c-.473-1.298.243-2.067 1.334-1.43l9.21 5.364c.582.34 1.11 1.003 1.35 1.695l1.325 3.836-1.623 2.808-2.01-5.818-5.895-3.434L19.83 51.97l2.742-4.742 1.622-2.808 2.227-3.853z" id="af"/><filter x="-1.8%" y="-1.6%" width="103.5%" height="103.1%" filterUnits="objectBoundingBox" id="ag"><feGaussianBlur stdDeviation=".5" in="SourceAlpha" result="shadowBlurInner1"/><feOffset in="shadowBlurInner1" result="shadowOffsetInner1"/><feComposite in="shadowOffsetInner1" in2="SourceAlpha" operator="arithmetic" k2="-1" k3="1" result="shadowInnerInner1"/><feColorMatrix values="0 0 0 0 0 0 0 0 0 0 0 0 0 0 0 0 0 0 0.25 0" in="shadowInnerInner1"/></filter><linearGradient x1="50%" y1="80.202%" x2="50%" y2="5.117%" id="ah"><stop stop-color="#4E98FF" offset="0%"/><stop stop-color="#00E9FF" stop-opacity="0" offset="100%"/></linearGradient><linearGradient x1="50%" y1="0%" x2="50%" y2="100%" id="ai"><stop stop-color="#76D8FF" offset="0%"/><stop stop-color="#82FFFD" stop-opacity="0" offset="100%"/></linearGradient><linearGradient x1="50%" y1="0%" x2="50%" y2="100%" id="aj"><stop stop-color="#76D8FF" offset="0%"/><stop stop-color="#82FFFD" stop-opacity="0" offset="100%"/></linearGradient></defs><g fill="none" fill-rule="evenodd"><path fill="#114BBB" opacity=".106" filter="url(#a)" d="M1 156.767L93.366 102 188 156.238 95.634 211z" transform="translate(206 160)"/><path fill="url(#b)" d="M93 1l67.983 38.716L160 133 93.017 94.284z" transform="translate(206 160)"/><path fill="url(#c)" d="M27 38.579L93 0v94.421L27 133z" transform="translate(206 160)"/><path fill="url(#d)" d="M95.1 93.535L187.4 40.4l-.3 77.865-92 54.135z" transform="translate(206 160)"/><path d="M.5 40.9l94.584 53.883.016 77.717-91.508-52.852a5 5 0 0 1-2.5-4.29L.5 40.9z" fill="url(#e)" transform="translate(206 160)"/><path fill="url(#f)" d="M111 111.618L177 73v39.382L111 151z" transform="translate(206 160)"/><g transform="translate(264 181)"><use fill="#000" filter="url(#g)" xlink:href="#h"/><use fill="url(#i)" xlink:href="#h"/></g><path fill="#FFF" d="M264.885 182.726l46.993 27.066v38.922l-46.993-27.066z"/><path d="M5 32.76V16l4.72 2.365C14.575 20.796 17 24.735 17 30.18c0 2.59-.68 4.328-2.038 5.216-1.36.889-3.112.795-5.26-.28L5 32.76zM8 21v10.683l1.581.779c1.377.677 2.457.715 3.242.113.785-.601 1.177-1.746 1.177-3.433 0-1.63-.41-3.104-1.23-4.422-.82-1.318-1.886-2.3-3.198-2.946L8 21zm10 10.319c0-2.66.61-4.51 1.828-5.545 1.22-1.035 2.83-1.032 4.831.01 1.904.992 3.437 2.597 4.599 4.817A15.167 15.167 0 0 1 31 37.736c0 2.646-.604 4.479-1.811 5.499-1.207 1.02-2.789 1.02-4.745.002-1.91-.995-3.461-2.6-4.654-4.82A14.765 14.765 0 0 1 18 31.32zm3 .856c0 1.646.31 3.154.933 4.524.622 1.37 1.474 2.338 2.558 2.903 1.107.578 1.969.526 2.585-.154.616-.68.924-1.866.924-3.556 0-1.763-.3-3.313-.899-4.649-.599-1.336-1.443-2.288-2.533-2.857-1.106-.577-1.978-.507-2.614.21-.636.717-.954 1.91-.954 3.579zm23 19.808c-1.031.101-2.376-.25-4.036-1.054-2.135-1.033-3.83-2.61-5.083-4.732C33.627 44.075 33 41.753 33 39.23c0-2.653.7-4.485 2.1-5.495 1.4-1.01 3.208-.98 5.422.093 1.385.67 2.545 1.445 3.478 2.323v3.46c-.958-1.13-2.044-1.988-3.258-2.575-1.385-.67-2.492-.683-3.322-.036-.83.646-1.244 1.815-1.244 3.507 0 1.648.393 3.165 1.18 4.551.787 1.386 1.852 2.404 3.194 3.054 1.263.611 2.413.806 3.45.585v3.286z" fill="url(#j)" transform="translate(264 181)"/><path d="M206.5 200.967l92.366-54.767 94.634 54.238-92.366 54.762-94.634-54.233zm26.74-.019l65.953-39.078 67.572 38.78-65.953 39.077-67.573-38.779z" fill="url(#k)"/><path fill="url(#l)" opacity=".35" d="M234 201.181l66.8 38.619 66.2-38.619V29H234z"/><g transform="translate(309 133)"><use fill="#000" filter="url(#m)" xlink:href="#n"/><use fill="url(#o)" xlink:href="#n"/></g><path fill="url(#p)" d="M.71.871l47.26 26.784.01 38.518L.72 39.388z" transform="translate(309 133)"/><path d="M6.098 30.092l2.831 1.602v-5.47l1.887 1.07c3.037 1.714 5.462 1.514 5.46-2 0-3.64-2.407-6.19-5.538-7.966l-4.641-2.63.001 15.394zM8.93 23.79v-5.056l1.604.91c1.949 1.104 2.988 2.291 2.988 4.08 0 1.789-.934 2.132-2.882 1.029l-1.71-.963zm9.907 13.518l2.831 1.602v-5.472l1.887 1.072c3.037 1.721 5.462 1.514 5.462-2.001 0-3.64-2.408-6.19-5.54-7.965l-4.641-2.63.001 15.394zm2.831-6.304v-5.055l1.604.91c1.948 1.103 2.988 2.292 2.988 4.081 0 1.789-.944 2.132-2.883 1.028l-1.709-.964zM34.38 46.118l2.83 1.602V34.884l4.01 2.273v-2.566l-10.81-6.127v2.559l3.971 2.251-.001 12.844z" fill="url(#q)" transform="translate(309 133)"/><g transform="translate(242 116)"><use fill="#000" filter="url(#r)" xlink:href="#s"/><use fill="url(#t)" xlink:href="#s"/></g><path fill="url(#u)" d="M.524 1.366L47.783 28.28v38.706L.532 40.07z" transform="translate(242 116)"/><path d="M7.26 31.542l2.831 1.61v-5.514l1.887 1.08c3.042 1.73 5.468 1.52 5.468-2.024 0-3.668-2.41-6.236-5.546-8.022l-4.646-2.646.007 15.516zm2.831-6.357V20.09l1.606.916c1.95 1.11 2.988 2.306 2.988 4.11 0 1.804-.944 2.15-2.888 1.038l-1.706-.97zm9.919 13.622l4.035 2.296c4.167 2.376 6.844 1.3 6.844-3.914a13 13 0 0 0-7.002-11.68l-3.88-2.21.003 15.508zm2.83-.884V27.377l.88.5a8.125 8.125 0 0 1 4.272 7.652c0 3.775-1.643 4.384-4.282 2.888l-.87-.494zm10.816 8.654l2.831 1.613v-6.291l5.032 2.863v-2.599L36.487 39.3v-4.048l5.888 3.356v-2.58l-8.719-4.965v15.514z" fill="url(#v)" transform="translate(242 116)"/><g transform="translate(309 53)"><use fill="#000" filter="url(#w)" xlink:href="#x"/><use fill="url(#y)" xlink:href="#x"/></g><path fill="url(#z)" d="M.118.949l47.22 26.786.01 38.517L.126 39.468z" transform="translate(309 53)"/><path d="M11.666 35.233c3.645 2.067 6.155.244 6.153-5.055a13.522 13.522 0 0 0-6.158-11.906c-3.644-2.067-6.155-.4-6.153 4.922.001 5.323 2.514 9.971 6.158 12.039zm0-2.827c-2.043-1.16-3.347-4.129-3.349-7.62-.001-3.49 1.301-4.87 3.347-3.709 2.046 1.16 3.349 3.997 3.349 7.507s-1.303 4.981-3.349 3.825l.002-.003zm8.847 7.534l2.751 1.558v-6.625l4.892 2.775v-2.74l-4.892-2.773v-4.26l5.73 3.249v-2.716l-8.486-4.81.005 16.342zm10.872 6.167l3.928 2.226c4.054 2.3 6.656 1.038 6.656-4.46.185-4.942-2.447-9.568-6.808-11.965l-3.772-2.143-.004 16.342zm2.753-1.066V33.933l.856.485a8.228 8.228 0 0 1 4.166 7.862c0 3.975-1.598 4.703-4.164 3.246l-.858-.485z" fill="url(#A)" transform="translate(309 53)"/><g transform="translate(251 58)"><use fill="#000" filter="url(#B)" xlink:href="#C"/><use fill="url(#D)" xlink:href="#C"/></g><path fill="url(#E)" d="M.01.999l47.222 26.784V66.3L.012 39.516z" transform="translate(251 58)"/><path d="M8.109 33.01l2.986 1.694 1.502-2.77c.342-.645.664-1.323 1.026-2.111l.075.043c.42 1.231.744 2.275 1.1 3.32l1.572 4.52 3.119 1.768-3.958-10.525 3.706-5.957-2.966-1.683-1.331 2.6a29.75 29.75 0 0 0-.93 2.057l-.096-.054c-.418-1.247-.723-2.22-1.047-3.177l-1.414-4.156-3.12-1.768 3.71 10.01-3.934 6.19zm13.382 7.592l8.52 4.83v-2.739l-5.706-3.236V25.853l-2.814-1.597v16.346zm15.171 8.913c3.251 1.844 5.171.66 5.171-2.012a8.622 8.622 0 0 0-2.828-6.047l-1.845-1.95c-1.199-1.233-2.2-2.224-2.2-3.395 0-1.09.798-1.27 2.034-.568a8.895 8.895 0 0 1 2.985 3.04l1.425-1.247a12.534 12.534 0 0 0-4.412-4.601c-2.852-1.617-4.871-.707-4.871 1.965a9.161 9.161 0 0 0 2.853 6.013l1.886 1.994c1.257 1.33 2.11 2.192 2.11 3.406 0 1.148-.785 1.435-2.242.605a11.323 11.323 0 0 1-3.576-3.84l-1.616 1.336a14.952 14.952 0 0 0 5.126 5.3z" fill="url(#F)" transform="translate(251 58)"/><g><path fill="url(#G)" d="M.096 50.206l87.121 51.012v15.674L.097 65.88z" transform="translate(318 237)"/><path fill="url(#H)" d="M87.075 101.126l58.896-34.935v15.832l-58.896 34.931v-15.832z" transform="translate(318 237)"/><path fill="url(#I)" d="M145.972 66.252L60.418 14.878 0 50.198l87 50.952z" transform="translate(318 237)"/><path fill="url(#J)" opacity=".7" d="M154.368 51.625L69.19 0 8.75 35.448l85.179 51.624z" transform="translate(318 237)"/></g><g><g transform="translate(372.1 262)"><use fill="#000" filter="url(#K)" xlink:href="#L"/><use fill="url(#M)" xlink:href="#L"/></g><path d="M10.54 10.904c5.27 0 9.542-2.44 9.542-5.452C20.082 2.441 15.81 0 10.54 0 5.27 0 1 2.441 1 5.452s4.272 5.452 9.54 5.452z" fill="url(#N)" fill-rule="nonzero" transform="translate(372.1 262)"/><path d="M20.042 17.024c.026.164.04.331.04.5 0 3.01-4.272 5.452-9.541 5.452C5.27 22.976 1 20.535 1 17.524c0-.169.013-.336.04-.5.442 2.777 4.527 4.952 9.5 4.952 4.966 0 9.046-2.168 9.5-4.937z" fill="url(#O)" fill-rule="nonzero" transform="translate(372.1 262)"/><path d="M20.042 13.024c.026.164.04.331.04.5 0 3.01-4.272 5.452-9.541 5.452C5.27 18.976 1 16.535 1 13.524c0-.169.013-.336.04-.5.442 2.777 4.527 4.952 9.5 4.952 4.966 0 9.046-2.168 9.5-4.937z" fill="url(#O)" fill-rule="nonzero" transform="translate(372.1 262)"/><path d="M20.042 9.024c.026.164.04.331.04.5 0 3.01-4.272 5.452-9.541 5.452C5.27 14.976 1 12.535 1 9.524c0-.169.013-.336.04-.5.442 2.777 4.527 4.952 9.5 4.952 4.966 0 9.046-2.168 9.5-4.937zM20.042 21.024c.026.164.04.331.04.5 0 3.01-4.272 5.452-9.541 5.452C5.27 26.976 1 24.535 1 21.524c0-.169.013-.336.04-.5.442 2.777 4.527 4.952 9.5 4.952 4.966 0 9.046-2.168 9.5-4.937z" fill="url(#O)" fill-rule="nonzero" transform="translate(372.1 262)"/><g><g transform="translate(388.1 272)"><use fill="#000" filter="url(#P)" xlink:href="#Q"/><use fill="url(#M)" xlink:href="#Q"/></g><path d="M10.54 10.904c5.27 0 9.542-2.44 9.542-5.452C20.082 2.441 15.81 0 10.54 0 5.27 0 1 2.441 1 5.452s4.272 5.452 9.54 5.452z" fill="url(#N)" fill-rule="nonzero" transform="translate(388.1 272)"/><path d="M20.042 17.024c.026.164.04.331.04.5 0 3.01-4.272 5.452-9.541 5.452C5.27 22.976 1 20.535 1 17.524c0-.169.013-.336.04-.5.442 2.777 4.527 4.952 9.5 4.952 4.966 0 9.046-2.168 9.5-4.937z" fill="url(#O)" fill-rule="nonzero" transform="translate(388.1 272)"/><path d="M20.042 13.024c.026.164.04.331.04.5 0 3.01-4.272 5.452-9.541 5.452C5.27 18.976 1 16.535 1 13.524c0-.169.013-.336.04-.5.442 2.777 4.527 4.952 9.5 4.952 4.966 0 9.046-2.168 9.5-4.937z" fill="url(#O)" fill-rule="nonzero" transform="translate(388.1 272)"/><path d="M20.042 9.024c.026.164.04.331.04.5 0 3.01-4.272 5.452-9.541 5.452C5.27 14.976 1 12.535 1 9.524c0-.169.013-.336.04-.5.442 2.777 4.527 4.952 9.5 4.952 4.966 0 9.046-2.168 9.5-4.937zM20.042 21.024c.026.164.04.331.04.5 0 3.01-4.272 5.452-9.541 5.452C5.27 26.976 1 24.535 1 21.524c0-.169.013-.336.04-.5.442 2.777 4.527 4.952 9.5 4.952 4.966 0 9.046-2.168 9.5-4.937z" fill="url(#O)" fill-rule="nonzero" transform="translate(388.1 272)"/></g><g><g transform="translate(405.1 281)"><use fill="#000" filter="url(#R)" xlink:href="#S"/><use fill="url(#M)" xlink:href="#S"/></g><path d="M10.54 10.904c5.27 0 9.542-2.44 9.542-5.452C20.082 2.441 15.81 0 10.54 0 5.27 0 1 2.441 1 5.452s4.272 5.452 9.54 5.452z" fill="url(#N)" fill-rule="nonzero" transform="translate(405.1 281)"/><path d="M20.042 17.024c.026.164.04.331.04.5 0 3.01-4.272 5.452-9.541 5.452C5.27 22.976 1 20.535 1 17.524c0-.169.013-.336.04-.5.442 2.777 4.527 4.952 9.5 4.952 4.966 0 9.046-2.168 9.5-4.937z" fill="url(#O)" fill-rule="nonzero" transform="translate(405.1 281)"/><path d="M20.042 13.024c.026.164.04.331.04.5 0 3.01-4.272 5.452-9.541 5.452C5.27 18.976 1 16.535 1 13.524c0-.169.013-.336.04-.5.442 2.777 4.527 4.952 9.5 4.952 4.966 0 9.046-2.168 9.5-4.937z" fill="url(#O)" fill-rule="nonzero" transform="translate(405.1 281)"/><path d="M20.042 9.024c.026.164.04.331.04.5 0 3.01-4.272 5.452-9.541 5.452C5.27 14.976 1 12.535 1 9.524c0-.169.013-.336.04-.5.442 2.777 4.527 4.952 9.5 4.952 4.966 0 9.046-2.168 9.5-4.937zM20.042 21.024c.026.164.04.331.04.5 0 3.01-4.272 5.452-9.541 5.452C5.27 26.976 1 24.535 1 21.524c0-.169.013-.336.04-.5.442 2.777 4.527 4.952 9.5 4.952 4.966 0 9.046-2.168 9.5-4.937z" fill="url(#O)" fill-rule="nonzero" transform="translate(405.1 281)"/></g><g transform="translate(373.1 287)"><use fill="#000" filter="url(#T)" xlink:href="#U"/><use fill="url(#V)" xlink:href="#U"/><ellipse fill="url(#N)" fill-rule="nonzero" cx="10.541" cy="5.452" rx="9.541" ry="5.452"/><path d="M20.042 9.024c.026.164.04.331.04.5 0 3.01-4.272 5.452-9.541 5.452C5.27 14.976 1 12.535 1 9.524c0-.169.013-.336.04-.5.442 2.777 4.527 4.952 9.5 4.952 4.966 0 9.046-2.168 9.5-4.937z" fill="url(#O)" fill-rule="nonzero"/><path d="M20.042 13.024c.026.164.04.331.04.5 0 3.01-4.272 5.452-9.541 5.452C5.27 18.976 1 16.535 1 13.524c0-.169.013-.336.04-.5.442 2.777 4.527 4.952 9.5 4.952 4.966 0 9.046-2.168 9.5-4.937z" fill="url(#O)" fill-rule="nonzero"/></g><g transform="translate(391.1 297)"><use fill="#000" filter="url(#W)" xlink:href="#X"/><use fill="url(#V)" xlink:href="#X"/><ellipse fill="url(#N)" fill-rule="nonzero" cx="10.541" cy="5.452" rx="9.541" ry="5.452"/><path d="M20.042 9.024c.026.164.04.331.04.5 0 3.01-4.272 5.452-9.541 5.452C5.27 14.976 1 12.535 1 9.524c0-.169.013-.336.04-.5.442 2.777 4.527 4.952 9.5 4.952 4.966 0 9.046-2.168 9.5-4.937z" fill="url(#O)" fill-rule="nonzero"/><path d="M20.042 13.024c.026.164.04.331.04.5 0 3.01-4.272 5.452-9.541 5.452C5.27 18.976 1 16.535 1 13.524c0-.169.013-.336.04-.5.442 2.777 4.527 4.952 9.5 4.952 4.966 0 9.046-2.168 9.5-4.937z" fill="url(#O)" fill-rule="nonzero"/></g></g><g stroke-linecap="round" stroke-linejoin="round" stroke-width="2"><path d="M0 116s15.464-73.891 36.672-45.674c21.209 28.216 46.187 19.577 65.486-30.05l15.316-39.015" stroke="url(#Y)" transform="translate(344 171)"/><path stroke="#77BD8C" d="M452.126 178.814L462.02 171l1.98 12.609"/></g><g stroke-linecap="round" stroke-linejoin="round" stroke-width="2"><path d="M.169 120s16.735-78.254 37.794-50.28c21.06 27.973 45.863 19.408 65.026-29.79l15.208-38.68" stroke="url(#Z)" transform="translate(360 174)"/><path stroke="#77BD8C" d="M468.916 181.747L478.74 174l1.966 12.5"/></g><g><path fill="#5F9BDB" opacity=".35" filter="url(#aa)" d="M66.544 169.957l-45.88-26.897-18.942 11.007 45.88 26.897z" transform="translate(116 118)"/><path fill="url(#ab)" d="M66.544 27.819L20.664.922 1.722 11.929l45.88 26.897z" transform="translate(116 118)"/><path fill="url(#ac)" d="M47.176 38.764L66.42 27.808l-.047 60.294-18.986 11.185z" transform="translate(116 118)"/><path fill="#1349D4" d="M163.3 210.458l19.244-10.607-.047 6.588-19.197 10.856z"/><path fill="url(#ad)" d="M.709 11.166L47.29 37.71l.01 61.556L.72 72.722z" transform="translate(116 118)"/><path fill="#537FF0" d="M116.709 183.46l46.579 26.753v6.947l-46.567-26.646z"/><path fill="#C5CED7" d="M127.065 124.275l46.591 26.056v.579l-46.59-26.057v-.578z"/><g transform="translate(116 118)"><use fill="#000" xlink:href="#ae"/><use fill="#BECADB" xlink:href="#ae"/></g><g transform="translate(116 118)"><use fill="#417FF9" xlink:href="#af"/><use fill="#000" filter="url(#ag)" xlink:href="#af"/></g></g><path fill="url(#ah)" opacity=".35" d="M117 272.152L164.406 299 184 288.386V176h-67z"/><rect fill="url(#ai)" x="132" y="210" width="1" height="46" rx=".5"/><rect fill="url(#ai)" x="153" y="229" width="1" height="46" rx=".5"/><rect fill="url(#ai)" x="160" y="242" width="1" height="46" rx=".5"/><rect fill="url(#aj)" x="144" y="217" width="1" height="13" rx=".5"/><rect fill="url(#aj)" x="173" y="221" width="1" height="13" rx=".5"/><rect fill="url(#aj)" x="139" y="234" width="1" height="13" rx=".5"/><rect fill="url(#aj)" x="125" y="206" width="1" height="13" rx=".5"/></g></svg>