<svg xmlns="http://www.w3.org/2000/svg" viewBox="0 0 44 40"><g fill="none" fill-rule="evenodd" transform="translate(-11 -13)"><path fill="#467DF6" d="M35.8660254,31.5 C36.344318,31.7761424 36.5081932,32.3877328 36.2320508,32.8660254 L31.2320508,41.5262794 C30.9559084,42.0045721 30.344318,42.1684472 29.8660254,41.8923048 C29.3877328,41.6161625 29.2238576,41.0045721 29.5,40.5262794 L34.5,31.8660254 C34.7761424,31.3877328 35.3877328,31.2238576 35.8660254,31.5 Z M21.7573593,37 L26.7071068,41.9497475 C27.0976311,42.3402718 27.0976311,42.9734367 26.7071068,43.363961 C26.3165825,43.7544853 25.6834175,43.7544853 25.2928932,43.363961 L19.636039,37.7071068 C19.4407768,37.5118446 19.3431458,37.2559223 19.3431458,37 C19.3431458,36.7440777 19.4407768,36.4881554 19.636039,36.2928932 L25.2928932,30.636039 C25.6834175,30.2455147 26.3165825,30.2455147 26.7071068,30.636039 C27.0976311,31.0265633 27.0976311,31.6597282 26.7071068,32.0502525 L21.7573593,37 Z M44.3137085,37.0710678 L39.363961,32.1213203 C38.9734367,31.7307961 38.9734367,31.0976311 39.363961,30.7071068 C39.7544853,30.3165825 40.3876503,30.3165825 40.7781746,30.7071068 L46.4350288,36.363961 C46.630291,36.5592232 46.7279221,36.8151455 46.7279221,37.0710678 C46.7279221,37.3269901 46.630291,37.5829124 46.4350288,37.7781746 L40.7781746,43.4350288 C40.3876503,43.8255531 39.7544853,43.8255531 39.363961,43.4350288 C38.9734367,43.0445046 38.9734367,42.4113396 39.363961,42.0208153 L44.3137085,37.0710678 Z M18.5,19.52049 C17.6715729,19.52049 17,18.8489171 17,18.02049 C17,17.1920628 17.6715729,16.52049 18.5,16.52049 C19.3284271,16.52049 20,17.1920628 20,18.02049 C20,18.8489171 19.3284271,19.52049 18.5,19.52049 Z M24.5,19.52049 C23.6715729,19.52049 23,18.8489171 23,18.02049 C23,17.1920628 23.6715729,16.52049 24.5,16.52049 C25.3284271,16.52049 26,17.1920628 26,18.02049 C26,18.8489171 25.3284271,19.52049 24.5,19.52049 Z M30.5,19.52049 C29.6715729,19.52049 29,18.8489171 29,18.02049 C29,17.1920628 29.6715729,16.52049 30.5,16.52049 C31.3284271,16.52049 32,17.1920628 32,18.02049 C32,18.8489171 31.3284271,19.52049 30.5,19.52049 Z"/><path fill="#000" fill-opacity=".8" d="M13,21 L53,21 L53,19 C53,16.790861 51.209139,15 49,15 L17,15 C14.790861,15 13,16.790861 13,19 L13,21 Z M53,23 L13,23 L13,47 C13,49.209139 14.790861,51 17,51 L49,51 C51.209139,51 53,49.209139 53,47 L53,23 Z M17,13 L49,13 C52.3137085,13 55,15.6862915 55,19 L55,47 C55,50.3137085 52.3137085,53 49,53 L17,53 C13.6862915,53 11,50.3137085 11,47 L11,19 C11,15.6862915 13.6862915,13 17,13 Z"/></g></svg>