<svg xmlns="http://www.w3.org/2000/svg" xmlns:xlink="http://www.w3.org/1999/xlink"><defs><filter x="-5.7%" y="-9.7%" width="111.3%" height="119.4%" filterUnits="objectBoundingBox" id="a"><feGaussianBlur stdDeviation="4" in="SourceGraphic"/></filter><linearGradient x1="64.96%" y1="36.064%" x2="61.245%" y2="41.952%" id="b"><stop stop-color="#5697E3" offset="0%"/><stop stop-color="#2658C7" offset="100%"/></linearGradient><linearGradient x1="38.133%" y1="36.691%" x2="40.697%" y2="43.566%" id="c"><stop stop-color="#5697E3" offset="0%"/><stop stop-color="#2658C7" offset="100%"/></linearGradient><linearGradient x1="62.29%" y1="61.84%" x2="39.481%" y2="0%" id="f"><stop stop-color="#668EC1" offset="0%"/><stop stop-color="#EDF4FC" offset="100%"/></linearGradient><path id="e" d="M84.939 47.135v133.552L2.192 132.64V.284z"/><filter x="-24.8%" y="-14.7%" width="159.2%" height="127.2%" filterUnits="objectBoundingBox" id="d"><feOffset dx="4" dy="-2" in="SourceAlpha" result="shadowOffsetOuter1"/><feGaussianBlur stdDeviation="7.5" in="shadowOffsetOuter1" result="shadowBlurOuter1"/><feColorMatrix values="0 0 0 0 0 0 0 0 0 0.350738895 0 0 0 0 0.756085824 0 0 0 0.2 0" in="shadowBlurOuter1"/></filter><linearGradient x1="53.115%" y1="55.196%" x2="50%" y2="18.081%" id="g"><stop stop-color="#D8E9FF" offset="0%"/><stop stop-color="#FFF" offset="100%"/></linearGradient><path id="i" d="M84.996 47.766v133.552L2.25 133.272V.916z"/><filter x="-24.8%" y="-14.7%" width="159.2%" height="127.2%" filterUnits="objectBoundingBox" id="h"><feOffset dx="4" dy="-2" in="SourceAlpha" result="shadowOffsetOuter1"/><feGaussianBlur stdDeviation="7.5" in="shadowOffsetOuter1" result="shadowBlurOuter1"/><feColorMatrix values="0 0 0 0 0 0 0 0 0 0.350738895 0 0 0 0 0.756085824 0 0 0 0.2 0" in="shadowBlurOuter1"/></filter><path id="k" d="M84.923 47.584v133.552L2.176 133.09V.734z"/><filter x="-24.8%" y="-14.7%" width="159.2%" height="127.2%" filterUnits="objectBoundingBox" id="j"><feOffset dx="4" dy="-2" in="SourceAlpha" result="shadowOffsetOuter1"/><feGaussianBlur stdDeviation="7.5" in="shadowOffsetOuter1" result="shadowBlurOuter1"/><feColorMatrix values="0 0 0 0 0 0 0 0 0 0.350738895 0 0 0 0 0.756085824 0 0 0 0.2 0" in="shadowBlurOuter1"/></filter><path id="m" d="M2.5.207l82.513 46.791V180.55L2.266 132.504V.148z"/><filter x="-24.8%" y="-14.7%" width="159.2%" height="127.2%" filterUnits="objectBoundingBox" id="l"><feOffset dx="4" dy="-2" in="SourceAlpha" result="shadowOffsetOuter1"/><feGaussianBlur stdDeviation="7.5" in="shadowOffsetOuter1" result="shadowBlurOuter1"/><feColorMatrix values="0 0 0 0 0 0 0 0 0 0.350738895 0 0 0 0 0.756085824 0 0 0 0.2 0" in="shadowBlurOuter1"/></filter><linearGradient x1="50%" y1="57.556%" x2="50%" y2="18.081%" id="n"><stop stop-color="#D8E9FF" offset="0%"/><stop stop-color="#FFF" offset="100%"/></linearGradient><linearGradient x1="89.652%" y1="53.725%" x2="16.787%" y2="43.599%" id="p"><stop stop-color="#245CD7" offset="0%"/><stop stop-color="#6C96E7" offset="63.782%"/><stop stop-color="#74A7FF" offset="100%"/></linearGradient><path d="M.88 19.7l98.81 56.807a15 15 0 0 0 15.006-.031L212 20v102.116a5 5 0 0 1-2.463 4.309l-100.844 59.38a2 2 0 0 1-2.023.004L2.504 124.997a5 5 0 0 1-2.48-4.36L.882 19.7z" id="o"/><linearGradient x1="30.981%" y1="69.622%" x2="69.019%" y2="16.607%" id="q"><stop stop-color="#5697E3" offset="0%"/><stop stop-color="#2658C7" offset="100%"/></linearGradient><linearGradient x1="65.04%" y1="81.933%" x2="37.312%" y2="19.602%" id="s"><stop stop-color="#245CD7" offset="0%"/><stop stop-color="#74A7FF" offset="100%"/></linearGradient><linearGradient x1="19.986%" y1="55.234%" x2="50%" y2="39.861%" id="t"><stop stop-color="#E0EEFF" offset="0%"/><stop stop-color="#6F9EF2" offset="100%"/></linearGradient><linearGradient x1="80.364%" y1="81.135%" x2="33.3%" y2="77.037%" id="u"><stop stop-color="#4E98FF" offset="0%"/><stop stop-color="#00E9FF" stop-opacity="0" offset="100%"/></linearGradient><linearGradient x1="17.173%" y1="77.77%" x2="65.809%" y2="55.618%" id="v"><stop stop-color="#4E98FF" offset="0%"/><stop stop-color="#00E9FF" stop-opacity="0" offset="100%"/></linearGradient><linearGradient x1="70.557%" y1="78.037%" x2="34.283%" y2="39.359%" id="w"><stop stop-color="#4E98FF" offset="0%"/><stop stop-color="#00E9FF" stop-opacity="0" offset="100%"/></linearGradient><linearGradient x1="54.241%" y1="54.508%" x2="104.158%" y2="46.773%" id="x"><stop stop-color="#689EFF" offset="0%"/><stop stop-color="#FFF" stop-opacity="0" offset="100%"/></linearGradient><linearGradient x1="100%" y1="100%" x2="100%" y2="0%" id="y"><stop stop-color="#689EFF" offset="0%"/><stop stop-color="#FFF" stop-opacity=".15" offset="100%"/></linearGradient><linearGradient x1="32.169%" y1="86.084%" x2="8.94%" y2="4.818%" id="z"><stop stop-color="#689EFF" offset="0%"/><stop stop-color="#FFF" stop-opacity=".157" offset="100%"/></linearGradient></defs><g fill="none" fill-rule="evenodd"><path fill="#114BBB" opacity=".106" filter="url(#a)" d="M103 278.5L207.713 216 315 277.5 210.278 340z" transform="translate(95 30)"/><path fill="url(#b)" d="M211 73l106 61.015V239l-106-62.238z" transform="translate(95 30)"/><path fill="url(#c)" d="M109 134.913L213 73v105.1L109.505 239z" transform="translate(95 30)"/><g opacity=".9"><g transform="translate(299 79)"><use fill="#000" filter="url(#d)" xlink:href="#e"/><use fill="url(#f)" xlink:href="#e"/></g><path fill="url(#g)" d="M83.011 48.091v133.552L.264 133.597V1.241z" transform="translate(299 79)"/><g opacity=".1"><path fill="#ECAB2C" d="M310.742 99.35l8.27 4.715v9.467l-8.27-4.714z"/><path fill="#D4DDDF" d="M323.976 108.78l33.108 18.849v2.84l-33.098-18.85z"/></g></g><g transform="translate(278 92)"><use fill="#000" filter="url(#h)" xlink:href="#i"/><use fill="url(#f)" xlink:href="#i"/></g><path fill="url(#g)" d="M83 48.709V182.26L.253 134.214V1.858z" transform="translate(278 92)"/><g opacity=".2"><path fill="#ECAB2C" d="M291.94 109.782l8.27 4.715v9.468l-8.27-4.715z"/><path fill="#D4DDDF" d="M305.174 119.212l33.109 18.85v2.84l-33.1-18.85z"/></g><g><g transform="translate(255 102)"><use fill="#000" filter="url(#j)" xlink:href="#k"/><use fill="url(#f)" xlink:href="#k"/></g><path fill="url(#g)" d="M82.995 48.502v133.552L.248 134.008V1.652z" transform="translate(255 102)"/><g opacity=".5"><path fill="#ECAB2C" d="M266 119.779l8.002 4.585v9.468L266 129.246z"/><path fill="#D4DDDF" d="M278.99 129.025l33.037 18.878v2.84L279 131.867z"/><path fill="#77BD8C" d="M266.188 142.364l8.28 4.715v9.467l-8.28-4.714z"/><path fill="#5EC2FB" d="M266.198 164.14l8.27 4.705v9.468l-8.27-4.715z"/><path fill="#D4DDDF" d="M279 133.76l50 28.482v2.83L279 136.6zM279.431 156.527l49.658 28.279v2.84l-49.658-28.278zM279.431 151.803l24.83 14.135v2.84l-24.83-14.135zM279.431 173.57l41.379 23.554v2.84l-41.379-23.555zM266.198 183.066l62.062 35.336.01 9.468-62.072-35.337zM279.441 178.303l49.648 28.27v2.84l-49.648-28.27z"/></g></g><g><g transform="translate(233 112)"><use fill="#000" filter="url(#l)" xlink:href="#m"/><use fill="url(#f)" xlink:href="#m"/></g><path fill="url(#n)" d="M83.03 47.976v133.551L.034 133.446V1.09z" transform="translate(233 112)"/><path fill="#ECAB2C" d="M242.91 137.821l8.27 4.715v9.468l-8.27-4.715z"/><path fill="#77BD8C" d="M242.91 160.534l8.28 4.715v9.468l-8.28-4.715z"/><path fill="#5EC2FB" d="M242.92 182.31l8.27 4.705v9.468l-8.27-4.715z"/><path fill="#D4DDDF" d="M256.154 151.985l49.648 28.278v2.831l-49.648-28.269zM256.145 147.25l33.108 18.85v2.84l-33.099-18.849zM256.154 174.698l49.658 28.278v2.84l-49.658-28.278zM256.154 169.973l24.83 14.135v2.84l-24.83-14.134zM256.154 191.74l41.379 23.554v2.84l-41.379-23.554zM242.92 201.236l62.063 35.336.01 9.468-62.073-35.337zM256.164 196.473l49.648 28.27v2.84l-49.648-28.27z"/></g><g transform="translate(200 144)"><mask id="r" fill="#fff"><use xlink:href="#o"/></mask><use fill="url(#p)" xlink:href="#o"/><path fill="url(#q)" mask="url(#r)" d="M106.264 77.554L212.31 16.39l-.345 109.632-105.702 62.315z"/><path d="M.329 6.51L108 68.537l.018 119.46L2.914 127.178a5.75 5.75 0 0 1-2.87-4.991L.33 6.511z" fill="url(#s)" mask="url(#r)"/><path d="M1 19.884L32.945.014v8.293l-19.761 12.13 93.959 54.336a2 2 0 0 0 2.03-.015l91.173-54.643-16.316-9.638V3.751L212 20.02l-102.815 62.41a2 2 0 0 1-2.054.013L1 19.884z" fill="url(#t)"/></g><g opacity=".55"><path fill="url(#u)" d="M0 159.549l98.9 56.39v114.735L0 273.04z" transform="translate(138 30)"/><path fill="url(#v)" d="M239.06 215.767l96.287-56.333v114.907l-96.288 56.333V215.767z" transform="translate(138 30)"/><path fill="url(#w)" d="M71.458 57.415L168.024 0l98.938 56.553-96.567 57.416z" transform="translate(138 30)"/></g><g transform="translate(95 52)"><path stroke="url(#x)" stroke-width="3" d="M107.87 4.7l107.289 63.184 79.988-48.345"/><ellipse fill="#6E9BEF" cx="107.869" cy="4.7" rx="3.832" ry="3.829"/><path stroke="url(#y)" stroke-width="3" d="M373.12 166.643l-71.368 42.6 104.416 65.098"/><path stroke="url(#z)" stroke-width="3" d="M3.832 278.17l117.827-69.884-72.804-42.122"/><ellipse fill="#6E9BEF" cx="406.168" cy="274.341" rx="3.832" ry="3.829"/><ellipse fill="#6E9BEF" cx="3.832" cy="278.171" rx="3.832" ry="3.829"/></g></g></svg>