<svg xmlns="http://www.w3.org/2000/svg" aria-hidden="true" style="position: absolute; width: 0px; height: 0px; overflow: hidden;"><symbol id="ep-icon-kf" viewBox="0 0 1083 1024"><path d="M902.799519 542.184197V421.810928A361.119808 361.119808 0 1 0 180.559904 421.810928v240.746538h-30.093317a150.466587 150.466587 0 0 1-26.121-298.646081 421.366629 421.366629 0 0 1 834.668249 0 150.466587 150.466587 0 0 1-13.301246 298.104401 422.209242 422.209242 0 0 1-284.562409 284.321662 90.279952 90.279952 0 1 1-11.916953-59.344021A361.300368 361.300368 0 0 0 902.799519 542.184197z m-180.559904-60.186635h60.186635a240.746538 240.746538 0 1 1-481.493077 0h60.186635a180.559904 180.559904 0 1 0 361.119807 0z"/></symbol><symbol id="ep-icon-mail-filled" viewBox="0 0 1024 1024"><path d="M256 384l256 64 256-64c0-38.4-25.6-64-64-64H320c-38.4 0-64 25.6-64 64z m0 64v204.8c0 25.6 25.6 51.2 51.2 51.2h409.6c25.6 0 51.2-25.6 51.2-51.2V448L512 512 256 448z"/><path d="M512 1024c-281.6 0-512-230.4-512-512s230.4-512 512-512 512 230.4 512 512-230.4 512-512 512zM512 64C262.4 64 64 262.4 64 512s198.4 448 448 448 448-198.4 448-448-198.4-448-448-448z"/></symbol><symbol id="ep-icon-ios" viewBox="0 0 1024 1024"><path d="M915.720335 716.984261c-1.163306 3.392976-21.133392 69.556004-69.556004 137.900231-41.879016 59.134721-85.309106 117.833203-153.701805 119.04498-67.374805 1.211777-88.895966-38.48604-165.819575-38.48604-76.923609 0-100.965266 37.322734-164.607798 39.746288-65.969144 2.423554-116.330599-63.787945-158.500442-122.63184C117.11077 732.15571 51.238568 512.387819 139.795237 364.017834 183.758509 290.341788 262.330135 243.712606 347.639241 242.452357c64.90278-1.114835 126.170229 42.266784 165.771104 42.266785 39.697817 0 114.052458-52.106414 192.284787-44.496454 32.717981 1.308719 124.716097 12.747895 183.705405 96.021215-4.701695 2.956736-109.738532 61.849102-108.478284 184.674827 1.405661 146.625026 133.295478 195.386936 134.798082 196.065531zM558.779279 79.153279C595.035649 38.195213 656.206156 7.755373 706.713025 5.81653c6.495125 56.711167-17.207234 113.713161-52.251828 154.768168-35.093064 40.909594-92.62824 72.852038-149.000109 68.635054-7.60996-55.741746 20.842566-113.66469 53.318191-150.066473z"/></symbol><symbol id="ep-icon-android" viewBox="0 0 1024 1024"><path d="M239.712124 759.964457c0 23.468518 19.124245 42.639984 42.592764 42.639984h50.573004v141.377755a47.692563 47.692563 0 0 0 95.290685 0v-141.377755h141.897178V944.407179a47.220359 47.220359 0 0 0 94.346278 0v-141.849958h50.431343a42.734425 42.734425 0 0 0 42.639984-42.639985V378.235075H239.664904v381.729382zM97.10664 425.455434v282.519408a47.220359 47.220359 0 0 0 94.440718 0V425.455434a47.220359 47.220359 0 1 0-94.440718 0z m708.305384-0.330542V708.305384a46.937037 46.937037 0 1 0 93.826854 0V425.124892a46.937037 46.937037 0 0 0-93.826854 0z m-156.488269-301.596433l55.625583-55.625583A21.249162 21.249162 0 1 0 674.517189 37.776287l-63.086399 62.897518A253.998311 253.998311 0 0 0 498.479691 74.135964a254.045531 254.045531 0 0 0-113.564963 26.868384L321.639447 37.634626a21.249162 21.249162 0 1 0-30.079369 30.032148L347.374543 123.528459a256.123227 256.123227 0 0 0-104.640316 206.352969h511.490928c0-84.854985-41.553916-159.888135-105.3014-206.352969zM413.246943 244.601459h-42.639984v-42.639984h42.639984v42.639984z m213.10548 0h-42.639984v-42.639984h42.639984v42.639984z"/></symbol><symbol id="ep-icon-phone" viewBox="0 0 1024 1024"><path d="M512 1024C230.4 1024 0 793.6 0 512S230.4 0 512 0s512 230.4 512 512-230.4 512-512 512z m0-972.8c-256 0-460.8 204.8-460.8 460.8s204.8 460.8 460.8 460.8 460.8-204.8 460.8-460.8-204.8-460.8-460.8-460.8z"/><path d="M675.84 793.6c-168.96 0-450.56-276.48-450.56-440.32 0-56.32 76.8-122.88 122.88-122.88 40.96 0 122.88 128 122.88 158.72 0 20.48-5.12 30.72-10.24 40.96l-5.12 5.12c-5.12 15.36-5.12 15.36-5.12 20.48V460.8c5.12 15.36 81.92 97.28 107.52 107.52h5.12c5.12 0 5.12 0 20.48-10.24l5.12-5.12c15.36-10.24 30.72-10.24 40.96-10.24 25.6 0 168.96 87.04 168.96 122.88 0 66.56-61.44 128-122.88 128z m-332.8-512c-20.48 5.12-66.56 46.08-66.56 71.68 0 122.88 250.88 389.12 399.36 389.12 30.72 0 66.56-30.72 71.68-66.56-20.48-20.48-97.28-76.8-117.76-76.8 0 0-5.12 0-15.36 5.12l-5.12 5.12c-15.36 10.24-25.6 15.36-40.96 15.36H563.2l-20.48-5.12c-35.84-15.36-133.12-112.64-143.36-148.48v-15.36c0-20.48 5.12-35.84 15.36-51.2l5.12-5.12c5.12-10.24 5.12-10.24 5.12-15.36-5.12-10.24-61.44-87.04-81.92-102.4z"/></symbol><symbol id="ep-icon-qq-filled" viewBox="0 0 1024 1024"><path d="M512 1024c-281.6 0-512-230.4-512-512s230.4-512 512-512 512 230.4 512 512-230.4 512-512 512zM512 64C262.4 64 64 262.4 64 512s198.4 448 448 448 448-198.4 448-448-198.4-448-448-448z"/><path d="M691.2 633.6c57.6 96 51.2-12.8 51.2-12.8-12.8-64-57.6-108.8-57.6-108.8 6.4-57.6-19.2-70.4-19.2-70.4C665.6 249.6 512 256 512 256s-153.6-6.4-153.6 179.2c0 0-25.6 12.8-19.2 70.4 0 0-44.8 44.8-57.6 108.8 0 0-6.4 108.8 51.2 12.8 0 0 12.8 38.4 38.4 70.4 0 0-38.4 12.8-38.4 57.6 0 0 0 44.8 89.6 38.4 0 0 64-6.4 83.2-32h19.2c19.2 25.6 83.2 32 83.2 32 89.6 0 89.6-38.4 89.6-38.4 6.4-38.4-38.4-57.6-38.4-57.6 19.2-32 32-64 32-64z"/></symbol><symbol id="ep-icon-service" viewBox="0 0 1024 1024"><path d="M512 1002.442105c-16.168421 0-458.105263 0-458.105263-80.842105 0-118.568421 97.010526-242.526316 237.136842-296.421053l16.168421-5.389473 16.168421 10.778947c48.505263 53.894737 118.568421 80.842105 188.631579 80.842105 70.063158 0 140.126316-32.336842 188.631579-80.842105l10.778947-10.778947 16.168421 5.389473c140.126316 53.894737 237.136842 177.852632 237.136842 296.421053 5.389474 80.842105-436.547368 80.842105-452.715789 80.842105z m-398.821053-97.010526c37.726316 16.168421 194.021053 43.115789 398.821053 43.115789 210.189474 0 361.094737-26.947368 398.821053-43.115789-5.389474-86.231579-80.842105-183.242105-183.242106-226.357895-59.284211 53.894737-134.736842 86.231579-215.578947 86.231579s-156.294737-32.336842-215.578947-86.231579c-102.4 48.505263-177.852632 140.126316-183.242106 226.357895z m398.821053-253.305263c-145.515789 0-258.694737-118.568421-258.694737-258.694737 0-91.621053 48.505263-177.852632 129.347369-226.357895 80.842105-48.505263 177.852632-48.505263 258.694736 0s129.347368 134.736842 129.347369 226.357895c0 140.126316-113.178947 258.694737-258.694737 258.694737z m0-468.884211c-37.726316 0-70.063158 10.778947-102.4 26.947369-64.673684 37.726316-102.4 107.789474-102.4 177.852631 0 113.178947 91.621053 204.8 204.8 204.8 113.178947 0 204.8-91.621053 204.8-204.8 0-75.452632-37.726316-140.126316-102.4-177.852631-32.336842-16.168421-64.673684-26.947368-102.4-26.947369z m361.094737 91.621053c37.726316 10.778947 70.063158 48.505263 64.673684 97.010526 0 53.894737-26.947368 97.010526-75.452632 97.010527-21.557895 0-32.336842-53.894737-32.336842-107.789474C824.589474 194.021053 679.073684 53.894737 512 53.894737 339.536842 53.894737 194.021053 204.8 194.021053 371.873684c0 48.505263-10.778947 97.010526-32.336842 97.010527-48.505263 0-80.842105-43.115789-80.842106-97.010527 0-48.505263 32.336842-86.231579 70.063158-97.010526C194.021053 118.568421 339.536842 0 512 0s317.978947 118.568421 361.094737 274.863158z"/></symbol><symbol id="ep-icon-top" viewBox="0 0 1024 1024"><path d="M952.03328 0H71.96672C32.23552 0 0 32.48128 0 72.54016c0 40.05888 32.23552 72.54016 71.96672 72.54016h880.06656c39.7312 0 71.96672-32.48128 71.96672-72.4992C1024 32.44032 991.76448 0 952.03328 0z m-387.072 220.24192a72.78592 72.78592 0 0 0-5.3248-4.79232c-0.8192-0.69632-1.6384-1.26976-2.4576-1.92512-1.06496-0.77824-2.08896-1.59744-3.15392-2.29376a48.98816 48.98816 0 0 0-3.11296-1.92512c-0.98304-0.57344-1.92512-1.2288-2.94912-1.72032-1.06496-0.57344-2.12992-1.06496-3.23584-1.59744-1.024-0.49152-2.048-1.024-3.15392-1.47456l-3.19488-1.18784-3.44064-1.2288-3.2768-0.8192c-1.14688-0.28672-2.33472-0.6144-3.56352-0.86016-1.2288-0.24576-2.49856-0.4096-3.76832-0.6144-1.06496-0.12288-2.08896-0.32768-3.19488-0.4096a72.0896 72.0896 0 0 0-7.04512-0.4096l-1.06496 0.08192a71.43424 71.43424 0 0 0-51.89632 21.17632l-363.97056 366.91968a72.99072 72.99072 0 0 0 0 102.6048 71.43424 71.43424 0 0 0 101.7856 0l243.13856-245.1456V951.5008c0 40.05888 32.23552 72.54016 71.96672 72.54016 39.7312 0 71.96672-32.48128 71.96672-72.54016V446.70976l241.09056 243.05664a71.43424 71.43424 0 0 0 101.7856 0 72.94976 72.94976 0 0 0 0-102.6048l-363.9296-366.91968z"/></symbol><symbol id="ep-icon-stack" viewBox="0 0 1080 1024"><path d="M488.986648 790.798285c40.478839 19.329783 58.0462 19.329783 101.822473 0l458.229552-208.477391c22.684068-10.801937 30.757095-61.00252 30.757096-87.893659-29.506345 15.009008-71.235934 36.214916-71.975015 36.385474l-468.008148 218.312839-467.894444-218.312839c1.705569 1.023341-41.331623-18.590703-71.918162-36.271769 0 26.322616 6.42431 74.703925 30.813948 87.779954l458.229552 208.477391z"/><path d="M539.812606 967.608944l-467.894444-218.483396c1.705569 0.966489-41.331623-18.647555-71.918162-36.328621 0 26.379468 6.651719 74.817629 30.813948 87.893658l458.229552 208.420539c40.365134 19.386635 57.989348 19.386635 101.765621 0l457.945291-208.420539c22.740921-10.801937 30.813948-61.00252 30.813947-87.893658-29.506345 15.009008-71.008525 36.214916-71.975014 36.328621l-467.780739 218.483396"/><path d="M1048.754412 260.934832L590.809121 16.071968c-35.930655-21.603875-61.400486-20.353124-101.765621 0L30.757095 260.934832c-34.964166 22.627216-35.930655 83.629736 0 102.902666l458.229553 214.333178c40.365134 19.27293 57.989348 19.27293 101.76562 0l458.229553-214.333178c33.542858-15.975497 34.679904-83.402327-0.284261-102.902666zM539.812606 538.146656l-473.579674-225.703639 473.693378-254.698312 475.910619 254.698312-476.024323 225.703639z"/></symbol><symbol id="ep-icon-windows" viewBox="0 0 1024 1024"><path d="M51.2 459.776h308.224v-322.56L51.2 196.4032V459.776z m409.2416 0H972.8V0L460.4416 104.192V459.776zM51.2 564.1216v263.5264l308.224 59.0848v-322.6112H51.2z m409.2416 355.6864L972.8 1024v-459.8784H460.4416v355.6864z"/></symbol><symbol id="ep-icon-wechat" viewBox="0 0 1228 1024"><path d="M434.91328 0C195.82976 0 0 166.7072 0 378.4704c0 122.18368 65.1264 222.53568 173.99808 300.2368l-43.49952 133.9392 152.04352-78.06976c54.39488 11.0592 98.05824 22.36416 152.33024 22.36416 13.63968 0 27.19744-0.69632 40.59136-1.80224a339.39456 339.39456 0 0 1-13.39392-93.22496c0-194.31424 163.14368-352.0512 369.74592-352.0512 14.09024 0 28.0576 1.024 41.90208 2.62144C836.07552 133.20192 648.8064 0 434.91328 0z m-141.312 300.4416c-32.5632 0-65.45408-22.36416-65.45408-55.7056 0-33.50528 32.89088-55.5008 65.49504-55.5008 32.5632 0 54.31296 22.03648 54.31296 55.5008 0 33.34144-21.7088 55.7056-54.31296 55.7056z m304.41472 0c-32.60416 0-65.29024-22.36416-65.29024-55.7056 0-33.50528 32.68608-55.5008 65.29024-55.5008 32.768 0 54.4768 22.03648 54.4768 55.5008 0 33.34144-21.7088 55.7056-54.4768 55.7056zM1228.8 656.5888c0-177.7664-173.99808-322.7648-369.41824-322.7648-206.92992 0-369.8688 144.9984-369.8688 322.7648 0 178.176 162.93888 322.88768 369.8688 322.88768 43.29472 0 86.95808-11.14112 130.49856-22.3232L1109.1968 1024l-32.768-111.2064C1163.79648 845.824 1228.8 756.9408 1228.8 656.5888z m-489.34912-55.58272c-21.7088 0-43.54048-22.03648-43.54048-44.48256 0-22.24128 21.87264-44.56448 43.54048-44.56448 32.89088 0 54.43584 22.3232 54.43584 44.56448 0 22.44608-21.54496 44.48256-54.4768 44.48256z m239.2064 0c-21.504 0-43.17184-22.03648-43.17184-44.48256 0-22.24128 21.7088-44.56448 43.2128-44.56448 32.5632 0 54.43584 22.3232 54.43584 44.56448 0 22.44608-21.87264 44.48256-54.4768 44.48256z"/></symbol><symbol id="ep-icon-phone-filled" viewBox="0 0 1024 1024"><path d="M512 1024c-281.6 0-512-230.4-512-512s230.4-512 512-512 512 230.4 512 512-230.4 512-512 512zM512 64C262.4 64 64 262.4 64 512s198.4 448 448 448 448-198.4 448-448-198.4-448-448-448zM409.6 428.8c-19.2 19.2 19.2 70.4 64 121.6 51.2 44.8 102.4 83.2 121.6 64 32-25.6 51.2-51.2 115.2 0s19.2 83.2-12.8 115.2-160 0-281.6-121.6C294.4 486.4 262.4 358.4 294.4 326.4c25.6-25.6 64-76.8 115.2-12.8 57.6 64 32 83.2 0 115.2z"/></symbol><symbol id="ep-icon-logo" viewBox="0 0 4096 1024"><path d="M2886.306909 512c0-282.763636 229.236364-512 512-512s512 229.236364 512 512-229.236364 512-512 512-512-229.236364-512-512z m1140.363636 465.454545a69.818182 69.818182 0 1 1 0-139.682909 69.818182 69.818182 0 0 1 0 139.682909zM3723.659636 362.356364a31.278545 31.278545 0 0 0 0.372364-3.537455L3724.125091 357.794909c0-0.605091-0.139636-1.256727-0.186182-1.861818l-0.279273-3.304727a40.494545 40.494545 0 0 0-2.978909-9.076364 34.257455 34.257455 0 0 0-3.118545-5.213091c-0.512-0.651636-1.024-1.396364-1.675637-2.001454a21.783273 21.783273 0 0 0-2.513454-2.56 23.04 23.04 0 0 0-5.259636-3.723637c-0.372364-0.279273-0.698182-0.558545-1.117091-0.791273a1.815273 1.815273 0 0 0-0.651637-0.232727 19.735273 19.735273 0 0 0-3.770182-1.536c-0.698182-0.232727-1.442909-0.512-2.14109-0.651636-1.163636-0.325818-2.234182-0.465455-3.444364-0.651637-0.930909-0.093091-1.861818-0.232727-2.792727-0.232727-0.372364 0-0.744727-0.139636-1.070546-0.139636h-199.028363c-0.744727 0-1.396364 0.186182-2.094546 0.186182-1.070545 0.093091-2.001455 0.139636-3.025454 0.325818a20.200727 20.200727 0 0 0-2.97891 0.698182c-0.930909 0.279273-1.861818 0.651636-2.885818 0.930909a57.623273 57.623273 0 0 0-2.56 1.163636c-0.930909 0.512-1.954909 1.070545-2.885818 1.675636l-1.954909 1.396364a29.370182 29.370182 0 0 0-2.932364 2.513455c-0.512 0.418909-0.930909 0.930909-1.396363 1.396363a28.625455 28.625455 0 0 0-2.56 3.258182l-1.024 1.722182c-0.465455 0.837818-1.117091 1.536-1.489455 2.420364v-0.046546l-51.013818 104.820364-56.878545 116.922182s-48.174545 99.048727-53.946182 110.778181c-5.725091 11.822545-11.450182 0-11.450182 0L3159.528727 401.640727s-5.445818-11.776 7.074909-11.776h104.075637c12.706909 0 18.525091 11.776 18.525091 11.776l65.629091 134.981818 34.722909-71.400727L3330.350545 343.505455c-0.465455-0.930909-1.024-1.675636-1.536-2.513455-0.325818-0.558545-0.558545-1.024-0.930909-1.442909a25.832727 25.832727 0 0 0-2.792727-3.537455c-0.372364-0.418909-0.698182-0.837818-1.070545-1.117091a30.906182 30.906182 0 0 0-16.244364-8.517818c-1.070545-0.186182-2.141091-0.232727-3.258182-0.325818-0.651636 0-1.303273-0.186182-1.954909-0.186182h-199.028364l-0.977454 0.139637a20.386909 20.386909 0 0 0-3.025455 0.279272 20.992 20.992 0 0 0-3.258181 0.605091 16.663273 16.663273 0 0 0-2.373819 0.698182c-1.163636 0.465455-2.327273 0.837818-3.490909 1.396364l-0.791272 0.325818c-0.465455 0.232727-0.837818 0.558545-1.303273 0.884364a33.792 33.792 0 0 0-3.118546 1.908363 71.68 71.68 0 0 1-2.094545 1.861818c-0.791273 0.698182-1.536 1.489455-2.327273 2.280728l-1.815273 2.327272a122.461091 122.461091 0 0 0-1.768727 2.606546l-1.396363 2.56a32.395636 32.395636 0 0 0-2.094546 5.864727l-0.651636 3.025455a27.648 27.648 0 0 0-0.325818 3.397818c0 0.605091-0.186182 1.256727-0.186182 1.861818l0.093091 0.930909a29.090909 29.090909 0 0 0 0.372363 3.537455c0.139636 0.930909 0.186182 1.861818 0.465455 2.839272 0.186182 1.024 0.558545 2.001455 0.837818 2.978909 0.372364 1.117091 0.698182 2.141091 1.210182 3.165091l0.325818 0.930909 194.141091 399.034182a31.650909 31.650909 0 0 0 14.754909 16.756364c1.396364 0.698182 2.792727 1.163636 4.189091 1.629091l0.418909 0.139636a29.602909 29.602909 0 0 0 6.190545 1.396364c1.210182 0.093091 2.327273 0.139636 3.49091 0.093091l2.885818-0.046546 2.327272-0.465454a28.997818 28.997818 0 0 0 3.909819-0.930909l1.117091-0.418909c1.210182-0.465455 2.466909-0.837818 3.630545-1.44291a31.418182 31.418182 0 0 0 14.754909-16.756363L3398.306909 625.896727l0.139636 0.325818 57.669819-119.435636 0.093091 0.186182 51.2-105.332364s6.144-11.776 18.52509-11.776h104.122182c12.660364 0 6.981818 11.776 6.981818 11.776l-133.445818 274.385455c-5.725091 11.776-11.450182 0-11.450182 0L3441.780364 572.509091l-34.629819 71.586909 61.765819 127.069091a31.325091 31.325091 0 0 0 14.894545 16.896 23.412364 23.412364 0 0 0 4.514909 1.768727c1.536 0.465455 3.025455 0.930909 4.608 1.117091l1.629091 0.279273c1.163636 0.093091 2.327273 0.139636 3.537455 0.093091l2.839272-0.046546a36.491636 36.491636 0 0 0 2.280728-0.418909c1.349818-0.279273 2.653091-0.512 3.956363-0.930909l1.070546-0.418909c1.210182-0.465455 2.466909-0.884364 3.723636-1.489455a31.185455 31.185455 0 0 0 14.708364-16.756363l194.141091-398.987637 0.372363-1.070545a26.717091 26.717091 0 0 0 2.001455-6.050909c0.279273-0.930909 0.372364-1.861818 0.465454-2.746182zM2653.579636 676.026182c0 114.920727-92.439273 208.197818-206.429091 208.337454H1932.590545a44.125091 44.125091 0 0 1-44.078545-44.311272c0-24.436364 19.735273-44.264727 44.032-44.264728h514.327273a119.156364 119.156364 0 0 0 118.737454-119.761454 119.156364 119.156364 0 0 0-118.690909-119.621818v-0.186182h-377.995636C1954.839273 556.218182 1862.306909 462.987636 1862.306909 347.973818 1862.306909 232.913455 1954.839273 139.636364 2068.922182 139.636364h514.466909c24.250182 0 43.938909 19.781818 43.938909 44.311272a44.125091 44.125091 0 0 1-43.938909 44.311273H2068.922182c-65.629091 0-118.690909 53.713455-118.690909 119.714909 0 66.094545 53.061818 119.621818 118.690909 119.621818v0.186182h377.949091v-0.232727c114.222545 0 206.708364 93.370182 206.708363 208.523636zM1815.761455 348.020364c0 114.967273-94.487273 208.151273-211.130182 208.244363 0 0-0.046545 0.093091-0.232728 0.093091h-449.489454a40.075636 40.075636 0 0 0-40.401455 39.842909v121.576728h-0.093091v122.321454a44.683636 44.683636 0 0 1-45.056 44.264727 44.590545 44.590545 0 0 1-44.869818-44.264727v-243.898182h0.093091c0-70.935273 58.274909-128.651636 130.327273-128.651636 0.372364 0 0.651636 0.232727 0.977454 0.232727h448.512v-0.232727c67.025455 0 121.390545-53.434182 121.390546-119.528727 0-66.048-54.272-119.575273-121.344-119.761455v0.186182H1069.312A44.683636 44.683636 0 0 1 1024.488727 184.133818c0-24.529455 20.107636-44.357818 44.869818-44.357818H1604.445091V139.636364C1721.274182 139.636364 1815.761455 232.96 1815.761455 348.020364z m-928.67491-174.08l0.465455-0.279273v670.114909l-0.605091-0.139636a45.661091 45.661091 0 0 1-9.588364 29.184 43.287273 43.287273 0 0 1-62.04509 5.632l-371.293091-311.342546-371.246546 311.389091a43.054545 43.054545 0 0 1-62.045091-5.678545 45.661091 45.661091 0 0 1-9.588363-29.184L0.488727 843.962182V173.661091h0.279273a45.149091 45.149091 0 0 1 9.728-29.137455 42.821818 42.821818 0 0 1 61.672727-5.818181l4.142546 3.351272 0.372363 0.605091 312.785455 262.656L320.442182 463.592727 88.32 268.893091v479.650909l106.449455-89.134545c0.279273-0.279273 0.465455-0.279273 0.698181-0.558546l103.330909-86.807273 75.589819-63.394909H374.248727l69.026909-57.949091 250.740364 210.478546c1.489455 1.489455 3.258182 1.908364 4.887273 2.792727l100.817454 84.573091V268.753455L566.946909 463.965091l-69.632-58.321455 318.324364-266.938181a42.821818 42.821818 0 0 1 61.765818 5.818181c6.935273 8.704 9.774545 18.990545 9.774545 29.463273z"/></symbol></svg>